<svg width="1232" height="287" viewBox="0 0 1232 287" fill="none" xmlns="http://www.w3.org/2000/svg">
<g filter="url(#filter0_d_250_363)">
<rect x="4" width="1224" height="279" rx="15" fill="#8684FF"/>
<path d="M1226.47 137.975C1227.84 136.608 1227.84 134.392 1226.47 133.025L1204.2 110.751C1202.83 109.384 1200.62 109.384 1199.25 110.751C1197.88 112.118 1197.88 114.334 1199.25 115.701L1219.05 135.5L1199.25 155.299C1197.88 156.666 1197.88 158.882 1199.25 160.249C1200.62 161.616 1202.83 161.616 1204.2 160.249L1226.47 137.975ZM1180 139H1224V132H1180V139Z" fill="white"/>
<line x1="4.00328" y1="135" x2="1218" y2="135.995" stroke="white" stroke-width="8"/>
<circle cx="31.5" cy="135.5" r="13.5" fill="white"/>
<circle cx="31.5" cy="135.5" r="13.5" fill="white"/>
<circle cx="321.5" cy="135.5" r="13.5" fill="white"/>
<circle cx="321.5" cy="135.5" r="13.5" fill="white"/>
<circle cx="611.5" cy="135.5" r="13.5" fill="white"/>
<circle cx="611.5" cy="135.5" r="13.5" fill="white"/>
<circle cx="901.5" cy="135.5" r="13.5" fill="white"/>
<circle cx="901.5" cy="135.5" r="13.5" fill="white"/>
<rect x="115" y="41" width="150" height="43" rx="10" fill="white"/>
<path d="M129.409 70.8182V66.75H130.159C130.417 66.5152 130.659 66.1837 130.886 65.7557C131.117 65.3239 131.312 64.7481 131.472 64.0284C131.634 63.3049 131.742 62.3864 131.795 61.2727L132.045 56.3636H138.955V66.75H140.295V70.7955H138.955V68H130.75V70.8182H129.409ZM131.841 66.75H137.614V57.6136H133.318L133.136 61.2727C133.091 62.1212 133.011 62.8902 132.898 63.5795C132.784 64.2652 132.638 64.8731 132.46 65.4034C132.282 65.9299 132.076 66.3788 131.841 66.75ZM142.243 71.2727V59.2727H143.538V60.6591H143.697C143.796 60.5076 143.932 60.3144 144.107 60.0795C144.285 59.8409 144.538 59.6288 144.868 59.4432C145.201 59.2538 145.652 59.1591 146.22 59.1591C146.955 59.1591 147.603 59.3428 148.163 59.7102C148.724 60.0777 149.161 60.5985 149.476 61.2727C149.79 61.947 149.947 62.7424 149.947 63.6591C149.947 64.5833 149.79 65.3845 149.476 66.0625C149.161 66.7367 148.726 67.2595 148.169 67.6307C147.612 67.9981 146.97 68.1818 146.243 68.1818C145.682 68.1818 145.233 68.089 144.896 67.9034C144.559 67.714 144.3 67.5 144.118 67.2614C143.936 67.0189 143.796 66.8182 143.697 66.6591H143.584V71.2727H142.243ZM143.561 63.6364C143.561 64.2955 143.658 64.8769 143.851 65.3807C144.044 65.8807 144.326 66.2727 144.697 66.5568C145.069 66.8371 145.523 66.9773 146.061 66.9773C146.622 66.9773 147.089 66.8295 147.464 66.5341C147.843 66.2348 148.127 65.8333 148.317 65.3295C148.51 64.822 148.607 64.2576 148.607 63.6364C148.607 63.0227 148.512 62.4697 148.322 61.9773C148.137 61.4811 147.855 61.089 147.476 60.8011C147.101 60.5095 146.629 60.3636 146.061 60.3636C145.516 60.3636 145.057 60.5019 144.686 60.7784C144.315 61.0511 144.035 61.4337 143.845 61.9261C143.656 62.4148 143.561 62.9848 143.561 63.6364ZM155.652 68.1818C154.811 68.1818 154.086 67.9962 153.476 67.625C152.87 67.25 152.402 66.7273 152.072 66.0568C151.747 65.3826 151.584 64.5985 151.584 63.7045C151.584 62.8106 151.747 62.0227 152.072 61.3409C152.402 60.6553 152.86 60.1212 153.447 59.7386C154.038 59.3523 154.728 59.1591 155.516 59.1591C155.97 59.1591 156.419 59.2348 156.862 59.3864C157.305 59.5379 157.709 59.7841 158.072 60.125C158.436 60.4621 158.726 60.9091 158.942 61.4659C159.158 62.0227 159.266 62.7083 159.266 63.5227V64.0909H152.538V62.9318H157.902C157.902 62.4394 157.804 62 157.607 61.6136C157.413 61.2273 157.137 60.9223 156.777 60.6989C156.421 60.4754 156 60.3636 155.516 60.3636C154.982 60.3636 154.519 60.4962 154.129 60.7614C153.743 61.0227 153.446 61.3636 153.237 61.7841C153.029 62.2045 152.925 62.6553 152.925 63.1364V63.9091C152.925 64.5682 153.038 65.1269 153.266 65.5852C153.497 66.0398 153.817 66.3864 154.226 66.625C154.635 66.8598 155.11 66.9773 155.652 66.9773C156.004 66.9773 156.322 66.928 156.607 66.8295C156.894 66.7273 157.143 66.5758 157.351 66.375C157.559 66.1705 157.72 65.9167 157.834 65.6136L159.129 65.9773C158.993 66.4167 158.764 66.803 158.442 67.1364C158.12 67.4659 157.722 67.7235 157.249 67.9091C156.775 68.0909 156.243 68.1818 155.652 68.1818ZM161.305 68V59.2727H164.874C165.813 59.2727 166.559 59.4848 167.112 59.9091C167.665 60.3333 167.942 60.8939 167.942 61.5909C167.942 62.1212 167.785 62.5322 167.47 62.8239C167.156 63.1117 166.752 63.3068 166.26 63.4091C166.582 63.4545 166.894 63.5682 167.197 63.75C167.504 63.9318 167.758 64.1818 167.959 64.5C168.16 64.8144 168.26 65.2008 168.26 65.6591C168.26 66.1061 168.146 66.5057 167.919 66.858C167.692 67.2102 167.366 67.4886 166.942 67.6932C166.518 67.8977 166.01 68 165.419 68H161.305ZM162.578 66.7727H165.419C165.881 66.7727 166.243 66.6629 166.504 66.4432C166.766 66.2235 166.896 65.9242 166.896 65.5455C166.896 65.0947 166.766 64.7405 166.504 64.483C166.243 64.2216 165.881 64.0909 165.419 64.0909H162.578V66.7727ZM162.578 62.9318H164.874C165.233 62.9318 165.542 62.8826 165.8 62.7841C166.057 62.6818 166.254 62.5379 166.391 62.3523C166.531 62.1629 166.601 61.9394 166.601 61.6818C166.601 61.3144 166.447 61.0265 166.141 60.8182C165.834 60.6061 165.411 60.5 164.874 60.5H162.578V62.9318ZM176.131 63.0227V64.2727H171.312V63.0227H176.131ZM171.631 59.2727V68H170.29V59.2727H171.631ZM177.153 59.2727V68H175.812V59.2727H177.153ZM183.261 68.1818C182.42 68.1818 181.695 67.9962 181.085 67.625C180.479 67.25 180.011 66.7273 179.682 66.0568C179.356 65.3826 179.193 64.5985 179.193 63.7045C179.193 62.8106 179.356 62.0227 179.682 61.3409C180.011 60.6553 180.47 60.1212 181.057 59.7386C181.648 59.3523 182.337 59.1591 183.125 59.1591C183.58 59.1591 184.028 59.2348 184.472 59.3864C184.915 59.5379 185.318 59.7841 185.682 60.125C186.045 60.4621 186.335 60.9091 186.551 61.4659C186.767 62.0227 186.875 62.7083 186.875 63.5227V64.0909H180.148V62.9318H185.511C185.511 62.4394 185.413 62 185.216 61.6136C185.023 61.2273 184.746 60.9223 184.386 60.6989C184.03 60.4754 183.61 60.3636 183.125 60.3636C182.591 60.3636 182.129 60.4962 181.739 60.7614C181.352 61.0227 181.055 61.3636 180.847 61.7841C180.638 62.2045 180.534 62.6553 180.534 63.1364V63.9091C180.534 64.5682 180.648 65.1269 180.875 65.5852C181.106 66.0398 181.426 66.3864 181.835 66.625C182.244 66.8598 182.72 66.9773 183.261 66.9773C183.614 66.9773 183.932 66.928 184.216 66.8295C184.504 66.7273 184.752 66.5758 184.96 66.375C185.169 66.1705 185.33 65.9167 185.443 65.6136L186.739 65.9773C186.602 66.4167 186.373 66.803 186.051 67.1364C185.729 67.4659 185.331 67.7235 184.858 67.9091C184.384 68.0909 183.852 68.1818 183.261 68.1818ZM192.574 68.1818C191.733 68.1818 191.008 67.9962 190.398 67.625C189.792 67.25 189.324 66.7273 188.994 66.0568C188.669 65.3826 188.506 64.5985 188.506 63.7045C188.506 62.8106 188.669 62.0227 188.994 61.3409C189.324 60.6553 189.782 60.1212 190.369 59.7386C190.96 59.3523 191.65 59.1591 192.438 59.1591C192.892 59.1591 193.341 59.2348 193.784 59.3864C194.227 59.5379 194.631 59.7841 194.994 60.125C195.358 60.4621 195.648 60.9091 195.864 61.4659C196.08 62.0227 196.188 62.7083 196.188 63.5227V64.0909H189.46V62.9318H194.824C194.824 62.4394 194.725 62 194.528 61.6136C194.335 61.2273 194.059 60.9223 193.699 60.6989C193.343 60.4754 192.922 60.3636 192.438 60.3636C191.903 60.3636 191.441 60.4962 191.051 60.7614C190.665 61.0227 190.367 61.3636 190.159 61.7841C189.951 62.2045 189.847 62.6553 189.847 63.1364V63.9091C189.847 64.5682 189.96 65.1269 190.188 65.5852C190.419 66.0398 190.739 66.3864 191.148 66.625C191.557 66.8598 192.032 66.9773 192.574 66.9773C192.926 66.9773 193.244 66.928 193.528 66.8295C193.816 66.7273 194.064 66.5758 194.273 66.375C194.481 66.1705 194.642 65.9167 194.756 65.6136L196.051 65.9773C195.915 66.4167 195.686 66.803 195.364 67.1364C195.042 67.4659 194.644 67.7235 194.17 67.9091C193.697 68.0909 193.165 68.1818 192.574 68.1818ZM202.727 68V59.2727H206.295C207.235 59.2727 207.981 59.4848 208.534 59.9091C209.087 60.3333 209.364 60.8939 209.364 61.5909C209.364 62.1212 209.206 62.5322 208.892 62.8239C208.578 63.1117 208.174 63.3068 207.682 63.4091C208.004 63.4545 208.316 63.5682 208.619 63.75C208.926 63.9318 209.18 64.1818 209.381 64.5C209.581 64.8144 209.682 65.2008 209.682 65.6591C209.682 66.1061 209.568 66.5057 209.341 66.858C209.114 67.2102 208.788 67.4886 208.364 67.6932C207.939 67.8977 207.432 68 206.841 68H202.727ZM204 66.7727H206.841C207.303 66.7727 207.665 66.6629 207.926 66.4432C208.188 66.2235 208.318 65.9242 208.318 65.5455C208.318 65.0947 208.188 64.7405 207.926 64.483C207.665 64.2216 207.303 64.0909 206.841 64.0909H204V66.7727ZM204 62.9318H206.295C206.655 62.9318 206.964 62.8826 207.222 62.7841C207.479 62.6818 207.676 62.5379 207.812 62.3523C207.953 62.1629 208.023 61.9394 208.023 61.6818C208.023 61.3144 207.869 61.0265 207.562 60.8182C207.256 60.6061 206.833 60.5 206.295 60.5H204V62.9318ZM211.712 71.2727V59.2727H213.007V60.6591H213.166C213.265 60.5076 213.401 60.3144 213.575 60.0795C213.753 59.8409 214.007 59.6288 214.337 59.4432C214.67 59.2538 215.121 59.1591 215.689 59.1591C216.424 59.1591 217.071 59.3428 217.632 59.7102C218.193 60.0777 218.63 60.5985 218.945 61.2727C219.259 61.947 219.416 62.7424 219.416 63.6591C219.416 64.5833 219.259 65.3845 218.945 66.0625C218.63 66.7367 218.195 67.2595 217.638 67.6307C217.081 67.9981 216.439 68.1818 215.712 68.1818C215.151 68.1818 214.702 68.089 214.365 67.9034C214.028 67.714 213.768 67.5 213.587 67.2614C213.405 67.0189 213.265 66.8182 213.166 66.6591H213.053V71.2727H211.712ZM213.03 63.6364C213.03 64.2955 213.126 64.8769 213.32 65.3807C213.513 65.8807 213.795 66.2727 214.166 66.5568C214.537 66.8371 214.992 66.9773 215.53 66.9773C216.09 66.9773 216.558 66.8295 216.933 66.5341C217.312 66.2348 217.596 65.8333 217.786 65.3295C217.979 64.822 218.075 64.2576 218.075 63.6364C218.075 63.0227 217.981 62.4697 217.791 61.9773C217.606 61.4811 217.323 61.089 216.945 60.8011C216.57 60.5095 216.098 60.3636 215.53 60.3636C214.984 60.3636 214.526 60.5019 214.155 60.7784C213.784 61.0511 213.503 61.4337 213.314 61.9261C213.125 62.4148 213.03 62.9848 213.03 63.6364ZM225.121 68.1818C224.28 68.1818 223.554 67.9962 222.945 67.625C222.339 67.25 221.871 66.7273 221.541 66.0568C221.215 65.3826 221.053 64.5985 221.053 63.7045C221.053 62.8106 221.215 62.0227 221.541 61.3409C221.871 60.6553 222.329 60.1212 222.916 59.7386C223.507 59.3523 224.196 59.1591 224.984 59.1591C225.439 59.1591 225.888 59.2348 226.331 59.3864C226.774 59.5379 227.178 59.7841 227.541 60.125C227.905 60.4621 228.195 60.9091 228.411 61.4659C228.626 62.0227 228.734 62.7083 228.734 63.5227V64.0909H222.007V62.9318H227.371C227.371 62.4394 227.272 62 227.075 61.6136C226.882 61.2273 226.606 60.9223 226.246 60.6989C225.89 60.4754 225.469 60.3636 224.984 60.3636C224.45 60.3636 223.988 60.4962 223.598 60.7614C223.212 61.0227 222.914 61.3636 222.706 61.7841C222.498 62.2045 222.393 62.6553 222.393 63.1364V63.9091C222.393 64.5682 222.507 65.1269 222.734 65.5852C222.965 66.0398 223.286 66.3864 223.695 66.625C224.104 66.8598 224.579 66.9773 225.121 66.9773C225.473 66.9773 225.791 66.928 226.075 66.8295C226.363 66.7273 226.611 66.5758 226.82 66.375C227.028 66.1705 227.189 65.9167 227.303 65.6136L228.598 65.9773C228.462 66.4167 228.232 66.803 227.911 67.1364C227.589 67.4659 227.191 67.7235 226.717 67.9091C226.244 68.0909 225.712 68.1818 225.121 68.1818ZM235.547 66.1818L238.592 59.2727H239.865L236.092 68H235.001L231.297 59.2727H232.547L235.547 66.1818ZM232.115 59.2727V68H230.774V59.2727H232.115ZM238.979 68V59.2727H240.32V68H238.979ZM248.024 68V60.5H245.706C245.183 60.5 244.772 60.6212 244.473 60.8636C244.174 61.1061 244.024 61.4394 244.024 61.8636C244.024 62.2803 244.159 62.608 244.428 62.8466C244.7 63.0852 245.073 63.2045 245.547 63.2045H248.365V64.4545H245.547C244.956 64.4545 244.446 64.3504 244.018 64.142C243.59 63.9337 243.261 63.6364 243.03 63.25C242.799 62.8598 242.683 62.3977 242.683 61.8636C242.683 61.3258 242.804 60.8636 243.047 60.4773C243.289 60.0909 243.636 59.7936 244.087 59.5852C244.541 59.3769 245.081 59.2727 245.706 59.2727H249.297V68H248.024ZM242.206 68L244.683 63.6591H246.138L243.661 68H242.206Z" fill="black"/>
<rect x="412" y="41" width="149" height="43" rx="10" fill="white"/>
<path d="M435.773 60H434.364C434.28 59.5947 434.134 59.2386 433.926 58.9318C433.722 58.625 433.472 58.3674 433.176 58.1591C432.884 57.947 432.561 57.7879 432.205 57.6818C431.848 57.5758 431.477 57.5227 431.091 57.5227C430.386 57.5227 429.748 57.7008 429.176 58.0568C428.608 58.4129 428.155 58.9375 427.818 59.6307C427.485 60.3239 427.318 61.1742 427.318 62.1818C427.318 63.1894 427.485 64.0398 427.818 64.733C428.155 65.4261 428.608 65.9508 429.176 66.3068C429.748 66.6629 430.386 66.8409 431.091 66.8409C431.477 66.8409 431.848 66.7879 432.205 66.6818C432.561 66.5758 432.884 66.4186 433.176 66.2102C433.472 65.9981 433.722 65.7386 433.926 65.4318C434.134 65.1212 434.28 64.7652 434.364 64.3636H435.773C435.667 64.9583 435.473 65.4905 435.193 65.9602C434.913 66.4299 434.564 66.8295 434.148 67.1591C433.731 67.4848 433.263 67.733 432.744 67.9034C432.229 68.0739 431.678 68.1591 431.091 68.1591C430.098 68.1591 429.216 67.9167 428.443 67.4318C427.67 66.947 427.063 66.2576 426.619 65.3636C426.176 64.4697 425.955 63.4091 425.955 62.1818C425.955 60.9545 426.176 59.8939 426.619 59C427.063 58.1061 427.67 57.4167 428.443 56.9318C429.216 56.447 430.098 56.2045 431.091 56.2045C431.678 56.2045 432.229 56.2898 432.744 56.4602C433.263 56.6307 433.731 56.8807 434.148 57.2102C434.564 57.536 434.913 57.9337 435.193 58.4034C435.473 58.8693 435.667 59.4015 435.773 60ZM437.868 71.2727V59.2727H439.163V60.6591H439.322C439.421 60.5076 439.557 60.3144 439.732 60.0795C439.91 59.8409 440.163 59.6288 440.493 59.4432C440.826 59.2538 441.277 59.1591 441.845 59.1591C442.58 59.1591 443.228 59.3428 443.788 59.7102C444.349 60.0777 444.786 60.5985 445.101 61.2727C445.415 61.947 445.572 62.7424 445.572 63.6591C445.572 64.5833 445.415 65.3845 445.101 66.0625C444.786 66.7367 444.351 67.2595 443.794 67.6307C443.237 67.9981 442.595 68.1818 441.868 68.1818C441.307 68.1818 440.858 68.089 440.521 67.9034C440.184 67.714 439.925 67.5 439.743 67.2614C439.561 67.0189 439.421 66.8182 439.322 66.6591H439.209V71.2727H437.868ZM439.186 63.6364C439.186 64.2955 439.283 64.8769 439.476 65.3807C439.669 65.8807 439.951 66.2727 440.322 66.5568C440.694 66.8371 441.148 66.9773 441.686 66.9773C442.247 66.9773 442.714 66.8295 443.089 66.5341C443.468 66.2348 443.752 65.8333 443.942 65.3295C444.135 64.822 444.232 64.2576 444.232 63.6364C444.232 63.0227 444.137 62.4697 443.947 61.9773C443.762 61.4811 443.48 61.089 443.101 60.8011C442.726 60.5095 442.254 60.3636 441.686 60.3636C441.141 60.3636 440.682 60.5019 440.311 60.7784C439.94 61.0511 439.66 61.4337 439.47 61.9261C439.281 62.4148 439.186 62.9848 439.186 63.6364ZM451.277 68.1818C450.436 68.1818 449.711 67.9962 449.101 67.625C448.495 67.25 448.027 66.7273 447.697 66.0568C447.372 65.3826 447.209 64.5985 447.209 63.7045C447.209 62.8106 447.372 62.0227 447.697 61.3409C448.027 60.6553 448.485 60.1212 449.072 59.7386C449.663 59.3523 450.353 59.1591 451.141 59.1591C451.595 59.1591 452.044 59.2348 452.487 59.3864C452.93 59.5379 453.334 59.7841 453.697 60.125C454.061 60.4621 454.351 60.9091 454.567 61.4659C454.783 62.0227 454.891 62.7083 454.891 63.5227V64.0909H448.163V62.9318H453.527C453.527 62.4394 453.429 62 453.232 61.6136C453.038 61.2273 452.762 60.9223 452.402 60.6989C452.046 60.4754 451.625 60.3636 451.141 60.3636C450.607 60.3636 450.144 60.4962 449.754 60.7614C449.368 61.0227 449.071 61.3636 448.862 61.7841C448.654 62.2045 448.55 62.6553 448.55 63.1364V63.9091C448.55 64.5682 448.663 65.1269 448.891 65.5852C449.122 66.0398 449.442 66.3864 449.851 66.625C450.26 66.8598 450.735 66.9773 451.277 66.9773C451.629 66.9773 451.947 66.928 452.232 66.8295C452.519 66.7273 452.768 66.5758 452.976 66.375C453.184 66.1705 453.345 65.9167 453.459 65.6136L454.754 65.9773C454.618 66.4167 454.389 66.803 454.067 67.1364C453.745 67.4659 453.347 67.7235 452.874 67.9091C452.4 68.0909 451.868 68.1818 451.277 68.1818ZM455.999 70.5V66.75H456.726C456.904 66.5644 457.057 66.3636 457.186 66.1477C457.315 65.9318 457.427 65.6761 457.521 65.3807C457.62 65.0814 457.703 64.7178 457.771 64.2898C457.839 63.858 457.9 63.3371 457.953 62.7273L458.249 59.2727H463.794V66.75H465.135V70.5H463.794V68H457.339V70.5H455.999ZM458.249 66.75H462.453V60.5227H459.499L459.271 62.7273C459.177 63.6402 459.059 64.4375 458.919 65.1193C458.779 65.8011 458.555 66.3447 458.249 66.75ZM472.756 63.0227V64.2727H467.938V63.0227H472.756ZM468.256 59.2727V68H466.915V59.2727H468.256ZM473.778 59.2727V68H472.438V59.2727H473.778ZM479.886 68.1818C479.045 68.1818 478.32 67.9962 477.71 67.625C477.104 67.25 476.636 66.7273 476.307 66.0568C475.981 65.3826 475.818 64.5985 475.818 63.7045C475.818 62.8106 475.981 62.0227 476.307 61.3409C476.636 60.6553 477.095 60.1212 477.682 59.7386C478.273 59.3523 478.962 59.1591 479.75 59.1591C480.205 59.1591 480.653 59.2348 481.097 59.3864C481.54 59.5379 481.943 59.7841 482.307 60.125C482.67 60.4621 482.96 60.9091 483.176 61.4659C483.392 62.0227 483.5 62.7083 483.5 63.5227V64.0909H476.773V62.9318H482.136C482.136 62.4394 482.038 62 481.841 61.6136C481.648 61.2273 481.371 60.9223 481.011 60.6989C480.655 60.4754 480.235 60.3636 479.75 60.3636C479.216 60.3636 478.754 60.4962 478.364 60.7614C477.977 61.0227 477.68 61.3636 477.472 61.7841C477.263 62.2045 477.159 62.6553 477.159 63.1364V63.9091C477.159 64.5682 477.273 65.1269 477.5 65.5852C477.731 66.0398 478.051 66.3864 478.46 66.625C478.869 66.8598 479.345 66.9773 479.886 66.9773C480.239 66.9773 480.557 66.928 480.841 66.8295C481.129 66.7273 481.377 66.5758 481.585 66.375C481.794 66.1705 481.955 65.9167 482.068 65.6136L483.364 65.9773C483.227 66.4167 482.998 66.803 482.676 67.1364C482.354 67.4659 481.956 67.7235 481.483 67.9091C481.009 68.0909 480.477 68.1818 479.886 68.1818ZM485.54 68V59.2727H489.108C490.047 59.2727 490.794 59.4848 491.347 59.9091C491.9 60.3333 492.176 60.8939 492.176 61.5909C492.176 62.1212 492.019 62.5322 491.705 62.8239C491.39 63.1117 490.987 63.3068 490.494 63.4091C490.816 63.4545 491.129 63.5682 491.432 63.75C491.739 63.9318 491.992 64.1818 492.193 64.5C492.394 64.8144 492.494 65.2008 492.494 65.6591C492.494 66.1061 492.381 66.5057 492.153 66.858C491.926 67.2102 491.6 67.4886 491.176 67.6932C490.752 67.8977 490.244 68 489.653 68H485.54ZM486.812 66.7727H489.653C490.116 66.7727 490.477 66.6629 490.739 66.4432C491 66.2235 491.131 65.9242 491.131 65.5455C491.131 65.0947 491 64.7405 490.739 64.483C490.477 64.2216 490.116 64.0909 489.653 64.0909H486.812V66.7727ZM486.812 62.9318H489.108C489.468 62.9318 489.777 62.8826 490.034 62.7841C490.292 62.6818 490.489 62.5379 490.625 62.3523C490.765 62.1629 490.835 61.9394 490.835 61.6818C490.835 61.3144 490.682 61.0265 490.375 60.8182C490.068 60.6061 489.646 60.5 489.108 60.5H486.812V62.9318ZM498.183 68.1818C497.342 68.1818 496.617 67.9962 496.007 67.625C495.401 67.25 494.933 66.7273 494.604 66.0568C494.278 65.3826 494.115 64.5985 494.115 63.7045C494.115 62.8106 494.278 62.0227 494.604 61.3409C494.933 60.6553 495.392 60.1212 495.979 59.7386C496.57 59.3523 497.259 59.1591 498.047 59.1591C498.501 59.1591 498.95 59.2348 499.393 59.3864C499.837 59.5379 500.24 59.7841 500.604 60.125C500.967 60.4621 501.257 60.9091 501.473 61.4659C501.689 62.0227 501.797 62.7083 501.797 63.5227V64.0909H495.07V62.9318H500.433C500.433 62.4394 500.335 62 500.138 61.6136C499.945 61.2273 499.668 60.9223 499.308 60.6989C498.952 60.4754 498.532 60.3636 498.047 60.3636C497.513 60.3636 497.051 60.4962 496.661 60.7614C496.274 61.0227 495.977 61.3636 495.768 61.7841C495.56 62.2045 495.456 62.6553 495.456 63.1364V63.9091C495.456 64.5682 495.57 65.1269 495.797 65.5852C496.028 66.0398 496.348 66.3864 496.757 66.625C497.166 66.8598 497.642 66.9773 498.183 66.9773C498.536 66.9773 498.854 66.928 499.138 66.8295C499.426 66.7273 499.674 66.5758 499.882 66.375C500.09 66.1705 500.251 65.9167 500.365 65.6136L501.661 65.9773C501.524 66.4167 501.295 66.803 500.973 67.1364C500.651 67.4659 500.253 67.7235 499.78 67.9091C499.306 68.0909 498.774 68.1818 498.183 68.1818ZM503.837 68V59.2727H505.178V63.0682H506.064L509.2 59.2727H510.928L507.405 63.4773L510.973 68H509.246L506.382 64.3182H505.178V68H503.837ZM515.616 68.1818C514.829 68.1818 514.137 67.9943 513.543 67.6193C512.952 67.2443 512.49 66.7197 512.156 66.0455C511.827 65.3712 511.662 64.5833 511.662 63.6818C511.662 62.7727 511.827 61.9792 512.156 61.3011C512.49 60.6231 512.952 60.0966 513.543 59.7216C514.137 59.3466 514.829 59.1591 515.616 59.1591C516.404 59.1591 517.094 59.3466 517.685 59.7216C518.279 60.0966 518.741 60.6231 519.071 61.3011C519.404 61.9792 519.571 62.7727 519.571 63.6818C519.571 64.5833 519.404 65.3712 519.071 66.0455C518.741 66.7197 518.279 67.2443 517.685 67.6193C517.094 67.9943 516.404 68.1818 515.616 68.1818ZM515.616 66.9773C516.215 66.9773 516.707 66.8239 517.094 66.517C517.48 66.2102 517.766 65.8068 517.952 65.3068C518.137 64.8068 518.23 64.2652 518.23 63.6818C518.23 63.0985 518.137 62.5549 517.952 62.0511C517.766 61.5473 517.48 61.1402 517.094 60.8295C516.707 60.5189 516.215 60.3636 515.616 60.3636C515.018 60.3636 514.526 60.5189 514.139 60.8295C513.753 61.1402 513.467 61.5473 513.281 62.0511C513.096 62.5549 513.003 63.0985 513.003 63.6818C513.003 64.2652 513.096 64.8068 513.281 65.3068C513.467 65.8068 513.753 66.2102 514.139 66.517C514.526 66.8239 515.018 66.9773 515.616 66.9773ZM521.618 68V59.2727H525.186C526.125 59.2727 526.872 59.4848 527.425 59.9091C527.978 60.3333 528.254 60.8939 528.254 61.5909C528.254 62.1212 528.097 62.5322 527.783 62.8239C527.468 63.1117 527.065 63.3068 526.572 63.4091C526.894 63.4545 527.207 63.5682 527.51 63.75C527.817 63.9318 528.071 64.1818 528.271 64.5C528.472 64.8144 528.572 65.2008 528.572 65.6591C528.572 66.1061 528.459 66.5057 528.232 66.858C528.004 67.2102 527.679 67.4886 527.254 67.6932C526.83 67.8977 526.322 68 525.732 68H521.618ZM522.891 66.7727H525.732C526.194 66.7727 526.555 66.6629 526.817 66.4432C527.078 66.2235 527.209 65.9242 527.209 65.5455C527.209 65.0947 527.078 64.7405 526.817 64.483C526.555 64.2216 526.194 64.0909 525.732 64.0909H522.891V66.7727ZM522.891 62.9318H525.186C525.546 62.9318 525.855 62.8826 526.112 62.7841C526.37 62.6818 526.567 62.5379 526.703 62.3523C526.843 62.1629 526.913 61.9394 526.913 61.6818C526.913 61.3144 526.76 61.0265 526.453 60.8182C526.146 60.6061 525.724 60.5 525.186 60.5H522.891V62.9318ZM531.761 62.4318H534.261C535.284 62.4318 536.066 62.6913 536.608 63.2102C537.15 63.7292 537.42 64.3864 537.42 65.1818C537.42 65.7045 537.299 66.1799 537.057 66.608C536.814 67.0322 536.458 67.3712 535.989 67.625C535.519 67.875 534.943 68 534.261 68H530.602V59.2727H531.943V66.75H534.261C534.792 66.75 535.227 66.6098 535.568 66.3295C535.909 66.0492 536.08 65.6894 536.08 65.25C536.08 64.7879 535.909 64.411 535.568 64.1193C535.227 63.8277 534.792 63.6818 534.261 63.6818H531.761V62.4318ZM543.121 68.1818C542.28 68.1818 541.554 67.9962 540.945 67.625C540.339 67.25 539.871 66.7273 539.541 66.0568C539.215 65.3826 539.053 64.5985 539.053 63.7045C539.053 62.8106 539.215 62.0227 539.541 61.3409C539.871 60.6553 540.329 60.1212 540.916 59.7386C541.507 59.3523 542.196 59.1591 542.984 59.1591C543.439 59.1591 543.888 59.2348 544.331 59.3864C544.774 59.5379 545.178 59.7841 545.541 60.125C545.905 60.4621 546.195 60.9091 546.411 61.4659C546.626 62.0227 546.734 62.7083 546.734 63.5227V64.0909H540.007V62.9318H545.371C545.371 62.4394 545.272 62 545.075 61.6136C544.882 61.2273 544.606 60.9223 544.246 60.6989C543.89 60.4754 543.469 60.3636 542.984 60.3636C542.45 60.3636 541.988 60.4962 541.598 60.7614C541.212 61.0227 540.914 61.3636 540.706 61.7841C540.498 62.2045 540.393 62.6553 540.393 63.1364V63.9091C540.393 64.5682 540.507 65.1269 540.734 65.5852C540.965 66.0398 541.286 66.3864 541.695 66.625C542.104 66.8598 542.579 66.9773 543.121 66.9773C543.473 66.9773 543.791 66.928 544.075 66.8295C544.363 66.7273 544.611 66.5758 544.82 66.375C545.028 66.1705 545.189 65.9167 545.303 65.6136L546.598 65.9773C546.462 66.4167 546.232 66.803 545.911 67.1364C545.589 67.4659 545.191 67.7235 544.717 67.9091C544.244 68.0909 543.712 68.1818 543.121 68.1818Z" fill="black"/>
<rect x="708" y="41" width="131" height="43" rx="10" fill="white"/>
<path d="M723.409 68V56.3636H724.818V61.5455H731.023V56.3636H732.432V68H731.023V62.7955H724.818V68H723.409ZM738.616 68.1818C737.829 68.1818 737.137 67.9943 736.543 67.6193C735.952 67.2443 735.49 66.7197 735.156 66.0455C734.827 65.3712 734.662 64.5833 734.662 63.6818C734.662 62.7727 734.827 61.9792 735.156 61.3011C735.49 60.6231 735.952 60.0966 736.543 59.7216C737.137 59.3466 737.829 59.1591 738.616 59.1591C739.404 59.1591 740.094 59.3466 740.685 59.7216C741.279 60.0966 741.741 60.6231 742.071 61.3011C742.404 61.9792 742.571 62.7727 742.571 63.6818C742.571 64.5833 742.404 65.3712 742.071 66.0455C741.741 66.7197 741.279 67.2443 740.685 67.6193C740.094 67.9943 739.404 68.1818 738.616 68.1818ZM738.616 66.9773C739.215 66.9773 739.707 66.8239 740.094 66.517C740.48 66.2102 740.766 65.8068 740.952 65.3068C741.137 64.8068 741.23 64.2652 741.23 63.6818C741.23 63.0985 741.137 62.5549 740.952 62.0511C740.766 61.5473 740.48 61.1402 740.094 60.8295C739.707 60.5189 739.215 60.3636 738.616 60.3636C738.018 60.3636 737.526 60.5189 737.139 60.8295C736.753 61.1402 736.467 61.5473 736.281 62.0511C736.096 62.5549 736.003 63.0985 736.003 63.6818C736.003 64.2652 736.096 64.8068 736.281 65.3068C736.467 65.8068 736.753 66.2102 737.139 66.517C737.526 66.8239 738.018 66.9773 738.616 66.9773ZM744.618 68V59.2727H748.186C749.125 59.2727 749.872 59.4848 750.425 59.9091C750.978 60.3333 751.254 60.8939 751.254 61.5909C751.254 62.1212 751.097 62.5322 750.783 62.8239C750.468 63.1117 750.065 63.3068 749.572 63.4091C749.894 63.4545 750.207 63.5682 750.51 63.75C750.817 63.9318 751.071 64.1818 751.271 64.5C751.472 64.8144 751.572 65.2008 751.572 65.6591C751.572 66.1061 751.459 66.5057 751.232 66.858C751.004 67.2102 750.679 67.4886 750.254 67.6932C749.83 67.8977 749.322 68 748.732 68H744.618ZM745.891 66.7727H748.732C749.194 66.7727 749.555 66.6629 749.817 66.4432C750.078 66.2235 750.209 65.9242 750.209 65.5455C750.209 65.0947 750.078 64.7405 749.817 64.483C749.555 64.2216 749.194 64.0909 748.732 64.0909H745.891V66.7727ZM745.891 62.9318H748.186C748.546 62.9318 748.855 62.8826 749.112 62.7841C749.37 62.6818 749.567 62.5379 749.703 62.3523C749.843 62.1629 749.913 61.9394 749.913 61.6818C749.913 61.3144 749.76 61.0265 749.453 60.8182C749.146 60.6061 748.724 60.5 748.186 60.5H745.891V62.9318ZM757.148 68.1818C756.36 68.1818 755.669 67.9943 755.074 67.6193C754.483 67.2443 754.021 66.7197 753.688 66.0455C753.358 65.3712 753.193 64.5833 753.193 63.6818C753.193 62.7727 753.358 61.9792 753.688 61.3011C754.021 60.6231 754.483 60.0966 755.074 59.7216C755.669 59.3466 756.36 59.1591 757.148 59.1591C757.936 59.1591 758.625 59.3466 759.216 59.7216C759.811 60.0966 760.273 60.6231 760.602 61.3011C760.936 61.9792 761.102 62.7727 761.102 63.6818C761.102 64.5833 760.936 65.3712 760.602 66.0455C760.273 66.7197 759.811 67.2443 759.216 67.6193C758.625 67.9943 757.936 68.1818 757.148 68.1818ZM757.148 66.9773C757.746 66.9773 758.239 66.8239 758.625 66.517C759.011 66.2102 759.297 65.8068 759.483 65.3068C759.669 64.8068 759.761 64.2652 759.761 63.6818C759.761 63.0985 759.669 62.5549 759.483 62.0511C759.297 61.5473 759.011 61.1402 758.625 60.8295C758.239 60.5189 757.746 60.3636 757.148 60.3636C756.549 60.3636 756.057 60.5189 755.67 60.8295C755.284 61.1402 754.998 61.5473 754.812 62.0511C754.627 62.5549 754.534 63.0985 754.534 63.6818C754.534 64.2652 754.627 64.8068 754.812 65.3068C754.998 65.8068 755.284 66.2102 755.67 66.517C756.057 66.8239 756.549 66.9773 757.148 66.9773ZM766.808 68.1818C765.967 68.1818 765.242 67.9962 764.632 67.625C764.026 67.25 763.558 66.7273 763.229 66.0568C762.903 65.3826 762.74 64.5985 762.74 63.7045C762.74 62.8106 762.903 62.0227 763.229 61.3409C763.558 60.6553 764.017 60.1212 764.604 59.7386C765.195 59.3523 765.884 59.1591 766.672 59.1591C767.126 59.1591 767.575 59.2348 768.018 59.3864C768.462 59.5379 768.865 59.7841 769.229 60.125C769.592 60.4621 769.882 60.9091 770.098 61.4659C770.314 62.0227 770.422 62.7083 770.422 63.5227V64.0909H763.695V62.9318H769.058C769.058 62.4394 768.96 62 768.763 61.6136C768.57 61.2273 768.293 60.9223 767.933 60.6989C767.577 60.4754 767.157 60.3636 766.672 60.3636C766.138 60.3636 765.676 60.4962 765.286 60.7614C764.899 61.0227 764.602 61.3636 764.393 61.7841C764.185 62.2045 764.081 62.6553 764.081 63.1364V63.9091C764.081 64.5682 764.195 65.1269 764.422 65.5852C764.653 66.0398 764.973 66.3864 765.382 66.625C765.791 66.8598 766.267 66.9773 766.808 66.9773C767.161 66.9773 767.479 66.928 767.763 66.8295C768.051 66.7273 768.299 66.5758 768.507 66.375C768.715 66.1705 768.876 65.9167 768.99 65.6136L770.286 65.9773C770.149 66.4167 769.92 66.803 769.598 67.1364C769.276 67.4659 768.878 67.7235 768.405 67.9091C767.931 68.0909 767.399 68.1818 766.808 68.1818ZM776.962 68V59.2727H780.53C781.469 59.2727 782.215 59.4848 782.768 59.9091C783.321 60.3333 783.598 60.8939 783.598 61.5909C783.598 62.1212 783.441 62.5322 783.126 62.8239C782.812 63.1117 782.409 63.3068 781.916 63.4091C782.238 63.4545 782.551 63.5682 782.854 63.75C783.161 63.9318 783.414 64.1818 783.615 64.5C783.816 64.8144 783.916 65.2008 783.916 65.6591C783.916 66.1061 783.803 66.5057 783.575 66.858C783.348 67.2102 783.022 67.4886 782.598 67.6932C782.174 67.8977 781.666 68 781.075 68H776.962ZM778.234 66.7727H781.075C781.537 66.7727 781.899 66.6629 782.161 66.4432C782.422 66.2235 782.553 65.9242 782.553 65.5455C782.553 65.0947 782.422 64.7405 782.161 64.483C781.899 64.2216 781.537 64.0909 781.075 64.0909H778.234V66.7727ZM778.234 62.9318H780.53C780.89 62.9318 781.198 62.8826 781.456 62.7841C781.714 62.6818 781.911 62.5379 782.047 62.3523C782.187 62.1629 782.257 61.9394 782.257 61.6818C782.257 61.3144 782.104 61.0265 781.797 60.8182C781.49 60.6061 781.068 60.5 780.53 60.5H778.234V62.9318ZM785.946 71.2727V59.2727H787.241V60.6591H787.401C787.499 60.5076 787.635 60.3144 787.81 60.0795C787.988 59.8409 788.241 59.6288 788.571 59.4432C788.904 59.2538 789.355 59.1591 789.923 59.1591C790.658 59.1591 791.306 59.3428 791.866 59.7102C792.427 60.0777 792.865 60.5985 793.179 61.2727C793.493 61.947 793.651 62.7424 793.651 63.6591C793.651 64.5833 793.493 65.3845 793.179 66.0625C792.865 66.7367 792.429 67.2595 791.872 67.6307C791.315 67.9981 790.673 68.1818 789.946 68.1818C789.385 68.1818 788.937 68.089 788.599 67.9034C788.262 67.714 788.003 67.5 787.821 67.2614C787.639 67.0189 787.499 66.8182 787.401 66.6591H787.287V71.2727H785.946ZM787.264 63.6364C787.264 64.2955 787.361 64.8769 787.554 65.3807C787.747 65.8807 788.029 66.2727 788.401 66.5568C788.772 66.8371 789.226 66.9773 789.764 66.9773C790.325 66.9773 790.793 66.8295 791.168 66.5341C791.546 66.2348 791.83 65.8333 792.02 65.3295C792.213 64.822 792.31 64.2576 792.31 63.6364C792.31 63.0227 792.215 62.4697 792.026 61.9773C791.84 61.4811 791.558 61.089 791.179 60.8011C790.804 60.5095 790.332 60.3636 789.764 60.3636C789.219 60.3636 788.76 60.5019 788.389 60.7784C788.018 61.0511 787.738 61.4337 787.548 61.9261C787.359 62.4148 787.264 62.9848 787.264 63.6364ZM799.355 68.1818C798.514 68.1818 797.789 67.9962 797.179 67.625C796.573 67.25 796.105 66.7273 795.776 66.0568C795.45 65.3826 795.287 64.5985 795.287 63.7045C795.287 62.8106 795.45 62.0227 795.776 61.3409C796.105 60.6553 796.563 60.1212 797.151 59.7386C797.741 59.3523 798.431 59.1591 799.219 59.1591C799.673 59.1591 800.122 59.2348 800.565 59.3864C801.009 59.5379 801.412 59.7841 801.776 60.125C802.139 60.4621 802.429 60.9091 802.645 61.4659C802.861 62.0227 802.969 62.7083 802.969 63.5227V64.0909H796.241V62.9318H801.605C801.605 62.4394 801.507 62 801.31 61.6136C801.116 61.2273 800.84 60.9223 800.48 60.6989C800.124 60.4754 799.704 60.3636 799.219 60.3636C798.685 60.3636 798.223 60.4962 797.832 60.7614C797.446 61.0227 797.149 61.3636 796.94 61.7841C796.732 62.2045 796.628 62.6553 796.628 63.1364V63.9091C796.628 64.5682 796.741 65.1269 796.969 65.5852C797.2 66.0398 797.52 66.3864 797.929 66.625C798.338 66.8598 798.813 66.9773 799.355 66.9773C799.707 66.9773 800.026 66.928 800.31 66.8295C800.598 66.7273 800.846 66.5758 801.054 66.375C801.262 66.1705 801.423 65.9167 801.537 65.6136L802.832 65.9773C802.696 66.4167 802.467 66.803 802.145 67.1364C801.823 67.4659 801.425 67.7235 800.952 67.9091C800.478 68.0909 799.946 68.1818 799.355 68.1818ZM809.781 66.1818L812.827 59.2727H814.099L810.327 68H809.236L805.531 59.2727H806.781L809.781 66.1818ZM806.349 59.2727V68H805.009V59.2727H806.349ZM813.213 68V59.2727H814.554V68H813.213ZM822.259 68V60.5H819.94C819.418 60.5 819.007 60.6212 818.707 60.8636C818.408 61.1061 818.259 61.4394 818.259 61.8636C818.259 62.2803 818.393 62.608 818.662 62.8466C818.935 63.0852 819.308 63.2045 819.781 63.2045H822.599V64.4545H819.781C819.19 64.4545 818.681 64.3504 818.253 64.142C817.825 63.9337 817.495 63.6364 817.264 63.25C817.033 62.8598 816.918 62.3977 816.918 61.8636C816.918 61.3258 817.039 60.8636 817.281 60.4773C817.524 60.0909 817.87 59.7936 818.321 59.5852C818.776 59.3769 819.315 59.2727 819.94 59.2727H823.531V68H822.259ZM816.44 68L818.918 63.6591H820.372L817.895 68H816.44Z" fill="black"/>
<rect x="986" y="41" width="163" height="43" rx="10" fill="white"/>
<path d="M1001.41 68V56.3636H1002.82V61.5455H1009.02V56.3636H1010.43V68H1009.02V62.7955H1002.82V68H1001.41ZM1016.62 68.1818C1015.83 68.1818 1015.14 67.9943 1014.54 67.6193C1013.95 67.2443 1013.49 66.7197 1013.16 66.0455C1012.83 65.3712 1012.66 64.5833 1012.66 63.6818C1012.66 62.7727 1012.83 61.9792 1013.16 61.3011C1013.49 60.6231 1013.95 60.0966 1014.54 59.7216C1015.14 59.3466 1015.83 59.1591 1016.62 59.1591C1017.4 59.1591 1018.09 59.3466 1018.68 59.7216C1019.28 60.0966 1019.74 60.6231 1020.07 61.3011C1020.4 61.9792 1020.57 62.7727 1020.57 63.6818C1020.57 64.5833 1020.4 65.3712 1020.07 66.0455C1019.74 66.7197 1019.28 67.2443 1018.68 67.6193C1018.09 67.9943 1017.4 68.1818 1016.62 68.1818ZM1016.62 66.9773C1017.21 66.9773 1017.71 66.8239 1018.09 66.517C1018.48 66.2102 1018.77 65.8068 1018.95 65.3068C1019.14 64.8068 1019.23 64.2652 1019.23 63.6818C1019.23 63.0985 1019.14 62.5549 1018.95 62.0511C1018.77 61.5473 1018.48 61.1402 1018.09 60.8295C1017.71 60.5189 1017.21 60.3636 1016.62 60.3636C1016.02 60.3636 1015.53 60.5189 1015.14 60.8295C1014.75 61.1402 1014.47 61.5473 1014.28 62.0511C1014.1 62.5549 1014 63.0985 1014 63.6818C1014 64.2652 1014.1 64.8068 1014.28 65.3068C1014.47 65.8068 1014.75 66.2102 1015.14 66.517C1015.53 66.8239 1016.02 66.9773 1016.62 66.9773ZM1022.62 68V59.2727H1026.19C1027.13 59.2727 1027.87 59.4848 1028.42 59.9091C1028.98 60.3333 1029.25 60.8939 1029.25 61.5909C1029.25 62.1212 1029.1 62.5322 1028.78 62.8239C1028.47 63.1117 1028.06 63.3068 1027.57 63.4091C1027.89 63.4545 1028.21 63.5682 1028.51 63.75C1028.82 63.9318 1029.07 64.1818 1029.27 64.5C1029.47 64.8144 1029.57 65.2008 1029.57 65.6591C1029.57 66.1061 1029.46 66.5057 1029.23 66.858C1029 67.2102 1028.68 67.4886 1028.25 67.6932C1027.83 67.8977 1027.32 68 1026.73 68H1022.62ZM1023.89 66.7727H1026.73C1027.19 66.7727 1027.56 66.6629 1027.82 66.4432C1028.08 66.2235 1028.21 65.9242 1028.21 65.5455C1028.21 65.0947 1028.08 64.7405 1027.82 64.483C1027.56 64.2216 1027.19 64.0909 1026.73 64.0909H1023.89V66.7727ZM1023.89 62.9318H1026.19C1026.55 62.9318 1026.85 62.8826 1027.11 62.7841C1027.37 62.6818 1027.57 62.5379 1027.7 62.3523C1027.84 62.1629 1027.91 61.9394 1027.91 61.6818C1027.91 61.3144 1027.76 61.0265 1027.45 60.8182C1027.15 60.6061 1026.72 60.5 1026.19 60.5H1023.89V62.9318ZM1035.26 68.1818C1034.42 68.1818 1033.7 67.9962 1033.09 67.625C1032.48 67.25 1032.01 66.7273 1031.68 66.0568C1031.36 65.3826 1031.19 64.5985 1031.19 63.7045C1031.19 62.8106 1031.36 62.0227 1031.68 61.3409C1032.01 60.6553 1032.47 60.1212 1033.06 59.7386C1033.65 59.3523 1034.34 59.1591 1035.12 59.1591C1035.58 59.1591 1036.03 59.2348 1036.47 59.3864C1036.91 59.5379 1037.32 59.7841 1037.68 60.125C1038.05 60.4621 1038.34 60.9091 1038.55 61.4659C1038.77 62.0227 1038.88 62.7083 1038.88 63.5227V64.0909H1032.15V62.9318H1037.51C1037.51 62.4394 1037.41 62 1037.22 61.6136C1037.02 61.2273 1036.75 60.9223 1036.39 60.6989C1036.03 60.4754 1035.61 60.3636 1035.12 60.3636C1034.59 60.3636 1034.13 60.4962 1033.74 60.7614C1033.35 61.0227 1033.05 61.3636 1032.85 61.7841C1032.64 62.2045 1032.53 62.6553 1032.53 63.1364V63.9091C1032.53 64.5682 1032.65 65.1269 1032.88 65.5852C1033.11 66.0398 1033.43 66.3864 1033.84 66.625C1034.24 66.8598 1034.72 66.9773 1035.26 66.9773C1035.61 66.9773 1035.93 66.928 1036.22 66.8295C1036.5 66.7273 1036.75 66.5758 1036.96 66.375C1037.17 66.1705 1037.33 65.9167 1037.44 65.6136L1038.74 65.9773C1038.6 66.4167 1038.37 66.803 1038.05 67.1364C1037.73 67.4659 1037.33 67.7235 1036.86 67.9091C1036.38 68.0909 1035.85 68.1818 1035.26 68.1818ZM1042.26 66.0227L1046.46 59.2727H1048.01V68H1046.66V61.25L1042.48 68H1040.91V59.2727H1042.26V66.0227ZM1045.57 56.3636H1046.82C1046.82 56.9773 1046.61 57.4792 1046.19 57.8693C1045.76 58.2595 1045.19 58.4545 1044.46 58.4545C1043.74 58.4545 1043.17 58.2595 1042.75 57.8693C1042.33 57.4792 1042.12 56.9773 1042.12 56.3636H1043.37C1043.37 56.6591 1043.45 56.9186 1043.61 57.142C1043.78 57.3655 1044.06 57.4773 1044.46 57.4773C1044.86 57.4773 1045.14 57.3655 1045.31 57.142C1045.49 56.9186 1045.57 56.6591 1045.57 56.3636ZM1050.46 59.2727H1051.8V66.75H1055.1V59.2727H1056.44V66.75H1059.73V59.2727H1061.08V68H1050.46V59.2727ZM1067.18 68.1818C1066.34 68.1818 1065.62 67.9962 1065.01 67.625C1064.4 67.25 1063.93 66.7273 1063.6 66.0568C1063.28 65.3826 1063.12 64.5985 1063.12 63.7045C1063.12 62.8106 1063.28 62.0227 1063.6 61.3409C1063.93 60.6553 1064.39 60.1212 1064.98 59.7386C1065.57 59.3523 1066.26 59.1591 1067.05 59.1591C1067.5 59.1591 1067.95 59.2348 1068.39 59.3864C1068.84 59.5379 1069.24 59.7841 1069.6 60.125C1069.97 60.4621 1070.26 60.9091 1070.47 61.4659C1070.69 62.0227 1070.8 62.7083 1070.8 63.5227V64.0909H1064.07V62.9318H1069.43C1069.43 62.4394 1069.33 62 1069.14 61.6136C1068.94 61.2273 1068.67 60.9223 1068.31 60.6989C1067.95 60.4754 1067.53 60.3636 1067.05 60.3636C1066.51 60.3636 1066.05 60.4962 1065.66 60.7614C1065.27 61.0227 1064.98 61.3636 1064.77 61.7841C1064.56 62.2045 1064.46 62.6553 1064.46 63.1364V63.9091C1064.46 64.5682 1064.57 65.1269 1064.8 65.5852C1065.03 66.0398 1065.35 66.3864 1065.76 66.625C1066.17 66.8598 1066.64 66.9773 1067.18 66.9773C1067.54 66.9773 1067.85 66.928 1068.14 66.8295C1068.43 66.7273 1068.67 66.5758 1068.88 66.375C1069.09 66.1705 1069.25 65.9167 1069.37 65.6136L1070.66 65.9773C1070.52 66.4167 1070.29 66.803 1069.97 67.1364C1069.65 67.4659 1069.25 67.7235 1068.78 67.9091C1068.31 68.0909 1067.77 68.1818 1067.18 68.1818ZM1076.5 68.1818C1075.65 68.1818 1074.93 67.9962 1074.32 67.625C1073.71 67.25 1073.25 66.7273 1072.92 66.0568C1072.59 65.3826 1072.43 64.5985 1072.43 63.7045C1072.43 62.8106 1072.59 62.0227 1072.92 61.3409C1073.25 60.6553 1073.7 60.1212 1074.29 59.7386C1074.88 59.3523 1075.57 59.1591 1076.36 59.1591C1076.81 59.1591 1077.26 59.2348 1077.71 59.3864C1078.15 59.5379 1078.55 59.7841 1078.92 60.125C1079.28 60.4621 1079.57 60.9091 1079.79 61.4659C1080 62.0227 1080.11 62.7083 1080.11 63.5227V64.0909H1073.38V62.9318H1078.75C1078.75 62.4394 1078.65 62 1078.45 61.6136C1078.26 61.2273 1077.98 60.9223 1077.62 60.6989C1077.26 60.4754 1076.84 60.3636 1076.36 60.3636C1075.83 60.3636 1075.36 60.4962 1074.97 60.7614C1074.59 61.0227 1074.29 61.3636 1074.08 61.7841C1073.87 62.2045 1073.77 62.6553 1073.77 63.1364V63.9091C1073.77 64.5682 1073.88 65.1269 1074.11 65.5852C1074.34 66.0398 1074.66 66.3864 1075.07 66.625C1075.48 66.8598 1075.95 66.9773 1076.5 66.9773C1076.85 66.9773 1077.17 66.928 1077.45 66.8295C1077.74 66.7273 1077.99 66.5758 1078.19 66.375C1078.4 66.1705 1078.56 65.9167 1078.68 65.6136L1079.97 65.9773C1079.84 66.4167 1079.61 66.803 1079.29 67.1364C1078.96 67.4659 1078.57 67.7235 1078.09 67.9091C1077.62 68.0909 1077.09 68.1818 1076.5 68.1818ZM1086.65 68V59.2727H1090.22C1091.16 59.2727 1091.9 59.4848 1092.46 59.9091C1093.01 60.3333 1093.29 60.8939 1093.29 61.5909C1093.29 62.1212 1093.13 62.5322 1092.81 62.8239C1092.5 63.1117 1092.1 63.3068 1091.6 63.4091C1091.93 63.4545 1092.24 63.5682 1092.54 63.75C1092.85 63.9318 1093.1 64.1818 1093.3 64.5C1093.5 64.8144 1093.6 65.2008 1093.6 65.6591C1093.6 66.1061 1093.49 66.5057 1093.26 66.858C1093.04 67.2102 1092.71 67.4886 1092.29 67.6932C1091.86 67.8977 1091.35 68 1090.76 68H1086.65ZM1087.92 66.7727H1090.76C1091.22 66.7727 1091.59 66.6629 1091.85 66.4432C1092.11 66.2235 1092.24 65.9242 1092.24 65.5455C1092.24 65.0947 1092.11 64.7405 1091.85 64.483C1091.59 64.2216 1091.22 64.0909 1090.76 64.0909H1087.92V66.7727ZM1087.92 62.9318H1090.22C1090.58 62.9318 1090.89 62.8826 1091.14 62.7841C1091.4 62.6818 1091.6 62.5379 1091.73 62.3523C1091.87 62.1629 1091.94 61.9394 1091.94 61.6818C1091.94 61.3144 1091.79 61.0265 1091.48 60.8182C1091.18 60.6061 1090.76 60.5 1090.22 60.5H1087.92V62.9318ZM1095.63 71.2727V59.2727H1096.93V60.6591H1097.09C1097.19 60.5076 1097.32 60.3144 1097.5 60.0795C1097.68 59.8409 1097.93 59.6288 1098.26 59.4432C1098.59 59.2538 1099.04 59.1591 1099.61 59.1591C1100.35 59.1591 1100.99 59.3428 1101.55 59.7102C1102.11 60.0777 1102.55 60.5985 1102.87 61.2727C1103.18 61.947 1103.34 62.7424 1103.34 63.6591C1103.34 64.5833 1103.18 65.3845 1102.87 66.0625C1102.55 66.7367 1102.12 67.2595 1101.56 67.6307C1101 67.9981 1100.36 68.1818 1099.63 68.1818C1099.07 68.1818 1098.62 68.089 1098.29 67.9034C1097.95 67.714 1097.69 67.5 1097.51 67.2614C1097.33 67.0189 1097.19 66.8182 1097.09 66.6591H1096.97V71.2727H1095.63ZM1096.95 63.6364C1096.95 64.2955 1097.05 64.8769 1097.24 65.3807C1097.43 65.8807 1097.72 66.2727 1098.09 66.5568C1098.46 66.8371 1098.91 66.9773 1099.45 66.9773C1100.01 66.9773 1100.48 66.8295 1100.86 66.5341C1101.23 66.2348 1101.52 65.8333 1101.71 65.3295C1101.9 64.822 1102 64.2576 1102 63.6364C1102 63.0227 1101.9 62.4697 1101.71 61.9773C1101.53 61.4811 1101.25 61.089 1100.87 60.8011C1100.49 60.5095 1100.02 60.3636 1099.45 60.3636C1098.91 60.3636 1098.45 60.5019 1098.08 60.7784C1097.71 61.0511 1097.43 61.4337 1097.24 61.9261C1097.05 62.4148 1096.95 62.9848 1096.95 63.6364ZM1109.04 68.1818C1108.2 68.1818 1107.48 67.9962 1106.87 67.625C1106.26 67.25 1105.79 66.7273 1105.46 66.0568C1105.14 65.3826 1104.97 64.5985 1104.97 63.7045C1104.97 62.8106 1105.14 62.0227 1105.46 61.3409C1105.79 60.6553 1106.25 60.1212 1106.84 59.7386C1107.43 59.3523 1108.12 59.1591 1108.91 59.1591C1109.36 59.1591 1109.81 59.2348 1110.25 59.3864C1110.7 59.5379 1111.1 59.7841 1111.46 60.125C1111.83 60.4621 1112.12 60.9091 1112.33 61.4659C1112.55 62.0227 1112.66 62.7083 1112.66 63.5227V64.0909H1105.93V62.9318H1111.29C1111.29 62.4394 1111.19 62 1111 61.6136C1110.8 61.2273 1110.53 60.9223 1110.17 60.6989C1109.81 60.4754 1109.39 60.3636 1108.91 60.3636C1108.37 60.3636 1107.91 60.4962 1107.52 60.7614C1107.13 61.0227 1106.84 61.3636 1106.63 61.7841C1106.42 62.2045 1106.32 62.6553 1106.32 63.1364V63.9091C1106.32 64.5682 1106.43 65.1269 1106.66 65.5852C1106.89 66.0398 1107.21 66.3864 1107.62 66.625C1108.03 66.8598 1108.5 66.9773 1109.04 66.9773C1109.39 66.9773 1109.71 66.928 1110 66.8295C1110.29 66.7273 1110.53 66.5758 1110.74 66.375C1110.95 66.1705 1111.11 65.9167 1111.22 65.6136L1112.52 65.9773C1112.38 66.4167 1112.15 66.803 1111.83 67.1364C1111.51 67.4659 1111.11 67.7235 1110.64 67.9091C1110.17 68.0909 1109.63 68.1818 1109.04 68.1818ZM1119.47 66.1818L1122.51 59.2727H1123.79L1120.01 68H1118.92L1115.22 59.2727H1116.47L1119.47 66.1818ZM1116.04 59.2727V68H1114.7V59.2727H1116.04ZM1122.9 68V59.2727H1124.24V68H1122.9ZM1131.95 68V60.5H1129.63C1129.11 60.5 1128.69 60.6212 1128.39 60.8636C1128.1 61.1061 1127.95 61.4394 1127.95 61.8636C1127.95 62.2803 1128.08 62.608 1128.35 62.8466C1128.62 63.0852 1129 63.2045 1129.47 63.2045H1132.29V64.4545H1129.47C1128.88 64.4545 1128.37 64.3504 1127.94 64.142C1127.51 63.9337 1127.18 63.6364 1126.95 63.25C1126.72 62.8598 1126.61 62.3977 1126.61 61.8636C1126.61 61.3258 1126.73 60.8636 1126.97 60.4773C1127.21 60.0909 1127.56 59.7936 1128.01 59.5852C1128.46 59.3769 1129 59.2727 1129.63 59.2727H1133.22V68H1131.95ZM1126.13 68L1128.61 63.6591H1130.06L1127.58 68H1126.13Z" fill="black"/>
<path d="M19.2045 172V170.977L23.0455 166.773C23.4962 166.28 23.8674 165.852 24.1591 165.489C24.4508 165.121 24.6667 164.777 24.8068 164.455C24.9508 164.129 25.0227 163.788 25.0227 163.432C25.0227 163.023 24.9242 162.669 24.7273 162.369C24.5341 162.07 24.2689 161.839 23.9318 161.676C23.5947 161.513 23.2159 161.432 22.7955 161.432C22.3485 161.432 21.9583 161.525 21.625 161.71C21.2955 161.892 21.0398 162.148 20.858 162.477C20.6799 162.807 20.5909 163.193 20.5909 163.636H19.25C19.25 162.955 19.4072 162.356 19.7216 161.841C20.036 161.326 20.464 160.924 21.0057 160.636C21.5511 160.348 22.1629 160.205 22.8409 160.205C23.5227 160.205 24.1269 160.348 24.6534 160.636C25.1799 160.924 25.5928 161.312 25.892 161.801C26.1913 162.29 26.3409 162.833 26.3409 163.432C26.3409 163.86 26.2633 164.278 26.108 164.688C25.9564 165.093 25.6913 165.545 25.3125 166.045C24.9375 166.542 24.4167 167.148 23.75 167.864L21.1364 170.659V170.75H26.5455V172H19.2045ZM29.892 172.091C29.6117 172.091 29.3712 171.991 29.1705 171.79C28.9697 171.589 28.8693 171.348 28.8693 171.068C28.8693 170.788 28.9697 170.547 29.1705 170.347C29.3712 170.146 29.6117 170.045 29.892 170.045C30.1723 170.045 30.4129 170.146 30.6136 170.347C30.8144 170.547 30.9148 170.788 30.9148 171.068C30.9148 171.254 30.8674 171.424 30.7727 171.58C30.6818 171.735 30.5587 171.86 30.4034 171.955C30.2519 172.045 30.0814 172.091 29.892 172.091ZM36.7557 172.159C36.2784 172.152 35.8011 172.061 35.3239 171.886C34.8466 171.712 34.411 171.419 34.017 171.006C33.6231 170.589 33.3068 170.027 33.0682 169.318C32.8295 168.606 32.7102 167.712 32.7102 166.636C32.7102 165.606 32.8068 164.693 33 163.898C33.1932 163.098 33.4735 162.426 33.8409 161.881C34.2083 161.331 34.6515 160.915 35.1705 160.631C35.6932 160.347 36.2822 160.205 36.9375 160.205C37.589 160.205 38.1686 160.335 38.6761 160.597C39.1875 160.854 39.6042 161.214 39.9261 161.676C40.2481 162.138 40.4564 162.67 40.5511 163.273H39.1648C39.036 162.75 38.786 162.316 38.4148 161.972C38.0436 161.627 37.5511 161.455 36.9375 161.455C36.036 161.455 35.3258 161.847 34.8068 162.631C34.2917 163.415 34.0322 164.515 34.0284 165.932H34.1193C34.3314 165.61 34.5833 165.335 34.875 165.108C35.1705 164.877 35.4962 164.699 35.8523 164.574C36.2083 164.449 36.5852 164.386 36.983 164.386C37.6496 164.386 38.2595 164.553 38.8125 164.886C39.3655 165.216 39.8087 165.672 40.142 166.256C40.4754 166.835 40.642 167.5 40.642 168.25C40.642 168.97 40.4811 169.629 40.1591 170.227C39.8371 170.822 39.3845 171.295 38.8011 171.648C38.2216 171.996 37.5398 172.167 36.7557 172.159ZM36.7557 170.909C37.233 170.909 37.661 170.79 38.0398 170.551C38.4223 170.312 38.7235 169.992 38.9432 169.591C39.1667 169.189 39.2784 168.742 39.2784 168.25C39.2784 167.769 39.1705 167.331 38.9545 166.938C38.7424 166.54 38.4489 166.223 38.0739 165.989C37.7027 165.754 37.2784 165.636 36.8011 165.636C36.4413 165.636 36.1061 165.708 35.7955 165.852C35.4848 165.992 35.2121 166.186 34.9773 166.432C34.7462 166.678 34.5644 166.96 34.4318 167.278C34.2992 167.593 34.233 167.924 34.233 168.273C34.233 168.735 34.3409 169.167 34.5568 169.568C34.7765 169.97 35.0758 170.294 35.4545 170.54C35.8371 170.786 36.2708 170.909 36.7557 170.909ZM52.1719 170.182L55.2173 163.273H56.4901L52.7173 172H51.6264L47.9219 163.273H49.1719L52.1719 170.182ZM48.7401 163.273V172H47.3991V163.273H48.7401ZM55.6037 172V163.273H56.9446V172H55.6037ZM58.6264 172V170.75H58.9446C59.206 170.75 59.4238 170.699 59.598 170.597C59.7723 170.491 59.9124 170.307 60.0185 170.045C60.1283 169.78 60.2116 169.413 60.2685 168.943C60.3291 168.47 60.3726 167.867 60.3991 167.136L60.5582 163.273H66.3764V172H65.0355V164.523H61.831L61.6946 167.636C61.6643 168.352 61.5999 168.983 61.5014 169.528C61.4067 170.07 61.2609 170.525 61.0639 170.892C60.8707 171.259 60.6132 171.536 60.2912 171.722C59.9692 171.907 59.5658 172 59.081 172H58.6264ZM74.6776 167.023V168.273H69.8594V167.023H74.6776ZM70.1776 163.273V172H68.8366V163.273H70.1776ZM75.7003 163.273V172H74.3594V163.273H75.7003ZM18.4545 191V189.75H18.7727C19.0341 189.75 19.2519 189.699 19.4261 189.597C19.6004 189.491 19.7405 189.307 19.8466 189.045C19.9564 188.78 20.0398 188.413 20.0966 187.943C20.1572 187.47 20.2008 186.867 20.2273 186.136L20.3864 182.273H26.2045V191H24.8636V183.523H21.6591L21.5227 186.636C21.4924 187.352 21.428 187.983 21.3295 188.528C21.2348 189.07 21.089 189.525 20.892 189.892C20.6989 190.259 20.4413 190.536 20.1193 190.722C19.7973 190.907 19.3939 191 18.9091 191H18.4545ZM32.3239 191.182C31.483 191.182 30.7576 190.996 30.1477 190.625C29.5417 190.25 29.0739 189.727 28.7443 189.057C28.4186 188.383 28.2557 187.598 28.2557 186.705C28.2557 185.811 28.4186 185.023 28.7443 184.341C29.0739 183.655 29.5322 183.121 30.1193 182.739C30.7102 182.352 31.3996 182.159 32.1875 182.159C32.642 182.159 33.0909 182.235 33.5341 182.386C33.9773 182.538 34.3807 182.784 34.7443 183.125C35.108 183.462 35.3977 183.909 35.6136 184.466C35.8295 185.023 35.9375 185.708 35.9375 186.523V187.091H29.2102V185.932H34.5739C34.5739 185.439 34.4754 185 34.2784 184.614C34.0852 184.227 33.8087 183.922 33.4489 183.699C33.0928 183.475 32.6723 183.364 32.1875 183.364C31.6534 183.364 31.1913 183.496 30.8011 183.761C30.4148 184.023 30.1174 184.364 29.9091 184.784C29.7008 185.205 29.5966 185.655 29.5966 186.136V186.909C29.5966 187.568 29.7102 188.127 29.9375 188.585C30.1686 189.04 30.4886 189.386 30.8977 189.625C31.3068 189.86 31.7822 189.977 32.3239 189.977C32.6761 189.977 32.9943 189.928 33.2784 189.83C33.5663 189.727 33.8144 189.576 34.0227 189.375C34.2311 189.17 34.392 188.917 34.5057 188.614L35.8011 188.977C35.6648 189.417 35.4356 189.803 35.1136 190.136C34.7917 190.466 34.3939 190.723 33.9205 190.909C33.447 191.091 32.9148 191.182 32.3239 191.182ZM37.1648 183.523V182.273H44.2557V183.523H41.392V191H40.0511V183.523H37.1648ZM49.7798 193.5V189.75H50.5071C50.6851 189.564 50.8385 189.364 50.9673 189.148C51.0961 188.932 51.2079 188.676 51.3026 188.381C51.401 188.081 51.4844 187.718 51.5526 187.29C51.6207 186.858 51.6813 186.337 51.7344 185.727L52.0298 182.273H57.5753V189.75H58.9162V193.5H57.5753V191H51.1207V193.5H49.7798ZM52.0298 189.75H56.2344V183.523H53.2798L53.0526 185.727C52.9579 186.64 52.8404 187.437 52.7003 188.119C52.5601 188.801 52.3366 189.345 52.0298 189.75ZM64.2415 191.182C63.4536 191.182 62.7623 190.994 62.1676 190.619C61.5767 190.244 61.1146 189.72 60.7812 189.045C60.4517 188.371 60.2869 187.583 60.2869 186.682C60.2869 185.773 60.4517 184.979 60.7812 184.301C61.1146 183.623 61.5767 183.097 62.1676 182.722C62.7623 182.347 63.4536 182.159 64.2415 182.159C65.0294 182.159 65.7188 182.347 66.3097 182.722C66.9044 183.097 67.3665 183.623 67.696 184.301C68.0294 184.979 68.196 185.773 68.196 186.682C68.196 187.583 68.0294 188.371 67.696 189.045C67.3665 189.72 66.9044 190.244 66.3097 190.619C65.7188 190.994 65.0294 191.182 64.2415 191.182ZM64.2415 189.977C64.84 189.977 65.3324 189.824 65.7188 189.517C66.1051 189.21 66.3911 188.807 66.5767 188.307C66.7623 187.807 66.8551 187.265 66.8551 186.682C66.8551 186.098 66.7623 185.555 66.5767 185.051C66.3911 184.547 66.1051 184.14 65.7188 183.83C65.3324 183.519 64.84 183.364 64.2415 183.364C63.643 183.364 63.1506 183.519 62.7642 183.83C62.3778 184.14 62.0919 184.547 61.9062 185.051C61.7206 185.555 61.6278 186.098 61.6278 186.682C61.6278 187.265 61.7206 187.807 61.9062 188.307C62.0919 188.807 62.3778 189.21 62.7642 189.517C63.1506 189.824 63.643 189.977 64.2415 189.977ZM80.5838 186.023V187.273H75.7656V186.023H80.5838ZM76.0838 182.273V191H74.7429V182.273H76.0838ZM81.6065 182.273V191H80.2656V182.273H81.6065ZM85.0327 191.091C84.7524 191.091 84.5118 190.991 84.3111 190.79C84.1103 190.589 84.0099 190.348 84.0099 190.068C84.0099 189.788 84.1103 189.547 84.3111 189.347C84.5118 189.146 84.7524 189.045 85.0327 189.045C85.313 189.045 85.5535 189.146 85.7543 189.347C85.955 189.547 86.0554 189.788 86.0554 190.068C86.0554 190.254 86.008 190.424 85.9134 190.58C85.8224 190.735 85.6993 190.86 85.544 190.955C85.3925 191.045 85.2221 191.091 85.0327 191.091ZM91.348 183.409C91.045 183.413 90.7401 183.491 90.4332 183.642C90.1302 183.794 89.8764 183.994 89.6719 184.244C89.4711 184.491 89.3707 184.765 89.3707 185.068H88.0526C88.0526 184.689 88.1435 184.326 88.3253 183.977C88.5071 183.629 88.7514 183.318 89.0582 183.045C89.3688 182.773 89.7211 182.557 90.1151 182.398C90.5128 182.239 90.9238 182.159 91.348 182.159C92.1435 182.159 92.8177 182.36 93.3707 182.761C93.9276 183.163 94.3499 183.693 94.6378 184.352C94.9295 185.011 95.0753 185.727 95.0753 186.5V186.818C95.0753 187.587 94.9295 188.303 94.6378 188.966C94.3499 189.625 93.9276 190.155 93.3707 190.557C92.8177 190.958 92.1435 191.159 91.348 191.159C90.7116 191.159 90.1454 191.019 89.6491 190.739C89.1529 190.455 88.7628 190.076 88.4787 189.602C88.1946 189.129 88.0526 188.602 88.0526 188.023H89.3707C89.3707 188.352 89.4635 188.661 89.6491 188.949C89.8385 189.233 90.0829 189.464 90.3821 189.642C90.6851 189.816 91.0071 189.905 91.348 189.909C91.8556 189.905 92.2874 189.746 92.6435 189.432C92.9995 189.117 93.2704 188.723 93.456 188.25C93.6416 187.777 93.7344 187.299 93.7344 186.818V186.5C93.7344 186.008 93.6416 185.527 93.456 185.057C93.2741 184.583 93.0052 184.191 92.6491 183.881C92.2969 183.57 91.8632 183.413 91.348 183.409ZM94.2798 185.977V187.227H90.4616V185.977H94.2798Z" fill="black"/>
<path d="M290.841 172.159C290.174 172.159 289.574 172.027 289.04 171.761C288.506 171.496 288.078 171.133 287.756 170.67C287.434 170.208 287.258 169.682 287.227 169.091H288.591C288.644 169.617 288.883 170.053 289.307 170.398C289.735 170.739 290.246 170.909 290.841 170.909C291.318 170.909 291.742 170.797 292.114 170.574C292.489 170.35 292.782 170.044 292.994 169.653C293.21 169.259 293.318 168.814 293.318 168.318C293.318 167.811 293.206 167.358 292.983 166.96C292.763 166.559 292.46 166.242 292.074 166.011C291.688 165.78 291.246 165.663 290.75 165.659C290.394 165.655 290.028 165.71 289.653 165.824C289.278 165.934 288.97 166.076 288.727 166.25L287.409 166.091L288.114 160.364H294.159V161.614H289.295L288.886 165.045H288.955C289.193 164.856 289.492 164.699 289.852 164.574C290.212 164.449 290.587 164.386 290.977 164.386C291.689 164.386 292.324 164.557 292.881 164.898C293.441 165.235 293.881 165.697 294.199 166.284C294.521 166.871 294.682 167.542 294.682 168.295C294.682 169.038 294.515 169.701 294.182 170.284C293.852 170.864 293.398 171.322 292.818 171.659C292.239 171.992 291.58 172.159 290.841 172.159ZM301.462 172V163.273H305.03C305.969 163.273 306.715 163.485 307.268 163.909C307.821 164.333 308.098 164.894 308.098 165.591C308.098 166.121 307.941 166.532 307.626 166.824C307.312 167.112 306.909 167.307 306.416 167.409C306.738 167.455 307.051 167.568 307.354 167.75C307.661 167.932 307.914 168.182 308.115 168.5C308.316 168.814 308.416 169.201 308.416 169.659C308.416 170.106 308.303 170.506 308.075 170.858C307.848 171.21 307.522 171.489 307.098 171.693C306.674 171.898 306.166 172 305.575 172H301.462ZM302.734 170.773H305.575C306.037 170.773 306.399 170.663 306.661 170.443C306.922 170.223 307.053 169.924 307.053 169.545C307.053 169.095 306.922 168.741 306.661 168.483C306.399 168.222 306.037 168.091 305.575 168.091H302.734V170.773ZM302.734 166.932H305.03C305.39 166.932 305.698 166.883 305.956 166.784C306.214 166.682 306.411 166.538 306.547 166.352C306.687 166.163 306.757 165.939 306.757 165.682C306.757 165.314 306.604 165.027 306.297 164.818C305.99 164.606 305.568 164.5 305.03 164.5H302.734V166.932ZM314.105 172.182C313.264 172.182 312.539 171.996 311.929 171.625C311.323 171.25 310.855 170.727 310.526 170.057C310.2 169.383 310.037 168.598 310.037 167.705C310.037 166.811 310.2 166.023 310.526 165.341C310.855 164.655 311.313 164.121 311.901 163.739C312.491 163.352 313.181 163.159 313.969 163.159C314.423 163.159 314.872 163.235 315.315 163.386C315.759 163.538 316.162 163.784 316.526 164.125C316.889 164.462 317.179 164.909 317.395 165.466C317.611 166.023 317.719 166.708 317.719 167.523V168.091H310.991V166.932H316.355C316.355 166.439 316.257 166 316.06 165.614C315.866 165.227 315.59 164.922 315.23 164.699C314.874 164.475 314.454 164.364 313.969 164.364C313.435 164.364 312.973 164.496 312.582 164.761C312.196 165.023 311.899 165.364 311.69 165.784C311.482 166.205 311.378 166.655 311.378 167.136V167.909C311.378 168.568 311.491 169.127 311.719 169.585C311.95 170.04 312.27 170.386 312.679 170.625C313.088 170.86 313.563 170.977 314.105 170.977C314.457 170.977 314.776 170.928 315.06 170.83C315.348 170.727 315.596 170.576 315.804 170.375C316.012 170.17 316.173 169.917 316.287 169.614L317.582 169.977C317.446 170.417 317.217 170.803 316.895 171.136C316.573 171.466 316.175 171.723 315.702 171.909C315.228 172.091 314.696 172.182 314.105 172.182ZM319.759 172V163.273H321.099V167.068H321.986L325.122 163.273H326.849L323.327 167.477L326.895 172H325.168L322.304 168.318H321.099V172H319.759ZM338.693 167.023V168.273H333.875V167.023H338.693ZM334.193 163.273V172H332.852V163.273H334.193ZM339.716 163.273V172H338.375V163.273H339.716ZM343.142 172.091C342.862 172.091 342.621 171.991 342.42 171.79C342.22 171.589 342.119 171.348 342.119 171.068C342.119 170.788 342.22 170.547 342.42 170.347C342.621 170.146 342.862 170.045 343.142 170.045C343.422 170.045 343.663 170.146 343.864 170.347C344.064 170.547 344.165 170.788 344.165 171.068C344.165 171.254 344.117 171.424 344.023 171.58C343.932 171.735 343.809 171.86 343.653 171.955C343.502 172.045 343.331 172.091 343.142 172.091ZM349.457 164.409C349.154 164.413 348.849 164.491 348.543 164.642C348.24 164.794 347.986 164.994 347.781 165.244C347.58 165.491 347.48 165.765 347.48 166.068H346.162C346.162 165.689 346.253 165.326 346.435 164.977C346.616 164.629 346.861 164.318 347.168 164.045C347.478 163.773 347.83 163.557 348.224 163.398C348.622 163.239 349.033 163.159 349.457 163.159C350.253 163.159 350.927 163.36 351.48 163.761C352.037 164.163 352.459 164.693 352.747 165.352C353.039 166.011 353.185 166.727 353.185 167.5V167.818C353.185 168.587 353.039 169.303 352.747 169.966C352.459 170.625 352.037 171.155 351.48 171.557C350.927 171.958 350.253 172.159 349.457 172.159C348.821 172.159 348.255 172.019 347.759 171.739C347.262 171.455 346.872 171.076 346.588 170.602C346.304 170.129 346.162 169.602 346.162 169.023H347.48C347.48 169.352 347.573 169.661 347.759 169.949C347.948 170.233 348.192 170.464 348.491 170.642C348.795 170.816 349.116 170.905 349.457 170.909C349.965 170.905 350.397 170.746 350.753 170.432C351.109 170.117 351.38 169.723 351.565 169.25C351.751 168.777 351.844 168.299 351.844 167.818V167.5C351.844 167.008 351.751 166.527 351.565 166.057C351.384 165.583 351.115 165.191 350.759 164.881C350.406 164.57 349.973 164.413 349.457 164.409ZM352.389 166.977V168.227H348.571V166.977H352.389Z" fill="black"/>
<path d="M582.295 160.364V172H580.886V161.841H580.818L577.977 163.727V162.295L580.886 160.364H582.295ZM586.006 172L591.21 161.705V161.614H585.21V160.364H592.665V161.682L587.483 172H586.006ZM598.449 172.159C597.699 172.159 597.03 172.03 596.443 171.773C595.86 171.515 595.396 171.157 595.051 170.699C594.71 170.237 594.525 169.701 594.494 169.091H595.926C595.956 169.466 596.085 169.79 596.312 170.062C596.54 170.331 596.837 170.54 597.205 170.688C597.572 170.835 597.979 170.909 598.426 170.909C598.926 170.909 599.369 170.822 599.756 170.648C600.142 170.473 600.445 170.231 600.665 169.92C600.884 169.61 600.994 169.25 600.994 168.841C600.994 168.413 600.888 168.036 600.676 167.71C600.464 167.381 600.153 167.123 599.744 166.938C599.335 166.752 598.835 166.659 598.244 166.659H597.312V165.409H598.244C598.706 165.409 599.112 165.326 599.46 165.159C599.813 164.992 600.087 164.758 600.284 164.455C600.485 164.152 600.585 163.795 600.585 163.386C600.585 162.992 600.498 162.65 600.324 162.358C600.15 162.066 599.903 161.839 599.585 161.676C599.271 161.513 598.9 161.432 598.472 161.432C598.07 161.432 597.691 161.506 597.335 161.653C596.983 161.797 596.695 162.008 596.472 162.284C596.248 162.557 596.127 162.886 596.108 163.273H594.744C594.767 162.663 594.951 162.129 595.295 161.67C595.64 161.208 596.091 160.848 596.648 160.591C597.208 160.333 597.824 160.205 598.494 160.205C599.214 160.205 599.831 160.35 600.347 160.642C600.862 160.93 601.258 161.311 601.534 161.784C601.811 162.258 601.949 162.769 601.949 163.318C601.949 163.973 601.777 164.532 601.432 164.994C601.091 165.456 600.627 165.777 600.04 165.955V166.045C600.775 166.167 601.348 166.479 601.761 166.983C602.174 167.483 602.381 168.102 602.381 168.841C602.381 169.473 602.208 170.042 601.864 170.545C601.523 171.045 601.057 171.439 600.466 171.727C599.875 172.015 599.203 172.159 598.449 172.159ZM608.5 172.159C607.644 172.159 606.915 171.926 606.312 171.46C605.71 170.991 605.25 170.311 604.932 169.42C604.614 168.527 604.455 167.447 604.455 166.182C604.455 164.924 604.614 163.85 604.932 162.96C605.254 162.066 605.716 161.384 606.318 160.915C606.924 160.441 607.652 160.205 608.5 160.205C609.348 160.205 610.074 160.441 610.676 160.915C611.282 161.384 611.744 162.066 612.062 162.96C612.384 163.85 612.545 164.924 612.545 166.182C612.545 167.447 612.386 168.527 612.068 169.42C611.75 170.311 611.29 170.991 610.688 171.46C610.085 171.926 609.356 172.159 608.5 172.159ZM608.5 170.909C609.348 170.909 610.008 170.5 610.477 169.682C610.947 168.864 611.182 167.697 611.182 166.182C611.182 165.174 611.074 164.316 610.858 163.608C610.646 162.9 610.339 162.36 609.938 161.989C609.54 161.617 609.061 161.432 608.5 161.432C607.659 161.432 607.002 161.847 606.528 162.676C606.055 163.502 605.818 164.67 605.818 166.182C605.818 167.189 605.924 168.045 606.136 168.75C606.348 169.455 606.653 169.991 607.051 170.358C607.453 170.725 607.936 170.909 608.5 170.909ZM619.727 166.386V167.636H614.636V166.386H619.727ZM625.746 172.182C624.905 172.182 624.179 171.996 623.57 171.625C622.964 171.25 622.496 170.727 622.166 170.057C621.84 169.383 621.678 168.598 621.678 167.705C621.678 166.811 621.84 166.023 622.166 165.341C622.496 164.655 622.954 164.121 623.541 163.739C624.132 163.352 624.821 163.159 625.609 163.159C626.064 163.159 626.513 163.235 626.956 163.386C627.399 163.538 627.803 163.784 628.166 164.125C628.53 164.462 628.82 164.909 629.036 165.466C629.251 166.023 629.359 166.708 629.359 167.523V168.091H622.632V166.932H627.996C627.996 166.439 627.897 166 627.7 165.614C627.507 165.227 627.231 164.922 626.871 164.699C626.515 164.475 626.094 164.364 625.609 164.364C625.075 164.364 624.613 164.496 624.223 164.761C623.837 165.023 623.539 165.364 623.331 165.784C623.123 166.205 623.018 166.655 623.018 167.136V167.909C623.018 168.568 623.132 169.127 623.359 169.585C623.59 170.04 623.911 170.386 624.32 170.625C624.729 170.86 625.204 170.977 625.746 170.977C626.098 170.977 626.416 170.928 626.7 170.83C626.988 170.727 627.236 170.576 627.445 170.375C627.653 170.17 627.814 169.917 627.928 169.614L629.223 169.977C629.087 170.417 628.857 170.803 628.536 171.136C628.214 171.466 627.816 171.723 627.342 171.909C626.869 172.091 626.337 172.182 625.746 172.182ZM641.286 163.273V164.523H637.24V172H635.899V163.273H641.286ZM648.629 163.273V164.523H644.584V172H643.243V163.273H648.629Z" fill="black"/>
<path d="M886.295 160.364V172H884.886V161.841H884.818L881.977 163.727V162.295L884.886 160.364H886.295ZM893.347 160.205C893.824 160.208 894.301 160.299 894.778 160.477C895.256 160.655 895.691 160.951 896.085 161.364C896.479 161.773 896.795 162.331 897.034 163.04C897.273 163.748 897.392 164.636 897.392 165.705C897.392 166.739 897.294 167.657 897.097 168.46C896.903 169.259 896.623 169.934 896.256 170.483C895.892 171.032 895.449 171.449 894.926 171.733C894.407 172.017 893.82 172.159 893.165 172.159C892.513 172.159 891.932 172.03 891.42 171.773C890.913 171.511 890.496 171.15 890.17 170.688C889.848 170.222 889.642 169.682 889.551 169.068H890.938C891.062 169.602 891.311 170.044 891.682 170.392C892.057 170.737 892.551 170.909 893.165 170.909C894.063 170.909 894.771 170.517 895.29 169.733C895.813 168.949 896.074 167.841 896.074 166.409H895.983C895.771 166.727 895.519 167.002 895.227 167.233C894.936 167.464 894.612 167.642 894.256 167.767C893.9 167.892 893.521 167.955 893.119 167.955C892.453 167.955 891.841 167.79 891.284 167.46C890.731 167.127 890.288 166.67 889.955 166.091C889.625 165.508 889.46 164.841 889.46 164.091C889.46 163.379 889.619 162.727 889.938 162.136C890.259 161.542 890.71 161.068 891.29 160.716C891.873 160.364 892.559 160.193 893.347 160.205ZM893.347 161.455C892.869 161.455 892.439 161.574 892.057 161.812C891.678 162.047 891.377 162.366 891.153 162.767C890.934 163.165 890.824 163.606 890.824 164.091C890.824 164.576 890.93 165.017 891.142 165.415C891.358 165.809 891.652 166.123 892.023 166.358C892.398 166.589 892.824 166.705 893.301 166.705C893.661 166.705 893.996 166.634 894.307 166.494C894.617 166.35 894.888 166.155 895.119 165.909C895.354 165.659 895.538 165.377 895.67 165.062C895.803 164.744 895.869 164.413 895.869 164.068C895.869 163.614 895.759 163.187 895.54 162.79C895.324 162.392 895.025 162.07 894.642 161.824C894.263 161.578 893.831 161.455 893.347 161.455ZM903.717 160.364V172H902.308V161.841H902.24L899.399 163.727V162.295L902.308 160.364H903.717ZM907.428 172L912.632 161.705V161.614H906.632V160.364H914.087V161.682L908.905 172H907.428ZM926.114 163.273V164.523H922.068V172H920.727V163.273H926.114ZM927.595 172.091C927.315 172.091 927.074 171.991 926.874 171.79C926.673 171.589 926.572 171.348 926.572 171.068C926.572 170.788 926.673 170.547 926.874 170.347C927.074 170.146 927.315 170.045 927.595 170.045C927.875 170.045 928.116 170.146 928.317 170.347C928.518 170.547 928.618 170.788 928.618 171.068C928.618 171.254 928.571 171.424 928.476 171.58C928.385 171.735 928.262 171.86 928.107 171.955C927.955 172.045 927.785 172.091 927.595 172.091Z" fill="black"/>
<path d="M1108.07 166.023V167.273H1103.25V166.023H1108.07ZM1103.57 162.273V171H1102.23V162.273H1103.57ZM1109.09 162.273V171H1107.75V162.273H1109.09ZM1114.11 171.205C1113.55 171.205 1113.05 171.1 1112.6 170.892C1112.15 170.68 1111.79 170.375 1111.53 169.977C1111.26 169.576 1111.13 169.091 1111.13 168.523C1111.13 168.023 1111.23 167.617 1111.43 167.307C1111.62 166.992 1111.89 166.746 1112.22 166.568C1112.55 166.39 1112.91 166.258 1113.31 166.17C1113.71 166.08 1114.11 166.008 1114.52 165.955C1115.05 165.886 1115.48 165.835 1115.81 165.801C1116.14 165.763 1116.38 165.701 1116.53 165.614C1116.69 165.527 1116.77 165.375 1116.77 165.159V165.114C1116.77 164.553 1116.61 164.117 1116.31 163.807C1116 163.496 1115.54 163.341 1114.93 163.341C1114.29 163.341 1113.78 163.481 1113.42 163.761C1113.06 164.042 1112.8 164.341 1112.65 164.659L1111.38 164.205C1111.61 163.674 1111.91 163.261 1112.29 162.966C1112.67 162.667 1113.09 162.458 1113.54 162.341C1113.99 162.22 1114.44 162.159 1114.88 162.159C1115.16 162.159 1115.48 162.193 1115.85 162.261C1116.21 162.326 1116.57 162.46 1116.91 162.665C1117.25 162.869 1117.54 163.178 1117.77 163.591C1117.99 164.004 1118.11 164.557 1118.11 165.25V171H1116.77V169.818H1116.7C1116.61 170.008 1116.46 170.21 1116.24 170.426C1116.03 170.642 1115.75 170.826 1115.4 170.977C1115.05 171.129 1114.62 171.205 1114.11 171.205ZM1114.31 170C1114.84 170 1115.29 169.896 1115.65 169.688C1116.02 169.479 1116.3 169.21 1116.48 168.881C1116.67 168.551 1116.77 168.205 1116.77 167.841V166.614C1116.71 166.682 1116.59 166.744 1116.39 166.801C1116.2 166.854 1115.98 166.902 1115.73 166.943C1115.49 166.981 1115.25 167.015 1115.01 167.045C1114.78 167.072 1114.59 167.095 1114.45 167.114C1114.1 167.159 1113.77 167.233 1113.47 167.335C1113.17 167.434 1112.93 167.583 1112.74 167.784C1112.56 167.981 1112.47 168.25 1112.47 168.591C1112.47 169.057 1112.64 169.409 1112.99 169.648C1113.34 169.883 1113.78 170 1114.31 170ZM1124.1 171.182C1123.28 171.182 1122.58 170.989 1121.99 170.602C1121.4 170.216 1120.94 169.684 1120.62 169.006C1120.31 168.328 1120.15 167.553 1120.15 166.682C1120.15 165.795 1120.31 165.013 1120.63 164.335C1120.96 163.653 1121.42 163.121 1122.01 162.739C1122.6 162.352 1123.29 162.159 1124.08 162.159C1124.69 162.159 1125.24 162.273 1125.74 162.5C1126.23 162.727 1126.63 163.045 1126.95 163.455C1127.26 163.864 1127.46 164.341 1127.53 164.886H1126.19C1126.09 164.489 1125.86 164.136 1125.51 163.83C1125.16 163.519 1124.69 163.364 1124.1 163.364C1123.58 163.364 1123.12 163.5 1122.73 163.773C1122.34 164.042 1122.03 164.422 1121.81 164.915C1121.6 165.403 1121.49 165.977 1121.49 166.636C1121.49 167.311 1121.59 167.898 1121.81 168.398C1122.02 168.898 1122.32 169.286 1122.71 169.562C1123.11 169.839 1123.57 169.977 1124.1 169.977C1124.45 169.977 1124.77 169.917 1125.05 169.795C1125.33 169.674 1125.57 169.5 1125.77 169.273C1125.97 169.045 1126.11 168.773 1126.19 168.455H1127.53C1127.46 168.97 1127.27 169.434 1126.97 169.847C1126.67 170.256 1126.28 170.581 1125.79 170.824C1125.31 171.062 1124.74 171.182 1124.1 171.182ZM1128.81 163.523V162.273H1135.9V163.523H1133.03V171H1131.69V163.523H1128.81ZM1140.94 171.182C1140.16 171.182 1139.47 170.994 1138.87 170.619C1138.28 170.244 1137.82 169.72 1137.48 169.045C1137.15 168.371 1136.99 167.583 1136.99 166.682C1136.99 165.773 1137.15 164.979 1137.48 164.301C1137.82 163.623 1138.28 163.097 1138.87 162.722C1139.47 162.347 1140.16 162.159 1140.94 162.159C1141.73 162.159 1142.42 162.347 1143.01 162.722C1143.61 163.097 1144.07 163.623 1144.4 164.301C1144.73 164.979 1144.9 165.773 1144.9 166.682C1144.9 167.583 1144.73 168.371 1144.4 169.045C1144.07 169.72 1143.61 170.244 1143.01 170.619C1142.42 170.994 1141.73 171.182 1140.94 171.182ZM1140.94 169.977C1141.54 169.977 1142.04 169.824 1142.42 169.517C1142.81 169.21 1143.09 168.807 1143.28 168.307C1143.47 167.807 1143.56 167.265 1143.56 166.682C1143.56 166.098 1143.47 165.555 1143.28 165.051C1143.09 164.547 1142.81 164.14 1142.42 163.83C1142.04 163.519 1141.54 163.364 1140.94 163.364C1140.35 163.364 1139.85 163.519 1139.47 163.83C1139.08 164.14 1138.79 164.547 1138.61 165.051C1138.42 165.555 1138.33 166.098 1138.33 166.682C1138.33 167.265 1138.42 167.807 1138.61 168.307C1138.79 168.807 1139.08 169.21 1139.47 169.517C1139.85 169.824 1140.35 169.977 1140.94 169.977ZM1152.2 171V163.5H1149.88C1149.36 163.5 1148.94 163.621 1148.64 163.864C1148.35 164.106 1148.2 164.439 1148.2 164.864C1148.2 165.28 1148.33 165.608 1148.6 165.847C1148.87 166.085 1149.25 166.205 1149.72 166.205H1152.54V167.455H1149.72C1149.13 167.455 1148.62 167.35 1148.19 167.142C1147.76 166.934 1147.43 166.636 1147.2 166.25C1146.97 165.86 1146.86 165.398 1146.86 164.864C1146.86 164.326 1146.98 163.864 1147.22 163.477C1147.46 163.091 1147.81 162.794 1148.26 162.585C1148.71 162.377 1149.25 162.273 1149.88 162.273H1153.47V171H1152.2ZM1146.38 171L1148.86 166.659H1150.31L1147.83 171H1146.38ZM1167.84 169.75L1167.68 173.5H1166.29V171H1165.16V169.75H1167.84ZM1155.93 162.273H1157.27V169.75H1160.57V162.273H1161.91V169.75H1165.2V162.273H1166.54V171H1155.93V162.273ZM1173.36 171.182C1172.51 171.182 1171.79 170.996 1171.18 170.625C1170.57 170.25 1170.11 169.727 1169.78 169.057C1169.45 168.383 1169.29 167.598 1169.29 166.705C1169.29 165.811 1169.45 165.023 1169.78 164.341C1170.11 163.655 1170.56 163.121 1171.15 162.739C1171.74 162.352 1172.43 162.159 1173.22 162.159C1173.67 162.159 1174.12 162.235 1174.57 162.386C1175.01 162.538 1175.41 162.784 1175.78 163.125C1176.14 163.462 1176.43 163.909 1176.64 164.466C1176.86 165.023 1176.97 165.708 1176.97 166.523V167.091H1170.24V165.932H1175.61C1175.61 165.439 1175.51 165 1175.31 164.614C1175.12 164.227 1174.84 163.922 1174.48 163.699C1174.12 163.475 1173.7 163.364 1173.22 163.364C1172.68 163.364 1172.22 163.496 1171.83 163.761C1171.45 164.023 1171.15 164.364 1170.94 164.784C1170.73 165.205 1170.63 165.655 1170.63 166.136V166.909C1170.63 167.568 1170.74 168.127 1170.97 168.585C1171.2 169.04 1171.52 169.386 1171.93 169.625C1172.34 169.86 1172.81 169.977 1173.36 169.977C1173.71 169.977 1174.03 169.928 1174.31 169.83C1174.6 169.727 1174.85 169.576 1175.05 169.375C1175.26 169.17 1175.42 168.917 1175.54 168.614L1176.83 168.977C1176.7 169.417 1176.47 169.803 1176.14 170.136C1175.82 170.466 1175.43 170.723 1174.95 170.909C1174.48 171.091 1173.95 171.182 1173.36 171.182ZM1182.67 171.182C1181.83 171.182 1181.1 170.996 1180.49 170.625C1179.89 170.25 1179.42 169.727 1179.09 169.057C1178.76 168.383 1178.6 167.598 1178.6 166.705C1178.6 165.811 1178.76 165.023 1179.09 164.341C1179.42 163.655 1179.88 163.121 1180.46 162.739C1181.05 162.352 1181.74 162.159 1182.53 162.159C1182.99 162.159 1183.43 162.235 1183.88 162.386C1184.32 162.538 1184.72 162.784 1185.09 163.125C1185.45 163.462 1185.74 163.909 1185.96 164.466C1186.17 165.023 1186.28 165.708 1186.28 166.523V167.091H1179.55V165.932H1184.92C1184.92 165.439 1184.82 165 1184.62 164.614C1184.43 164.227 1184.15 163.922 1183.79 163.699C1183.44 163.475 1183.02 163.364 1182.53 163.364C1182 163.364 1181.54 163.496 1181.14 163.761C1180.76 164.023 1180.46 164.364 1180.25 164.784C1180.04 165.205 1179.94 165.655 1179.94 166.136V166.909C1179.94 167.568 1180.05 168.127 1180.28 168.585C1180.51 169.04 1180.83 169.386 1181.24 169.625C1181.65 169.86 1182.13 169.977 1182.67 169.977C1183.02 169.977 1183.34 169.928 1183.62 169.83C1183.91 169.727 1184.16 169.576 1184.37 169.375C1184.57 169.17 1184.74 168.917 1184.85 168.614L1186.14 168.977C1186.01 169.417 1185.78 169.803 1185.46 170.136C1185.14 170.466 1184.74 170.723 1184.26 170.909C1183.79 171.091 1183.26 171.182 1182.67 171.182ZM1102.23 190V181.273H1105.8C1106.73 181.273 1107.48 181.485 1108.03 181.909C1108.59 182.333 1108.86 182.894 1108.86 183.591C1108.86 184.121 1108.71 184.532 1108.39 184.824C1108.08 185.112 1107.67 185.307 1107.18 185.409C1107.5 185.455 1107.82 185.568 1108.12 185.75C1108.43 185.932 1108.68 186.182 1108.88 186.5C1109.08 186.814 1109.18 187.201 1109.18 187.659C1109.18 188.106 1109.07 188.506 1108.84 188.858C1108.61 189.21 1108.29 189.489 1107.86 189.693C1107.44 189.898 1106.93 190 1106.34 190H1102.23ZM1103.5 188.773H1106.34C1106.8 188.773 1107.16 188.663 1107.43 188.443C1107.69 188.223 1107.82 187.924 1107.82 187.545C1107.82 187.095 1107.69 186.741 1107.43 186.483C1107.16 186.222 1106.8 186.091 1106.34 186.091H1103.5V188.773ZM1103.5 184.932H1105.8C1106.16 184.932 1106.46 184.883 1106.72 184.784C1106.98 184.682 1107.18 184.538 1107.31 184.352C1107.45 184.163 1107.52 183.939 1107.52 183.682C1107.52 183.314 1107.37 183.027 1107.06 182.818C1106.76 182.606 1106.33 182.5 1105.8 182.5H1103.5V184.932ZM1111.21 193.273V181.273H1112.51V182.659H1112.67C1112.76 182.508 1112.9 182.314 1113.08 182.08C1113.25 181.841 1113.51 181.629 1113.84 181.443C1114.17 181.254 1114.62 181.159 1115.19 181.159C1115.92 181.159 1116.57 181.343 1117.13 181.71C1117.69 182.078 1118.13 182.598 1118.44 183.273C1118.76 183.947 1118.92 184.742 1118.92 185.659C1118.92 186.583 1118.76 187.384 1118.44 188.062C1118.13 188.737 1117.69 189.259 1117.14 189.631C1116.58 189.998 1115.94 190.182 1115.21 190.182C1114.65 190.182 1114.2 190.089 1113.87 189.903C1113.53 189.714 1113.27 189.5 1113.09 189.261C1112.9 189.019 1112.76 188.818 1112.67 188.659H1112.55V193.273H1111.21ZM1112.53 185.636C1112.53 186.295 1112.63 186.877 1112.82 187.381C1113.01 187.881 1113.29 188.273 1113.67 188.557C1114.04 188.837 1114.49 188.977 1115.03 188.977C1115.59 188.977 1116.06 188.83 1116.43 188.534C1116.81 188.235 1117.1 187.833 1117.29 187.33C1117.48 186.822 1117.58 186.258 1117.58 185.636C1117.58 185.023 1117.48 184.47 1117.29 183.977C1117.11 183.481 1116.82 183.089 1116.44 182.801C1116.07 182.509 1115.6 182.364 1115.03 182.364C1114.48 182.364 1114.03 182.502 1113.65 182.778C1113.28 183.051 1113 183.434 1112.81 183.926C1112.62 184.415 1112.53 184.985 1112.53 185.636ZM1124.62 190.182C1123.78 190.182 1123.05 189.996 1122.44 189.625C1121.84 189.25 1121.37 188.727 1121.04 188.057C1120.72 187.383 1120.55 186.598 1120.55 185.705C1120.55 184.811 1120.72 184.023 1121.04 183.341C1121.37 182.655 1121.83 182.121 1122.42 181.739C1123.01 181.352 1123.7 181.159 1124.48 181.159C1124.94 181.159 1125.39 181.235 1125.83 181.386C1126.27 181.538 1126.68 181.784 1127.04 182.125C1127.4 182.462 1127.69 182.909 1127.91 183.466C1128.13 184.023 1128.23 184.708 1128.23 185.523V186.091H1121.51V184.932H1126.87C1126.87 184.439 1126.77 184 1126.58 183.614C1126.38 183.227 1126.11 182.922 1125.75 182.699C1125.39 182.475 1124.97 182.364 1124.48 182.364C1123.95 182.364 1123.49 182.496 1123.1 182.761C1122.71 183.023 1122.41 183.364 1122.21 183.784C1122 184.205 1121.89 184.655 1121.89 185.136V185.909C1121.89 186.568 1122.01 187.127 1122.23 187.585C1122.47 188.04 1122.79 188.386 1123.19 188.625C1123.6 188.86 1124.08 188.977 1124.62 188.977C1124.97 188.977 1125.29 188.928 1125.58 188.83C1125.86 188.727 1126.11 188.576 1126.32 188.375C1126.53 188.17 1126.69 187.917 1126.8 187.614L1128.1 187.977C1127.96 188.417 1127.73 188.803 1127.41 189.136C1127.09 189.466 1126.69 189.723 1126.22 189.909C1125.74 190.091 1125.21 190.182 1124.62 190.182ZM1135.05 188.182L1138.09 181.273H1139.37L1135.59 190H1134.5L1130.8 181.273H1132.05L1135.05 188.182ZM1131.62 181.273V190H1130.27V181.273H1131.62ZM1138.48 190V181.273H1139.82V190H1138.48ZM1147.52 190V182.5H1145.21C1144.68 182.5 1144.27 182.621 1143.97 182.864C1143.67 183.106 1143.52 183.439 1143.52 183.864C1143.52 184.28 1143.66 184.608 1143.93 184.847C1144.2 185.085 1144.57 185.205 1145.05 185.205H1147.87V186.455H1145.05C1144.46 186.455 1143.95 186.35 1143.52 186.142C1143.09 185.934 1142.76 185.636 1142.53 185.25C1142.3 184.86 1142.18 184.398 1142.18 183.864C1142.18 183.326 1142.3 182.864 1142.55 182.477C1142.79 182.091 1143.14 181.794 1143.59 181.585C1144.04 181.377 1144.58 181.273 1145.21 181.273H1148.8V190H1147.52ZM1141.71 190L1144.18 185.659H1145.64L1143.16 190H1141.71Z" fill="black"/>
</g>
<defs>
<filter id="filter0_d_250_363" x="0" y="0" width="1232" height="287" filterUnits="userSpaceOnUse" color-interpolation-filters="sRGB">
<feFlood flood-opacity="0" result="BackgroundImageFix"/>
<feColorMatrix in="SourceAlpha" type="matrix" values="0 0 0 0 0 0 0 0 0 0 0 0 0 0 0 0 0 0 127 0" result="hardAlpha"/>
<feOffset dy="4"/>
<feGaussianBlur stdDeviation="2"/>
<feComposite in2="hardAlpha" operator="out"/>
<feColorMatrix type="matrix" values="0 0 0 0 0 0 0 0 0 0 0 0 0 0 0 0 0 0 0.25 0"/>
<feBlend mode="normal" in2="BackgroundImageFix" result="effect1_dropShadow_250_363"/>
<feBlend mode="normal" in="SourceGraphic" in2="effect1_dropShadow_250_363" result="shape"/>
</filter>
</defs>
</svg>
