<svg width="1232" height="287" viewBox="0 0 1232 287" fill="none" xmlns="http://www.w3.org/2000/svg">
<g filter="url(#filter0_d_250_385)">
<rect x="4" width="1224" height="279" rx="15" fill="#272644"/>
<path d="M1226.47 137.975C1227.84 136.608 1227.84 134.392 1226.47 133.025L1204.2 110.751C1202.83 109.384 1200.62 109.384 1199.25 110.751C1197.88 112.118 1197.88 114.334 1199.25 115.701L1219.05 135.5L1199.25 155.299C1197.88 156.666 1197.88 158.882 1199.25 160.249C1200.62 161.616 1202.83 161.616 1204.2 160.249L1226.47 137.975ZM1180 139H1224V132H1180V139Z" fill="white"/>
<line x1="4.00325" y1="135" x2="1219" y2="135.987" stroke="white" stroke-width="8"/>
<rect x="148" y="47" width="141" height="43" rx="10" fill="#8684FF"/>
<path d="M170.25 74L166.25 68.6591H164.818V74H163.409V62.3636H164.818V67.4091H165.432L170.091 62.3636H171.773L167.068 67.4773L171.932 74H170.25ZM176.139 74.2045C175.586 74.2045 175.084 74.1004 174.634 73.892C174.183 73.6799 173.825 73.375 173.56 72.9773C173.295 72.5758 173.162 72.0909 173.162 71.5227C173.162 71.0227 173.26 70.6174 173.457 70.3068C173.654 69.9924 173.918 69.7462 174.247 69.5682C174.577 69.3902 174.94 69.2576 175.338 69.1705C175.74 69.0795 176.143 69.0076 176.548 68.9545C177.079 68.8864 177.509 68.8352 177.838 68.8011C178.171 68.7633 178.414 68.7008 178.565 68.6136C178.721 68.5265 178.798 68.375 178.798 68.1591V68.1136C178.798 67.553 178.645 67.1174 178.338 66.8068C178.035 66.4962 177.575 66.3409 176.957 66.3409C176.317 66.3409 175.815 66.4811 175.452 66.7614C175.088 67.0417 174.832 67.3409 174.685 67.6591L173.412 67.2045C173.639 66.6742 173.942 66.2614 174.321 65.9659C174.704 65.6667 175.12 65.4583 175.571 65.3409C176.026 65.2197 176.473 65.1591 176.912 65.1591C177.192 65.1591 177.514 65.1932 177.878 65.2614C178.245 65.3258 178.599 65.4602 178.94 65.6648C179.285 65.8693 179.571 66.178 179.798 66.5909C180.026 67.0038 180.139 67.5568 180.139 68.25V74H178.798V72.8182H178.73C178.639 73.0076 178.488 73.2102 178.276 73.4261C178.063 73.642 177.781 73.8258 177.429 73.9773C177.077 74.1288 176.647 74.2045 176.139 74.2045ZM176.344 73C176.874 73 177.321 72.8958 177.685 72.6875C178.052 72.4792 178.329 72.2102 178.514 71.8807C178.704 71.5511 178.798 71.2045 178.798 70.8409V69.6136C178.741 69.6818 178.616 69.7443 178.423 69.8011C178.234 69.8542 178.014 69.9015 177.764 69.9432C177.518 69.9811 177.277 70.0152 177.043 70.0455C176.812 70.072 176.624 70.0947 176.48 70.1136C176.132 70.1591 175.806 70.233 175.503 70.3352C175.204 70.4337 174.961 70.5833 174.776 70.7841C174.594 70.9811 174.503 71.25 174.503 71.5909C174.503 72.0568 174.675 72.4091 175.02 72.6477C175.368 72.8826 175.81 73 176.344 73ZM187.359 72.1818L190.405 65.2727H191.678L187.905 74H186.814L183.109 65.2727H184.359L187.359 72.1818ZM183.928 65.2727V74H182.587V65.2727H183.928ZM190.791 74V65.2727H192.132V74H190.791ZM198.246 74.1818C197.405 74.1818 196.679 73.9962 196.07 73.625C195.464 73.25 194.996 72.7273 194.666 72.0568C194.34 71.3826 194.178 70.5985 194.178 69.7045C194.178 68.8106 194.34 68.0227 194.666 67.3409C194.996 66.6553 195.454 66.1212 196.041 65.7386C196.632 65.3523 197.321 65.1591 198.109 65.1591C198.564 65.1591 199.013 65.2348 199.456 65.3864C199.899 65.5379 200.303 65.7841 200.666 66.125C201.03 66.4621 201.32 66.9091 201.536 67.4659C201.751 68.0227 201.859 68.7083 201.859 69.5227V70.0909H195.132V68.9318H200.496C200.496 68.4394 200.397 68 200.2 67.6136C200.007 67.2273 199.731 66.9223 199.371 66.6989C199.015 66.4754 198.594 66.3636 198.109 66.3636C197.575 66.3636 197.113 66.4962 196.723 66.7614C196.337 67.0227 196.039 67.3636 195.831 67.7841C195.623 68.2045 195.518 68.6553 195.518 69.1364V69.9091C195.518 70.5682 195.632 71.1269 195.859 71.5852C196.09 72.0398 196.411 72.3864 196.82 72.625C197.229 72.8598 197.704 72.9773 198.246 72.9773C198.598 72.9773 198.916 72.928 199.2 72.8295C199.488 72.7273 199.736 72.5758 199.945 72.375C200.153 72.1705 200.314 71.9167 200.428 71.6136L201.723 71.9773C201.587 72.4167 201.357 72.803 201.036 73.1364C200.714 73.4659 200.316 73.7235 199.842 73.9091C199.369 74.0909 198.837 74.1818 198.246 74.1818ZM209.74 69.0227V70.2727H204.922V69.0227H209.74ZM205.24 65.2727V74H203.899V65.2727H205.24ZM210.763 65.2727V74H209.422V65.2727H210.763ZM219.053 69.0227V70.2727H214.234V69.0227H219.053ZM214.553 65.2727V74H213.212V65.2727H214.553ZM220.075 65.2727V74H218.734V65.2727H220.075ZM223.683 68.4318H226.183C227.206 68.4318 227.988 68.6913 228.53 69.2102C229.071 69.7292 229.342 70.3864 229.342 71.1818C229.342 71.7045 229.221 72.1799 228.979 72.608C228.736 73.0322 228.38 73.3712 227.911 73.625C227.441 73.875 226.865 74 226.183 74H222.524V65.2727H223.865V72.75H226.183C226.714 72.75 227.149 72.6098 227.49 72.3295C227.831 72.0492 228.001 71.6894 228.001 71.25C228.001 70.7879 227.831 70.411 227.49 70.1193C227.149 69.8277 226.714 69.6818 226.183 69.6818H223.683V68.4318ZM230.729 74V65.2727H232.07V74H230.729ZM235.865 72.0227L240.07 65.2727H241.615V74H240.274V67.25L236.092 74H234.524V65.2727H235.865V72.0227ZM239.183 62.3636H240.433C240.433 62.9773 240.221 63.4792 239.797 63.8693C239.373 64.2595 238.797 64.4545 238.07 64.4545C237.354 64.4545 236.784 64.2595 236.359 63.8693C235.939 63.4792 235.729 62.9773 235.729 62.3636H236.979C236.979 62.6591 237.06 62.9186 237.223 63.142C237.39 63.3655 237.672 63.4773 238.07 63.4773C238.467 63.4773 238.751 63.3655 238.922 63.142C239.096 62.9186 239.183 62.6591 239.183 62.3636ZM248.571 74V65.2727H252.139C253.079 65.2727 253.825 65.4848 254.378 65.9091C254.931 66.3333 255.207 66.8939 255.207 67.5909C255.207 68.1212 255.05 68.5322 254.736 68.8239C254.421 69.1117 254.018 69.3068 253.526 69.4091C253.848 69.4545 254.16 69.5682 254.463 69.75C254.77 69.9318 255.024 70.1818 255.224 70.5C255.425 70.8144 255.526 71.2008 255.526 71.6591C255.526 72.1061 255.412 72.5057 255.185 72.858C254.957 73.2102 254.632 73.4886 254.207 73.6932C253.783 73.8977 253.276 74 252.685 74H248.571ZM249.844 72.7727H252.685C253.147 72.7727 253.509 72.6629 253.77 72.4432C254.031 72.2235 254.162 71.9242 254.162 71.5455C254.162 71.0947 254.031 70.7405 253.77 70.483C253.509 70.2216 253.147 70.0909 252.685 70.0909H249.844V72.7727ZM249.844 68.9318H252.139C252.499 68.9318 252.808 68.8826 253.065 68.7841C253.323 68.6818 253.52 68.5379 253.656 68.3523C253.796 68.1629 253.866 67.9394 253.866 67.6818C253.866 67.3144 253.713 67.0265 253.406 66.8182C253.099 66.6061 252.677 66.5 252.139 66.5H249.844V68.9318ZM261.214 74.1818C260.374 74.1818 259.648 73.9962 259.038 73.625C258.432 73.25 257.964 72.7273 257.635 72.0568C257.309 71.3826 257.146 70.5985 257.146 69.7045C257.146 68.8106 257.309 68.0227 257.635 67.3409C257.964 66.6553 258.423 66.1212 259.01 65.7386C259.601 65.3523 260.29 65.1591 261.078 65.1591C261.533 65.1591 261.982 65.2348 262.425 65.3864C262.868 65.5379 263.271 65.7841 263.635 66.125C263.999 66.4621 264.288 66.9091 264.504 67.4659C264.72 68.0227 264.828 68.7083 264.828 69.5227V70.0909H258.101V68.9318H263.464C263.464 68.4394 263.366 68 263.169 67.6136C262.976 67.2273 262.699 66.9223 262.339 66.6989C261.983 66.4754 261.563 66.3636 261.078 66.3636C260.544 66.3636 260.082 66.4962 259.692 66.7614C259.305 67.0227 259.008 67.3636 258.8 67.7841C258.591 68.2045 258.487 68.6553 258.487 69.1364V69.9091C258.487 70.5682 258.601 71.1269 258.828 71.5852C259.059 72.0398 259.379 72.3864 259.788 72.625C260.197 72.8598 260.673 72.9773 261.214 72.9773C261.567 72.9773 261.885 72.928 262.169 72.8295C262.457 72.7273 262.705 72.5758 262.913 72.375C263.122 72.1705 263.283 71.9167 263.396 71.6136L264.692 71.9773C264.555 72.4167 264.326 72.803 264.004 73.1364C263.682 73.4659 263.285 73.7235 262.811 73.9091C262.338 74.0909 261.805 74.1818 261.214 74.1818ZM266.868 74V65.2727H268.209V69.0682H269.095L272.232 65.2727H273.959L270.436 69.4773L274.004 74H272.277L269.413 70.3182H268.209V74H266.868Z" fill="white"/>
<rect x="511" y="47" width="147" height="43" rx="10" fill="#8684FF"/>
<path d="M526.409 74V62.3636H533.432V63.6136H527.818V67.25H530.773C531.606 67.25 532.309 67.3864 532.881 67.6591C533.456 67.9318 533.892 68.3163 534.188 68.8125C534.487 69.3087 534.636 69.8939 534.636 70.5682C534.636 71.2424 534.487 71.8371 534.188 72.3523C533.892 72.8674 533.456 73.2708 532.881 73.5625C532.309 73.8542 531.606 74 530.773 74H526.409ZM527.818 72.7727H530.773C531.303 72.7727 531.752 72.6667 532.119 72.4545C532.491 72.2386 532.771 71.9621 532.96 71.625C533.153 71.2841 533.25 70.9242 533.25 70.5455C533.25 69.9886 533.036 69.5095 532.608 69.108C532.18 68.7027 531.568 68.5 530.773 68.5H527.818V72.7727ZM536.774 77.2727V65.2727H538.07V66.6591H538.229C538.327 66.5076 538.464 66.3144 538.638 66.0795C538.816 65.8409 539.07 65.6288 539.399 65.4432C539.732 65.2538 540.183 65.1591 540.751 65.1591C541.486 65.1591 542.134 65.3428 542.695 65.7102C543.255 66.0777 543.693 66.5985 544.007 67.2727C544.321 67.947 544.479 68.7424 544.479 69.6591C544.479 70.5833 544.321 71.3845 544.007 72.0625C543.693 72.7367 543.257 73.2595 542.7 73.6307C542.143 73.9981 541.501 74.1818 540.774 74.1818C540.214 74.1818 539.765 74.089 539.428 73.9034C539.09 73.714 538.831 73.5 538.649 73.2614C538.467 73.0189 538.327 72.8182 538.229 72.6591H538.115V77.2727H536.774ZM538.092 69.6364C538.092 70.2955 538.189 70.8769 538.382 71.3807C538.575 71.8807 538.857 72.2727 539.229 72.5568C539.6 72.8371 540.054 72.9773 540.592 72.9773C541.153 72.9773 541.621 72.8295 541.996 72.5341C542.375 72.2348 542.659 71.8333 542.848 71.3295C543.041 70.822 543.138 70.2576 543.138 69.6364C543.138 69.0227 543.043 68.4697 542.854 67.9773C542.668 67.4811 542.386 67.089 542.007 66.8011C541.632 66.5095 541.161 66.3636 540.592 66.3636C540.047 66.3636 539.589 66.5019 539.217 66.7784C538.846 67.0511 538.566 67.4337 538.376 67.9261C538.187 68.4148 538.092 68.9848 538.092 69.6364ZM550.07 74.1818C549.282 74.1818 548.59 73.9943 547.996 73.6193C547.405 73.2443 546.943 72.7197 546.609 72.0455C546.28 71.3712 546.115 70.5833 546.115 69.6818C546.115 68.7727 546.28 67.9792 546.609 67.3011C546.943 66.6231 547.405 66.0966 547.996 65.7216C548.59 65.3466 549.282 65.1591 550.07 65.1591C550.857 65.1591 551.547 65.3466 552.138 65.7216C552.732 66.0966 553.195 66.6231 553.524 67.3011C553.857 67.9792 554.024 68.7727 554.024 69.6818C554.024 70.5833 553.857 71.3712 553.524 72.0455C553.195 72.7197 552.732 73.2443 552.138 73.6193C551.547 73.9943 550.857 74.1818 550.07 74.1818ZM550.07 72.9773C550.668 72.9773 551.161 72.8239 551.547 72.517C551.933 72.2102 552.219 71.8068 552.405 71.3068C552.59 70.8068 552.683 70.2652 552.683 69.6818C552.683 69.0985 552.59 68.5549 552.405 68.0511C552.219 67.5473 551.933 67.1402 551.547 66.8295C551.161 66.5189 550.668 66.3636 550.07 66.3636C549.471 66.3636 548.979 66.5189 548.592 66.8295C548.206 67.1402 547.92 67.5473 547.734 68.0511C547.549 68.5549 547.456 69.0985 547.456 69.6818C547.456 70.2652 547.549 70.8068 547.734 71.3068C547.92 71.8068 548.206 72.2102 548.592 72.517C548.979 72.8239 549.471 72.9773 550.07 72.9773ZM561.912 69.0227V70.2727H557.094V69.0227H561.912ZM557.412 65.2727V74H556.071V65.2727H557.412ZM562.935 65.2727V74H561.594V65.2727H562.935ZM564.838 71.7727H566.27C566.3 72.1667 566.478 72.4659 566.804 72.6705C567.134 72.875 567.562 72.9773 568.088 72.9773C568.626 72.9773 569.086 72.8674 569.469 72.6477C569.851 72.4242 570.043 72.0644 570.043 71.5682C570.043 71.2765 569.971 71.0227 569.827 70.8068C569.683 70.5871 569.48 70.4167 569.219 70.2955C568.957 70.1742 568.649 70.1136 568.293 70.1136H566.793V68.9091H568.293C568.827 68.9091 569.221 68.7879 569.474 68.5455C569.732 68.303 569.861 68 569.861 67.6364C569.861 67.2462 569.723 66.9337 569.446 66.6989C569.17 66.4602 568.777 66.3409 568.27 66.3409C567.759 66.3409 567.332 66.4564 566.991 66.6875C566.651 66.9148 566.471 67.2083 566.452 67.5682H565.043C565.058 67.0985 565.202 66.6837 565.474 66.3239C565.747 65.9602 566.118 65.6761 566.588 65.4716C567.058 65.2633 567.596 65.1591 568.202 65.1591C568.815 65.1591 569.348 65.267 569.798 65.483C570.253 65.6951 570.603 65.9848 570.849 66.3523C571.099 66.7159 571.224 67.1288 571.224 67.5909C571.224 68.0833 571.086 68.4811 570.81 68.7841C570.533 69.0871 570.187 69.303 569.77 69.4318V69.5227C570.099 69.5455 570.385 69.6515 570.628 69.8409C570.874 70.0265 571.065 70.2708 571.202 70.5739C571.338 70.8731 571.406 71.2045 571.406 71.5682C571.406 72.0985 571.264 72.5606 570.98 72.9545C570.696 73.3447 570.306 73.6477 569.81 73.8636C569.313 74.0758 568.747 74.1818 568.111 74.1818C567.493 74.1818 566.94 74.0814 566.452 73.8807C565.963 73.6761 565.575 73.3939 565.287 73.0341C565.003 72.6705 564.853 72.25 564.838 71.7727ZM576.835 74.1818C576.047 74.1818 575.356 73.9943 574.761 73.6193C574.17 73.2443 573.708 72.7197 573.375 72.0455C573.045 71.3712 572.881 70.5833 572.881 69.6818C572.881 68.7727 573.045 67.9792 573.375 67.3011C573.708 66.6231 574.17 66.0966 574.761 65.7216C575.356 65.3466 576.047 65.1591 576.835 65.1591C577.623 65.1591 578.313 65.3466 578.903 65.7216C579.498 66.0966 579.96 66.6231 580.29 67.3011C580.623 67.9792 580.79 68.7727 580.79 69.6818C580.79 70.5833 580.623 71.3712 580.29 72.0455C579.96 72.7197 579.498 73.2443 578.903 73.6193C578.313 73.9943 577.623 74.1818 576.835 74.1818ZM576.835 72.9773C577.434 72.9773 577.926 72.8239 578.312 72.517C578.699 72.2102 578.985 71.8068 579.17 71.3068C579.356 70.8068 579.449 70.2652 579.449 69.6818C579.449 69.0985 579.356 68.5549 579.17 68.0511C578.985 67.5473 578.699 67.1402 578.312 66.8295C577.926 66.5189 577.434 66.3636 576.835 66.3636C576.237 66.3636 575.744 66.5189 575.358 66.8295C574.972 67.1402 574.686 67.5473 574.5 68.0511C574.314 68.5549 574.222 69.0985 574.222 69.6818C574.222 70.2652 574.314 70.8068 574.5 71.3068C574.686 71.8068 574.972 72.2102 575.358 72.517C575.744 72.8239 576.237 72.9773 576.835 72.9773ZM582.837 74V65.2727H586.405C587.344 65.2727 588.09 65.4848 588.643 65.9091C589.196 66.3333 589.473 66.8939 589.473 67.5909C589.473 68.1212 589.316 68.5322 589.001 68.8239C588.687 69.1117 588.284 69.3068 587.791 69.4091C588.113 69.4545 588.426 69.5682 588.729 69.75C589.036 69.9318 589.289 70.1818 589.49 70.5C589.691 70.8144 589.791 71.2008 589.791 71.6591C589.791 72.1061 589.678 72.5057 589.45 72.858C589.223 73.2102 588.897 73.4886 588.473 73.6932C588.049 73.8977 587.541 74 586.95 74H582.837ZM584.109 72.7727H586.95C587.412 72.7727 587.774 72.6629 588.036 72.4432C588.297 72.2235 588.428 71.9242 588.428 71.5455C588.428 71.0947 588.297 70.7405 588.036 70.483C587.774 70.2216 587.412 70.0909 586.95 70.0909H584.109V72.7727ZM584.109 68.9318H586.405C586.765 68.9318 587.073 68.8826 587.331 68.7841C587.589 68.6818 587.786 68.5379 587.922 68.3523C588.062 68.1629 588.132 67.9394 588.132 67.6818C588.132 67.3144 587.979 67.0265 587.672 66.8182C587.365 66.6061 586.943 66.5 586.405 66.5H584.109V68.9318ZM592.98 68.4318H595.48C596.503 68.4318 597.285 68.6913 597.827 69.2102C598.368 69.7292 598.639 70.3864 598.639 71.1818C598.639 71.7045 598.518 72.1799 598.276 72.608C598.033 73.0322 597.677 73.3712 597.207 73.625C596.738 73.875 596.162 74 595.48 74H591.821V65.2727H593.162V72.75H595.48C596.01 72.75 596.446 72.6098 596.787 72.3295C597.128 72.0492 597.298 71.6894 597.298 71.25C597.298 70.7879 597.128 70.411 596.787 70.1193C596.446 69.8277 596.01 69.6818 595.48 69.6818H592.98V68.4318ZM600.026 74V65.2727H601.366V74H600.026ZM605.162 72.0227L609.366 65.2727H610.912V74H609.571V67.25L605.389 74H603.821V65.2727H605.162V72.0227ZM608.48 62.3636H609.73C609.73 62.9773 609.518 63.4792 609.094 63.8693C608.67 64.2595 608.094 64.4545 607.366 64.4545C606.651 64.4545 606.08 64.2595 605.656 63.8693C605.236 63.4792 605.026 62.9773 605.026 62.3636H606.276C606.276 62.6591 606.357 62.9186 606.52 63.142C606.687 63.3655 606.969 63.4773 607.366 63.4773C607.764 63.4773 608.048 63.3655 608.219 63.142C608.393 62.9186 608.48 62.6591 608.48 62.3636ZM617.868 74V65.2727H621.436C622.375 65.2727 623.122 65.4848 623.675 65.9091C624.228 66.3333 624.504 66.8939 624.504 67.5909C624.504 68.1212 624.347 68.5322 624.033 68.8239C623.718 69.1117 623.315 69.3068 622.822 69.4091C623.144 69.4545 623.457 69.5682 623.76 69.75C624.067 69.9318 624.321 70.1818 624.521 70.5C624.722 70.8144 624.822 71.2008 624.822 71.6591C624.822 72.1061 624.709 72.5057 624.482 72.858C624.254 73.2102 623.929 73.4886 623.504 73.6932C623.08 73.8977 622.572 74 621.982 74H617.868ZM619.141 72.7727H621.982C622.444 72.7727 622.805 72.6629 623.067 72.4432C623.328 72.2235 623.459 71.9242 623.459 71.5455C623.459 71.0947 623.328 70.7405 623.067 70.483C622.805 70.2216 622.444 70.0909 621.982 70.0909H619.141V72.7727ZM619.141 68.9318H621.436C621.796 68.9318 622.105 68.8826 622.362 68.7841C622.62 68.6818 622.817 68.5379 622.953 68.3523C623.093 68.1629 623.163 67.9394 623.163 67.6818C623.163 67.3144 623.01 67.0265 622.703 66.8182C622.396 66.6061 621.974 66.5 621.436 66.5H619.141V68.9318ZM630.511 74.1818C629.67 74.1818 628.945 73.9962 628.335 73.625C627.729 73.25 627.261 72.7273 626.932 72.0568C626.606 71.3826 626.443 70.5985 626.443 69.7045C626.443 68.8106 626.606 68.0227 626.932 67.3409C627.261 66.6553 627.72 66.1212 628.307 65.7386C628.898 65.3523 629.587 65.1591 630.375 65.1591C630.83 65.1591 631.278 65.2348 631.722 65.3864C632.165 65.5379 632.568 65.7841 632.932 66.125C633.295 66.4621 633.585 66.9091 633.801 67.4659C634.017 68.0227 634.125 68.7083 634.125 69.5227V70.0909H627.398V68.9318H632.761C632.761 68.4394 632.663 68 632.466 67.6136C632.273 67.2273 631.996 66.9223 631.636 66.6989C631.28 66.4754 630.86 66.3636 630.375 66.3636C629.841 66.3636 629.379 66.4962 628.989 66.7614C628.602 67.0227 628.305 67.3636 628.097 67.7841C627.888 68.2045 627.784 68.6553 627.784 69.1364V69.9091C627.784 70.5682 627.898 71.1269 628.125 71.5852C628.356 72.0398 628.676 72.3864 629.085 72.625C629.494 72.8598 629.97 72.9773 630.511 72.9773C630.864 72.9773 631.182 72.928 631.466 72.8295C631.754 72.7273 632.002 72.5758 632.21 72.375C632.419 72.1705 632.58 71.9167 632.693 71.6136L633.989 71.9773C633.852 72.4167 633.623 72.803 633.301 73.1364C632.979 73.4659 632.581 73.7235 632.108 73.9091C631.634 74.0909 631.102 74.1818 630.511 74.1818ZM636.165 74V65.2727H637.506V69.0682H638.392L641.528 65.2727H643.256L639.733 69.4773L643.301 74H641.574L638.71 70.3182H637.506V74H636.165Z" fill="white"/>
<rect x="880" y="47" width="141" height="43" rx="10" fill="#8684FF"/>
<path d="M902.295 62.3636V74H900.886V62.3636H902.295ZM894.432 74L898.205 67.9318L894.75 62.3636H896.455L899.477 67.5227H903.727L906.75 62.3636H908.455L904.977 67.9545L908.75 74H907.136L903.977 68.8409H899.205L896.023 74H894.432ZM913.621 74.1818C912.78 74.1818 912.054 73.9962 911.445 73.625C910.839 73.25 910.371 72.7273 910.041 72.0568C909.715 71.3826 909.553 70.5985 909.553 69.7045C909.553 68.8106 909.715 68.0227 910.041 67.3409C910.371 66.6553 910.829 66.1212 911.416 65.7386C912.007 65.3523 912.696 65.1591 913.484 65.1591C913.939 65.1591 914.388 65.2348 914.831 65.3864C915.274 65.5379 915.678 65.7841 916.041 66.125C916.405 66.4621 916.695 66.9091 916.911 67.4659C917.126 68.0227 917.234 68.7083 917.234 69.5227V70.0909H910.507V68.9318H915.871C915.871 68.4394 915.772 68 915.575 67.6136C915.382 67.2273 915.106 66.9223 914.746 66.6989C914.39 66.4754 913.969 66.3636 913.484 66.3636C912.95 66.3636 912.488 66.4962 912.098 66.7614C911.712 67.0227 911.414 67.3636 911.206 67.7841C910.998 68.2045 910.893 68.6553 910.893 69.1364V69.9091C910.893 70.5682 911.007 71.1269 911.234 71.5852C911.465 72.0398 911.786 72.3864 912.195 72.625C912.604 72.8598 913.079 72.9773 913.621 72.9773C913.973 72.9773 914.291 72.928 914.575 72.8295C914.863 72.7273 915.111 72.5758 915.32 72.375C915.528 72.1705 915.689 71.9167 915.803 71.6136L917.098 71.9773C916.962 72.4167 916.732 72.803 916.411 73.1364C916.089 73.4659 915.691 73.7235 915.217 73.9091C914.744 74.0909 914.212 74.1818 913.621 74.1818ZM918.501 74V72.75H918.82C919.081 72.75 919.299 72.6989 919.473 72.5966C919.647 72.4905 919.787 72.3068 919.893 72.0455C920.003 71.7803 920.087 71.4129 920.143 70.9432C920.204 70.4697 920.248 69.8674 920.274 69.1364L920.433 65.2727H926.251V74H924.911V66.5227H921.706L921.57 69.6364C921.539 70.3523 921.475 70.983 921.376 71.5284C921.282 72.0701 921.136 72.5246 920.939 72.892C920.746 73.2595 920.488 73.536 920.166 73.7216C919.844 73.9072 919.441 74 918.956 74H918.501ZM932.371 74.1818C931.53 74.1818 930.804 73.9962 930.195 73.625C929.589 73.25 929.121 72.7273 928.791 72.0568C928.465 71.3826 928.303 70.5985 928.303 69.7045C928.303 68.8106 928.465 68.0227 928.791 67.3409C929.121 66.6553 929.579 66.1212 930.166 65.7386C930.757 65.3523 931.446 65.1591 932.234 65.1591C932.689 65.1591 933.138 65.2348 933.581 65.3864C934.024 65.5379 934.428 65.7841 934.791 66.125C935.155 66.4621 935.445 66.9091 935.661 67.4659C935.876 68.0227 935.984 68.7083 935.984 69.5227V70.0909H929.257V68.9318H934.621C934.621 68.4394 934.522 68 934.325 67.6136C934.132 67.2273 933.856 66.9223 933.496 66.6989C933.14 66.4754 932.719 66.3636 932.234 66.3636C931.7 66.3636 931.238 66.4962 930.848 66.7614C930.462 67.0227 930.164 67.3636 929.956 67.7841C929.748 68.2045 929.643 68.6553 929.643 69.1364V69.9091C929.643 70.5682 929.757 71.1269 929.984 71.5852C930.215 72.0398 930.536 72.3864 930.945 72.625C931.354 72.8598 931.829 72.9773 932.371 72.9773C932.723 72.9773 933.041 72.928 933.325 72.8295C933.613 72.7273 933.861 72.5758 934.07 72.375C934.278 72.1705 934.439 71.9167 934.553 71.6136L935.848 71.9773C935.712 72.4167 935.482 72.803 935.161 73.1364C934.839 73.4659 934.441 73.7235 933.967 73.9091C933.494 74.0909 932.962 74.1818 932.371 74.1818ZM937.479 71.7727H938.911C938.941 72.1667 939.119 72.4659 939.445 72.6705C939.774 72.875 940.202 72.9773 940.729 72.9773C941.267 72.9773 941.727 72.8674 942.109 72.6477C942.492 72.4242 942.683 72.0644 942.683 71.5682C942.683 71.2765 942.611 71.0227 942.467 70.8068C942.323 70.5871 942.121 70.4167 941.859 70.2955C941.598 70.1742 941.289 70.1136 940.933 70.1136H939.433V68.9091H940.933C941.467 68.9091 941.861 68.7879 942.115 68.5455C942.373 68.303 942.501 68 942.501 67.6364C942.501 67.2462 942.363 66.9337 942.087 66.6989C941.81 66.4602 941.418 66.3409 940.911 66.3409C940.399 66.3409 939.973 66.4564 939.632 66.6875C939.291 66.9148 939.111 67.2083 939.092 67.5682H937.683C937.698 67.0985 937.842 66.6837 938.115 66.3239C938.388 65.9602 938.759 65.6761 939.229 65.4716C939.698 65.2633 940.236 65.1591 940.842 65.1591C941.456 65.1591 941.988 65.267 942.439 65.483C942.893 65.6951 943.244 65.9848 943.49 66.3523C943.74 66.7159 943.865 67.1288 943.865 67.5909C943.865 68.0833 943.727 68.4811 943.45 68.7841C943.174 69.0871 942.827 69.303 942.411 69.4318V69.5227C942.74 69.5455 943.026 69.6515 943.268 69.8409C943.515 70.0265 943.706 70.2708 943.842 70.5739C943.979 70.8731 944.047 71.2045 944.047 71.5682C944.047 72.0985 943.905 72.5606 943.621 72.9545C943.337 73.3447 942.946 73.6477 942.45 73.8636C941.954 74.0758 941.388 74.1818 940.751 74.1818C940.134 74.1818 939.581 74.0814 939.092 73.8807C938.604 73.6761 938.215 73.3939 937.928 73.0341C937.643 72.6705 937.494 72.25 937.479 71.7727ZM951.771 69.0227V70.2727H946.953V69.0227H951.771ZM947.271 65.2727V74H945.93V65.2727H947.271ZM952.794 65.2727V74H951.453V65.2727H952.794ZM956.402 68.4318H958.902C959.925 68.4318 960.707 68.6913 961.249 69.2102C961.79 69.7292 962.061 70.3864 962.061 71.1818C962.061 71.7045 961.94 72.1799 961.697 72.608C961.455 73.0322 961.099 73.3712 960.629 73.625C960.16 73.875 959.584 74 958.902 74H955.243V65.2727H956.584V72.75H958.902C959.432 72.75 959.868 72.6098 960.209 72.3295C960.55 72.0492 960.72 71.6894 960.72 71.25C960.72 70.7879 960.55 70.411 960.209 70.1193C959.868 69.8277 959.432 69.6818 958.902 69.6818H956.402V68.4318ZM963.447 74V65.2727H964.788V74H963.447ZM968.584 72.0227L972.788 65.2727H974.334V74H972.993V67.25L968.811 74H967.243V65.2727H968.584V72.0227ZM971.902 62.3636H973.152C973.152 62.9773 972.94 63.4792 972.516 63.8693C972.091 64.2595 971.516 64.4545 970.788 64.4545C970.072 64.4545 969.502 64.2595 969.078 63.8693C968.658 63.4792 968.447 62.9773 968.447 62.3636H969.697C969.697 62.6591 969.779 62.9186 969.942 63.142C970.108 63.3655 970.391 63.4773 970.788 63.4773C971.186 63.4773 971.47 63.3655 971.641 63.142C971.815 62.9186 971.902 62.6591 971.902 62.3636ZM981.29 74V65.2727H984.858C985.797 65.2727 986.544 65.4848 987.097 65.9091C987.65 66.3333 987.926 66.8939 987.926 67.5909C987.926 68.1212 987.769 68.5322 987.455 68.8239C987.14 69.1117 986.737 69.3068 986.244 69.4091C986.566 69.4545 986.879 69.5682 987.182 69.75C987.489 69.9318 987.742 70.1818 987.943 70.5C988.144 70.8144 988.244 71.2008 988.244 71.6591C988.244 72.1061 988.131 72.5057 987.903 72.858C987.676 73.2102 987.35 73.4886 986.926 73.6932C986.502 73.8977 985.994 74 985.403 74H981.29ZM982.562 72.7727H985.403C985.866 72.7727 986.227 72.6629 986.489 72.4432C986.75 72.2235 986.881 71.9242 986.881 71.5455C986.881 71.0947 986.75 70.7405 986.489 70.483C986.227 70.2216 985.866 70.0909 985.403 70.0909H982.562V72.7727ZM982.562 68.9318H984.858C985.218 68.9318 985.527 68.8826 985.784 68.7841C986.042 68.6818 986.239 68.5379 986.375 68.3523C986.515 68.1629 986.585 67.9394 986.585 67.6818C986.585 67.3144 986.432 67.0265 986.125 66.8182C985.818 66.6061 985.396 66.5 984.858 66.5H982.562V68.9318ZM993.933 74.1818C993.092 74.1818 992.367 73.9962 991.757 73.625C991.151 73.25 990.683 72.7273 990.354 72.0568C990.028 71.3826 989.865 70.5985 989.865 69.7045C989.865 68.8106 990.028 68.0227 990.354 67.3409C990.683 66.6553 991.142 66.1212 991.729 65.7386C992.32 65.3523 993.009 65.1591 993.797 65.1591C994.251 65.1591 994.7 65.2348 995.143 65.3864C995.587 65.5379 995.99 65.7841 996.354 66.125C996.717 66.4621 997.007 66.9091 997.223 67.4659C997.439 68.0227 997.547 68.7083 997.547 69.5227V70.0909H990.82V68.9318H996.183C996.183 68.4394 996.085 68 995.888 67.6136C995.695 67.2273 995.418 66.9223 995.058 66.6989C994.702 66.4754 994.282 66.3636 993.797 66.3636C993.263 66.3636 992.801 66.4962 992.411 66.7614C992.024 67.0227 991.727 67.3636 991.518 67.7841C991.31 68.2045 991.206 68.6553 991.206 69.1364V69.9091C991.206 70.5682 991.32 71.1269 991.547 71.5852C991.778 72.0398 992.098 72.3864 992.507 72.625C992.916 72.8598 993.392 72.9773 993.933 72.9773C994.286 72.9773 994.604 72.928 994.888 72.8295C995.176 72.7273 995.424 72.5758 995.632 72.375C995.84 72.1705 996.001 71.9167 996.115 71.6136L997.411 71.9773C997.274 72.4167 997.045 72.803 996.723 73.1364C996.401 73.4659 996.003 73.7235 995.53 73.9091C995.056 74.0909 994.524 74.1818 993.933 74.1818ZM999.587 74V65.2727H1000.93V69.0682H1001.81L1004.95 65.2727H1006.68L1003.15 69.4773L1006.72 74H1005L1002.13 70.3182H1000.93V74H999.587Z" fill="white"/>
<circle cx="61.5" cy="134.5" r="13.5" fill="white"/>
<circle cx="61.5" cy="134.5" r="13.5" fill="white"/>
<path d="M33.2436 168V166.977L37.0845 162.773C37.5353 162.28 37.9065 161.852 38.1982 161.489C38.4898 161.121 38.7057 160.777 38.8459 160.455C38.9898 160.129 39.0618 159.788 39.0618 159.432C39.0618 159.023 38.9633 158.669 38.7663 158.369C38.5732 158.07 38.308 157.839 37.9709 157.676C37.6338 157.513 37.255 157.432 36.8345 157.432C36.3875 157.432 35.9974 157.525 35.6641 157.71C35.3345 157.892 35.0788 158.148 34.897 158.477C34.719 158.807 34.63 159.193 34.63 159.636H33.2891C33.2891 158.955 33.4463 158.356 33.7607 157.841C34.075 157.326 34.5031 156.924 35.0447 156.636C35.5902 156.348 36.2019 156.205 36.88 156.205C37.5618 156.205 38.166 156.348 38.6925 156.636C39.219 156.924 39.6319 157.312 39.9311 157.801C40.2304 158.29 40.38 158.833 40.38 159.432C40.38 159.86 40.3023 160.278 40.147 160.688C39.9955 161.093 39.7304 161.545 39.3516 162.045C38.9766 162.542 38.4557 163.148 37.7891 163.864L35.1754 166.659V166.75H40.5845V168H33.2436ZM43.9311 168.091C43.6508 168.091 43.4103 167.991 43.2095 167.79C43.0088 167.589 42.9084 167.348 42.9084 167.068C42.9084 166.788 43.0088 166.547 43.2095 166.347C43.4103 166.146 43.6508 166.045 43.9311 166.045C44.2114 166.045 44.4519 166.146 44.6527 166.347C44.8535 166.547 44.9538 166.788 44.9538 167.068C44.9538 167.254 44.9065 167.424 44.8118 167.58C44.7209 167.735 44.5978 167.86 44.4425 167.955C44.291 168.045 44.1205 168.091 43.9311 168.091ZM50.7947 168.159C50.3175 168.152 49.8402 168.061 49.3629 167.886C48.8857 167.712 48.45 167.419 48.0561 167.006C47.6622 166.589 47.3459 166.027 47.1072 165.318C46.8686 164.606 46.7493 163.712 46.7493 162.636C46.7493 161.606 46.8459 160.693 47.0391 159.898C47.2322 159.098 47.5125 158.426 47.88 157.881C48.2474 157.331 48.6906 156.915 49.2095 156.631C49.7322 156.347 50.3213 156.205 50.9766 156.205C51.6281 156.205 52.2076 156.335 52.7152 156.597C53.2266 156.854 53.6432 157.214 53.9652 157.676C54.2872 158.138 54.4955 158.67 54.5902 159.273H53.2038C53.075 158.75 52.825 158.316 52.4538 157.972C52.0826 157.627 51.5902 157.455 50.9766 157.455C50.075 157.455 49.3648 157.847 48.8459 158.631C48.3307 159.415 48.0713 160.515 48.0675 161.932H48.1584C48.3705 161.61 48.6224 161.335 48.9141 161.108C49.2095 160.877 49.5353 160.699 49.8913 160.574C50.2474 160.449 50.6243 160.386 51.022 160.386C51.6887 160.386 52.2985 160.553 52.8516 160.886C53.4046 161.216 53.8478 161.672 54.1811 162.256C54.5144 162.835 54.6811 163.5 54.6811 164.25C54.6811 164.97 54.5201 165.629 54.1982 166.227C53.8762 166.822 53.4235 167.295 52.8402 167.648C52.2607 167.996 51.5788 168.167 50.7947 168.159ZM50.7947 166.909C51.272 166.909 51.7 166.79 52.0788 166.551C52.4614 166.312 52.7625 165.992 52.9822 165.591C53.2057 165.189 53.3175 164.742 53.3175 164.25C53.3175 163.769 53.2095 163.331 52.9936 162.938C52.7815 162.54 52.4879 162.223 52.1129 161.989C51.7417 161.754 51.3175 161.636 50.8402 161.636C50.4804 161.636 50.1451 161.708 49.8345 161.852C49.5239 161.992 49.2512 162.186 49.0163 162.432C48.7853 162.678 48.6035 162.96 48.4709 163.278C48.3383 163.593 48.272 163.924 48.272 164.273C48.272 164.735 48.38 165.167 48.5959 165.568C48.8156 165.97 49.1148 166.294 49.4936 166.54C49.8762 166.786 50.3099 166.909 50.7947 166.909ZM66.2109 166.182L69.2564 159.273H70.5291L66.7564 168H65.6655L61.9609 159.273H63.2109L66.2109 166.182ZM62.7791 159.273V168H61.4382V159.273H62.7791ZM69.6428 168V159.273H70.9837V168H69.6428ZM72.6655 168V166.75H72.9837C73.245 166.75 73.4628 166.699 73.6371 166.597C73.8113 166.491 73.9515 166.307 74.0575 166.045C74.1674 165.78 74.2507 165.413 74.3075 164.943C74.3681 164.47 74.4117 163.867 74.4382 163.136L74.5973 159.273H80.4155V168H79.0746V160.523H75.87L75.7337 163.636C75.7034 164.352 75.639 164.983 75.5405 165.528C75.4458 166.07 75.3 166.525 75.103 166.892C74.9098 167.259 74.6522 167.536 74.3303 167.722C74.0083 167.907 73.6049 168 73.12 168H72.6655ZM88.7166 163.023V164.273H83.8984V163.023H88.7166ZM84.2166 159.273V168H82.8757V159.273H84.2166ZM89.7393 159.273V168H88.3984V159.273H89.7393ZM23.0092 187V185.75H23.3274C23.5888 185.75 23.8066 185.699 23.9808 185.597C24.1551 185.491 24.2952 185.307 24.4013 185.045C24.5111 184.78 24.5945 184.413 24.6513 183.943C24.7119 183.47 24.7554 182.867 24.782 182.136L24.9411 178.273H30.7592V187H29.4183V179.523H26.2138L26.0774 182.636C26.0471 183.352 25.9827 183.983 25.8842 184.528C25.7895 185.07 25.6437 185.525 25.4467 185.892C25.2536 186.259 24.996 186.536 24.674 186.722C24.352 186.907 23.9486 187 23.4638 187H23.0092ZM36.8786 187.182C36.0376 187.182 35.3123 186.996 34.7024 186.625C34.0964 186.25 33.6286 185.727 33.299 185.057C32.9732 184.383 32.8104 183.598 32.8104 182.705C32.8104 181.811 32.9732 181.023 33.299 180.341C33.6286 179.655 34.0869 179.121 34.674 178.739C35.2649 178.352 35.9543 178.159 36.7422 178.159C37.1967 178.159 37.6456 178.235 38.0888 178.386C38.532 178.538 38.9354 178.784 39.299 179.125C39.6626 179.462 39.9524 179.909 40.1683 180.466C40.3842 181.023 40.4922 181.708 40.4922 182.523V183.091H33.7649V181.932H39.1286C39.1286 181.439 39.0301 181 38.8331 180.614C38.6399 180.227 38.3634 179.922 38.0036 179.699C37.6475 179.475 37.227 179.364 36.7422 179.364C36.2081 179.364 35.746 179.496 35.3558 179.761C34.9695 180.023 34.6721 180.364 34.4638 180.784C34.2554 181.205 34.1513 181.655 34.1513 182.136V182.909C34.1513 183.568 34.2649 184.127 34.4922 184.585C34.7232 185.04 35.0433 185.386 35.4524 185.625C35.8615 185.86 36.3369 185.977 36.8786 185.977C37.2308 185.977 37.549 185.928 37.8331 185.83C38.121 185.727 38.3691 185.576 38.5774 185.375C38.7857 185.17 38.9467 184.917 39.0604 184.614L40.3558 184.977C40.2195 185.417 39.9903 185.803 39.6683 186.136C39.3464 186.466 38.9486 186.723 38.4751 186.909C38.0017 187.091 37.4695 187.182 36.8786 187.182ZM41.7195 179.523V178.273H48.8104V179.523H45.9467V187H44.6058V179.523H41.7195ZM54.3345 189.5V185.75H55.0618C55.2398 185.564 55.3932 185.364 55.522 185.148C55.6508 184.932 55.7625 184.676 55.8572 184.381C55.9557 184.081 56.0391 183.718 56.1072 183.29C56.1754 182.858 56.236 182.337 56.2891 181.727L56.5845 178.273H62.13V185.75H63.4709V189.5H62.13V187H55.6754V189.5H54.3345ZM56.5845 185.75H60.7891V179.523H57.8345L57.6072 181.727C57.5125 182.64 57.3951 183.437 57.255 184.119C57.1148 184.801 56.8913 185.345 56.5845 185.75ZM68.7962 187.182C68.0083 187.182 67.317 186.994 66.7223 186.619C66.1314 186.244 65.6693 185.72 65.3359 185.045C65.0064 184.371 64.8416 183.583 64.8416 182.682C64.8416 181.773 65.0064 180.979 65.3359 180.301C65.6693 179.623 66.1314 179.097 66.7223 178.722C67.317 178.347 68.0083 178.159 68.7962 178.159C69.584 178.159 70.2734 178.347 70.8643 178.722C71.459 179.097 71.9212 179.623 72.2507 180.301C72.584 180.979 72.7507 181.773 72.7507 182.682C72.7507 183.583 72.584 184.371 72.2507 185.045C71.9212 185.72 71.459 186.244 70.8643 186.619C70.2734 186.994 69.584 187.182 68.7962 187.182ZM68.7962 185.977C69.3946 185.977 69.8871 185.824 70.2734 185.517C70.6598 185.21 70.9458 184.807 71.1314 184.307C71.317 183.807 71.4098 183.265 71.4098 182.682C71.4098 182.098 71.317 181.555 71.1314 181.051C70.9458 180.547 70.6598 180.14 70.2734 179.83C69.8871 179.519 69.3946 179.364 68.7962 179.364C68.1977 179.364 67.7053 179.519 67.3189 179.83C66.9325 180.14 66.6465 180.547 66.4609 181.051C66.2753 181.555 66.1825 182.098 66.1825 182.682C66.1825 183.265 66.2753 183.807 66.4609 184.307C66.6465 184.807 66.9325 185.21 67.3189 185.517C67.7053 185.824 68.1977 185.977 68.7962 185.977ZM85.1385 182.023V183.273H80.3203V182.023H85.1385ZM80.6385 178.273V187H79.2976V178.273H80.6385ZM86.1612 178.273V187H84.8203V178.273H86.1612ZM89.5874 187.091C89.3071 187.091 89.0665 186.991 88.8658 186.79C88.665 186.589 88.5646 186.348 88.5646 186.068C88.5646 185.788 88.665 185.547 88.8658 185.347C89.0665 185.146 89.3071 185.045 89.5874 185.045C89.8677 185.045 90.1082 185.146 90.3089 185.347C90.5097 185.547 90.6101 185.788 90.6101 186.068C90.6101 186.254 90.5627 186.424 90.468 186.58C90.3771 186.735 90.254 186.86 90.0987 186.955C89.9472 187.045 89.7768 187.091 89.5874 187.091ZM95.9027 179.409C95.5997 179.413 95.2947 179.491 94.9879 179.642C94.6849 179.794 94.4311 179.994 94.2266 180.244C94.0258 180.491 93.9254 180.765 93.9254 181.068H92.6072C92.6072 180.689 92.6982 180.326 92.88 179.977C93.0618 179.629 93.3061 179.318 93.6129 179.045C93.9235 178.773 94.2758 178.557 94.6697 178.398C95.0675 178.239 95.4785 178.159 95.9027 178.159C96.6982 178.159 97.3724 178.36 97.9254 178.761C98.4822 179.163 98.9046 179.693 99.1925 180.352C99.4841 181.011 99.63 181.727 99.63 182.5V182.818C99.63 183.587 99.4841 184.303 99.1925 184.966C98.9046 185.625 98.4822 186.155 97.9254 186.557C97.3724 186.958 96.6982 187.159 95.9027 187.159C95.2663 187.159 94.7 187.019 94.2038 186.739C93.7076 186.455 93.3175 186.076 93.0334 185.602C92.7493 185.129 92.6072 184.602 92.6072 184.023H93.9254C93.9254 184.352 94.0182 184.661 94.2038 184.949C94.3932 185.233 94.6375 185.464 94.9368 185.642C95.2398 185.816 95.5618 185.905 95.9027 185.909C96.4103 185.905 96.8421 185.746 97.1982 185.432C97.5542 185.117 97.825 184.723 98.0107 184.25C98.1963 183.777 98.2891 183.299 98.2891 182.818V182.5C98.2891 182.008 98.1963 181.527 98.0107 181.057C97.8288 180.583 97.5599 180.191 97.2038 179.881C96.8516 179.57 96.4179 179.413 95.9027 179.409ZM98.8345 181.977V183.227H95.0163V181.977H98.8345Z" fill="#8684FF"/>
<circle cx="409.167" cy="134.5" r="13.5" fill="white"/>
<circle cx="409.167" cy="134.5" r="13.5" fill="white"/>
<path d="M386.332 168V166.977L390.173 162.773C390.624 162.28 390.995 161.852 391.287 161.489C391.578 161.121 391.794 160.777 391.934 160.455C392.078 160.129 392.15 159.788 392.15 159.432C392.15 159.023 392.052 158.669 391.855 158.369C391.662 158.07 391.396 157.839 391.059 157.676C390.722 157.513 390.343 157.432 389.923 157.432C389.476 157.432 389.086 157.525 388.752 157.71C388.423 157.892 388.167 158.148 387.985 158.477C387.807 158.807 387.718 159.193 387.718 159.636H386.377C386.377 158.955 386.535 158.356 386.849 157.841C387.163 157.326 387.591 156.924 388.133 156.636C388.679 156.348 389.29 156.205 389.968 156.205C390.65 156.205 391.254 156.348 391.781 156.636C392.307 156.924 392.72 157.312 393.019 157.801C393.319 158.29 393.468 158.833 393.468 159.432C393.468 159.86 393.391 160.278 393.235 160.688C393.084 161.093 392.819 161.545 392.44 162.045C392.065 162.542 391.544 163.148 390.877 163.864L388.264 166.659V166.75H393.673V168H386.332ZM400.042 160.523V159.273H407.133V160.523H404.269V168H402.929V160.523H400.042ZM410.248 162.432H412.748C413.771 162.432 414.553 162.691 415.095 163.21C415.636 163.729 415.907 164.386 415.907 165.182C415.907 165.705 415.786 166.18 415.544 166.608C415.301 167.032 414.945 167.371 414.475 167.625C414.006 167.875 413.43 168 412.748 168H409.089V159.273H410.43V166.75H412.748C413.278 166.75 413.714 166.61 414.055 166.33C414.396 166.049 414.566 165.689 414.566 165.25C414.566 164.788 414.396 164.411 414.055 164.119C413.714 163.828 413.278 163.682 412.748 163.682H410.248V162.432ZM417.294 168V159.273H418.635V168H417.294ZM424.635 168.182C423.816 168.182 423.112 167.989 422.521 167.602C421.93 167.216 421.475 166.684 421.157 166.006C420.839 165.328 420.68 164.553 420.68 163.682C420.68 162.795 420.843 162.013 421.169 161.335C421.498 160.653 421.957 160.121 422.544 159.739C423.135 159.352 423.824 159.159 424.612 159.159C425.225 159.159 425.778 159.273 426.271 159.5C426.763 159.727 427.167 160.045 427.481 160.455C427.796 160.864 427.991 161.341 428.066 161.886H426.725C426.623 161.489 426.396 161.136 426.044 160.83C425.695 160.519 425.225 160.364 424.635 160.364C424.112 160.364 423.653 160.5 423.26 160.773C422.869 161.042 422.564 161.422 422.345 161.915C422.129 162.403 422.021 162.977 422.021 163.636C422.021 164.311 422.127 164.898 422.339 165.398C422.555 165.898 422.858 166.286 423.248 166.562C423.642 166.839 424.104 166.977 424.635 166.977C424.983 166.977 425.299 166.917 425.583 166.795C425.867 166.674 426.108 166.5 426.305 166.273C426.502 166.045 426.642 165.773 426.725 165.455H428.066C427.991 165.97 427.803 166.434 427.504 166.847C427.208 167.256 426.816 167.581 426.328 167.824C425.843 168.062 425.278 168.182 424.635 168.182ZM431.004 168.091C430.724 168.091 430.483 167.991 430.282 167.79C430.082 167.589 429.981 167.348 429.981 167.068C429.981 166.788 430.082 166.547 430.282 166.347C430.483 166.146 430.724 166.045 431.004 166.045C431.284 166.045 431.525 166.146 431.725 166.347C431.926 166.547 432.027 166.788 432.027 167.068C432.027 167.254 431.979 167.424 431.885 167.58C431.794 167.735 431.671 167.86 431.515 167.955C431.364 168.045 431.193 168.091 431.004 168.091ZM370.676 187V185.75H370.994C371.255 185.75 371.473 185.699 371.647 185.597C371.822 185.491 371.962 185.307 372.068 185.045C372.178 184.78 372.261 184.413 372.318 183.943C372.378 183.47 372.422 182.867 372.448 182.136L372.608 178.273H378.426V187H377.085V179.523H373.88L373.744 182.636C373.714 183.352 373.649 183.983 373.551 184.528C373.456 185.07 373.31 185.525 373.113 185.892C372.92 186.259 372.662 186.536 372.341 186.722C372.019 186.907 371.615 187 371.13 187H370.676ZM384.545 187.182C383.704 187.182 382.979 186.996 382.369 186.625C381.763 186.25 381.295 185.727 380.966 185.057C380.64 184.383 380.477 183.598 380.477 182.705C380.477 181.811 380.64 181.023 380.966 180.341C381.295 179.655 381.753 179.121 382.341 178.739C382.931 178.352 383.621 178.159 384.409 178.159C384.863 178.159 385.312 178.235 385.755 178.386C386.198 178.538 386.602 178.784 386.966 179.125C387.329 179.462 387.619 179.909 387.835 180.466C388.051 181.023 388.159 181.708 388.159 182.523V183.091H381.431V181.932H386.795C386.795 181.439 386.697 181 386.5 180.614C386.306 180.227 386.03 179.922 385.67 179.699C385.314 179.475 384.894 179.364 384.409 179.364C383.875 179.364 383.412 179.496 383.022 179.761C382.636 180.023 382.339 180.364 382.13 180.784C381.922 181.205 381.818 181.655 381.818 182.136V182.909C381.818 183.568 381.931 184.127 382.159 184.585C382.39 185.04 382.71 185.386 383.119 185.625C383.528 185.86 384.003 185.977 384.545 185.977C384.897 185.977 385.216 185.928 385.5 185.83C385.787 185.727 386.036 185.576 386.244 185.375C386.452 185.17 386.613 184.917 386.727 184.614L388.022 184.977C387.886 185.417 387.657 185.803 387.335 186.136C387.013 186.466 386.615 186.723 386.142 186.909C385.668 187.091 385.136 187.182 384.545 187.182ZM389.386 179.523V178.273H396.477V179.523H393.613V187H392.272V179.523H389.386ZM402.001 189.5V185.75H402.728C402.906 185.564 403.06 185.364 403.189 185.148C403.317 184.932 403.429 184.676 403.524 184.381C403.622 184.081 403.706 183.718 403.774 183.29C403.842 182.858 403.903 182.337 403.956 181.727L404.251 178.273H409.796V185.75H411.137V189.5H409.796V187H403.342V189.5H402.001ZM404.251 185.75H408.456V179.523H405.501L405.274 181.727C405.179 182.64 405.062 183.437 404.921 184.119C404.781 184.801 404.558 185.345 404.251 185.75ZM416.463 187.182C415.675 187.182 414.984 186.994 414.389 186.619C413.798 186.244 413.336 185.72 413.002 185.045C412.673 184.371 412.508 183.583 412.508 182.682C412.508 181.773 412.673 180.979 413.002 180.301C413.336 179.623 413.798 179.097 414.389 178.722C414.984 178.347 415.675 178.159 416.463 178.159C417.251 178.159 417.94 178.347 418.531 178.722C419.126 179.097 419.588 179.623 419.917 180.301C420.251 180.979 420.417 181.773 420.417 182.682C420.417 183.583 420.251 184.371 419.917 185.045C419.588 185.72 419.126 186.244 418.531 186.619C417.94 186.994 417.251 187.182 416.463 187.182ZM416.463 185.977C417.061 185.977 417.554 185.824 417.94 185.517C418.326 185.21 418.612 184.807 418.798 184.307C418.984 183.807 419.076 183.265 419.076 182.682C419.076 182.098 418.984 181.555 418.798 181.051C418.612 180.547 418.326 180.14 417.94 179.83C417.554 179.519 417.061 179.364 416.463 179.364C415.864 179.364 415.372 179.519 414.985 179.83C414.599 180.14 414.313 180.547 414.127 181.051C413.942 181.555 413.849 182.098 413.849 182.682C413.849 183.265 413.942 183.807 414.127 184.307C414.313 184.807 414.599 185.21 414.985 185.517C415.372 185.824 415.864 185.977 416.463 185.977ZM432.805 182.023V183.273H427.987V182.023H432.805ZM428.305 178.273V187H426.964V178.273H428.305ZM433.828 178.273V187H432.487V178.273H433.828ZM437.254 187.091C436.974 187.091 436.733 186.991 436.532 186.79C436.332 186.589 436.231 186.348 436.231 186.068C436.231 185.788 436.332 185.547 436.532 185.347C436.733 185.146 436.974 185.045 437.254 185.045C437.534 185.045 437.775 185.146 437.975 185.347C438.176 185.547 438.277 185.788 438.277 186.068C438.277 186.254 438.229 186.424 438.135 186.58C438.044 186.735 437.921 186.86 437.765 186.955C437.614 187.045 437.443 187.091 437.254 187.091ZM443.569 179.409C443.266 179.413 442.961 179.491 442.654 179.642C442.351 179.794 442.098 179.994 441.893 180.244C441.692 180.491 441.592 180.765 441.592 181.068H440.274C440.274 180.689 440.365 180.326 440.546 179.977C440.728 179.629 440.973 179.318 441.279 179.045C441.59 178.773 441.942 178.557 442.336 178.398C442.734 178.239 443.145 178.159 443.569 178.159C444.365 178.159 445.039 178.36 445.592 178.761C446.149 179.163 446.571 179.693 446.859 180.352C447.151 181.011 447.296 181.727 447.296 182.5V182.818C447.296 183.587 447.151 184.303 446.859 184.966C446.571 185.625 446.149 186.155 445.592 186.557C445.039 186.958 444.365 187.159 443.569 187.159C442.933 187.159 442.367 187.019 441.87 186.739C441.374 186.455 440.984 186.076 440.7 185.602C440.416 185.129 440.274 184.602 440.274 184.023H441.592C441.592 184.352 441.685 184.661 441.87 184.949C442.06 185.233 442.304 185.464 442.603 185.642C442.906 185.816 443.228 185.905 443.569 185.909C444.077 185.905 444.509 185.746 444.865 185.432C445.221 185.117 445.492 184.723 445.677 184.25C445.863 183.777 445.956 183.299 445.956 182.818V182.5C445.956 182.008 445.863 181.527 445.677 181.057C445.495 180.583 445.226 180.191 444.87 179.881C444.518 179.57 444.084 179.413 443.569 179.409ZM446.501 181.977V183.227H442.683V181.977H446.501Z" fill="#8684FF"/>
<circle cx="756.833" cy="134.5" r="13.5" fill="white"/>
<circle cx="756.833" cy="134.5" r="13.5" fill="white"/>
<path d="M723.473 156.364V168H722.064V157.841H721.995L719.155 159.727V158.295L722.064 156.364H723.473ZM730.842 160.523V159.273H737.933V160.523H735.069V168H733.728V160.523H730.842ZM741.048 162.432H743.548C744.571 162.432 745.353 162.691 745.895 163.21C746.436 163.729 746.707 164.386 746.707 165.182C746.707 165.705 746.586 166.18 746.343 166.608C746.101 167.032 745.745 167.371 745.275 167.625C744.806 167.875 744.23 168 743.548 168H739.889V159.273H741.23V166.75H743.548C744.078 166.75 744.514 166.61 744.855 166.33C745.196 166.049 745.366 165.689 745.366 165.25C745.366 164.788 745.196 164.411 744.855 164.119C744.514 163.828 744.078 163.682 743.548 163.682H741.048V162.432ZM748.093 168V159.273H749.434V168H748.093ZM755.434 168.182C754.616 168.182 753.912 167.989 753.321 167.602C752.73 167.216 752.275 166.684 751.957 166.006C751.639 165.328 751.48 164.553 751.48 163.682C751.48 162.795 751.643 162.013 751.968 161.335C752.298 160.653 752.756 160.121 753.343 159.739C753.934 159.352 754.624 159.159 755.412 159.159C756.025 159.159 756.578 159.273 757.071 159.5C757.563 159.727 757.967 160.045 758.281 160.455C758.595 160.864 758.79 161.341 758.866 161.886H757.525C757.423 161.489 757.196 161.136 756.843 160.83C756.495 160.519 756.025 160.364 755.434 160.364C754.912 160.364 754.453 160.5 754.059 160.773C753.669 161.042 753.364 161.422 753.145 161.915C752.929 162.403 752.821 162.977 752.821 163.636C752.821 164.311 752.927 164.898 753.139 165.398C753.355 165.898 753.658 166.286 754.048 166.562C754.442 166.839 754.904 166.977 755.434 166.977C755.783 166.977 756.099 166.917 756.383 166.795C756.667 166.674 756.908 166.5 757.105 166.273C757.302 166.045 757.442 165.773 757.525 165.455H758.866C758.79 165.97 758.603 166.434 758.304 166.847C758.008 167.256 757.616 167.581 757.128 167.824C756.643 168.062 756.078 168.182 755.434 168.182ZM761.804 168.091C761.523 168.091 761.283 167.991 761.082 167.79C760.881 167.589 760.781 167.348 760.781 167.068C760.781 166.788 760.881 166.547 761.082 166.347C761.283 166.146 761.523 166.045 761.804 166.045C762.084 166.045 762.324 166.146 762.525 166.347C762.726 166.547 762.826 166.788 762.826 167.068C762.826 167.254 762.779 167.424 762.684 167.58C762.593 167.735 762.47 167.86 762.315 167.955C762.164 168.045 761.993 168.091 761.804 168.091ZM768.96 168V166.75H769.278C769.539 166.75 769.757 166.699 769.932 166.597C770.106 166.491 770.246 166.307 770.352 166.045C770.462 165.78 770.545 165.413 770.602 164.943C770.663 164.47 770.706 163.867 770.733 163.136L770.892 159.273H776.71V168H775.369V160.523H772.164L772.028 163.636C771.998 164.352 771.933 164.983 771.835 165.528C771.74 166.07 771.594 166.525 771.397 166.892C771.204 167.259 770.947 167.536 770.625 167.722C770.303 167.907 769.899 168 769.414 168H768.96ZM782.829 168.182C781.988 168.182 781.263 167.996 780.653 167.625C780.047 167.25 779.579 166.727 779.25 166.057C778.924 165.383 778.761 164.598 778.761 163.705C778.761 162.811 778.924 162.023 779.25 161.341C779.579 160.655 780.038 160.121 780.625 159.739C781.216 159.352 781.905 159.159 782.693 159.159C783.147 159.159 783.596 159.235 784.039 159.386C784.483 159.538 784.886 159.784 785.25 160.125C785.613 160.462 785.903 160.909 786.119 161.466C786.335 162.023 786.443 162.708 786.443 163.523V164.091H779.716V162.932H785.079C785.079 162.439 784.981 162 784.784 161.614C784.591 161.227 784.314 160.922 783.954 160.699C783.598 160.475 783.178 160.364 782.693 160.364C782.159 160.364 781.697 160.496 781.307 160.761C780.92 161.023 780.623 161.364 780.414 161.784C780.206 162.205 780.102 162.655 780.102 163.136V163.909C780.102 164.568 780.216 165.127 780.443 165.585C780.674 166.04 780.994 166.386 781.403 166.625C781.812 166.86 782.288 166.977 782.829 166.977C783.182 166.977 783.5 166.928 783.784 166.83C784.072 166.727 784.32 166.576 784.528 166.375C784.736 166.17 784.897 165.917 785.011 165.614L786.307 165.977C786.17 166.417 785.941 166.803 785.619 167.136C785.297 167.466 784.899 167.723 784.426 167.909C783.952 168.091 783.42 168.182 782.829 168.182ZM787.67 160.523V159.273H794.761V160.523H791.897V168H790.557V160.523H787.67ZM733.926 189.5V185.75H734.653C734.831 185.564 734.985 185.364 735.113 185.148C735.242 184.932 735.354 184.676 735.449 184.381C735.547 184.081 735.63 183.718 735.699 183.29C735.767 182.858 735.827 182.337 735.88 181.727L736.176 178.273H741.721V185.75H743.062V189.5H741.721V187H735.267V189.5H733.926ZM736.176 185.75H740.38V179.523H737.426L737.199 181.727C737.104 182.64 736.986 183.437 736.846 184.119C736.706 184.801 736.483 185.345 736.176 185.75ZM748.387 187.182C747.6 187.182 746.908 186.994 746.314 186.619C745.723 186.244 745.261 185.72 744.927 185.045C744.598 184.371 744.433 183.583 744.433 182.682C744.433 181.773 744.598 180.979 744.927 180.301C745.261 179.623 745.723 179.097 746.314 178.722C746.908 178.347 747.6 178.159 748.387 178.159C749.175 178.159 749.865 178.347 750.456 178.722C751.05 179.097 751.512 179.623 751.842 180.301C752.175 180.979 752.342 181.773 752.342 182.682C752.342 183.583 752.175 184.371 751.842 185.045C751.512 185.72 751.05 186.244 750.456 186.619C749.865 186.994 749.175 187.182 748.387 187.182ZM748.387 185.977C748.986 185.977 749.478 185.824 749.865 185.517C750.251 185.21 750.537 184.807 750.723 184.307C750.908 183.807 751.001 183.265 751.001 182.682C751.001 182.098 750.908 181.555 750.723 181.051C750.537 180.547 750.251 180.14 749.865 179.83C749.478 179.519 748.986 179.364 748.387 179.364C747.789 179.364 747.297 179.519 746.91 179.83C746.524 180.14 746.238 180.547 746.052 181.051C745.867 181.555 745.774 182.098 745.774 182.682C745.774 183.265 745.867 183.807 746.052 184.307C746.238 184.807 746.524 185.21 746.91 185.517C747.297 185.824 747.789 185.977 748.387 185.977ZM764.73 182.023V183.273H759.912V182.023H764.73ZM760.23 178.273V187H758.889V178.273H760.23ZM765.753 178.273V187H764.412V178.273H765.753ZM769.179 187.091C768.898 187.091 768.658 186.991 768.457 186.79C768.256 186.589 768.156 186.348 768.156 186.068C768.156 185.788 768.256 185.547 768.457 185.347C768.658 185.146 768.898 185.045 769.179 185.045C769.459 185.045 769.699 185.146 769.9 185.347C770.101 185.547 770.201 185.788 770.201 186.068C770.201 186.254 770.154 186.424 770.059 186.58C769.968 186.735 769.845 186.86 769.69 186.955C769.539 187.045 769.368 187.091 769.179 187.091ZM775.494 179.409C775.191 179.413 774.886 179.491 774.579 179.642C774.276 179.794 774.022 179.994 773.818 180.244C773.617 180.491 773.517 180.765 773.517 181.068H772.199C772.199 180.689 772.289 180.326 772.471 179.977C772.653 179.629 772.897 179.318 773.204 179.045C773.515 178.773 773.867 178.557 774.261 178.398C774.659 178.239 775.07 178.159 775.494 178.159C776.289 178.159 776.964 178.36 777.517 178.761C778.074 179.163 778.496 179.693 778.784 180.352C779.075 181.011 779.221 181.727 779.221 182.5V182.818C779.221 183.587 779.075 184.303 778.784 184.966C778.496 185.625 778.074 186.155 777.517 186.557C776.964 186.958 776.289 187.159 775.494 187.159C774.858 187.159 774.291 187.019 773.795 186.739C773.299 186.455 772.909 186.076 772.625 185.602C772.341 185.129 772.199 184.602 772.199 184.023H773.517C773.517 184.352 773.61 184.661 773.795 184.949C773.985 185.233 774.229 185.464 774.528 185.642C774.831 185.816 775.153 185.905 775.494 185.909C776.002 185.905 776.433 185.746 776.789 185.432C777.146 185.117 777.416 184.723 777.602 184.25C777.788 183.777 777.88 183.299 777.88 182.818V182.5C777.88 182.008 777.788 181.527 777.602 181.057C777.42 180.583 777.151 180.191 776.795 179.881C776.443 179.57 776.009 179.413 775.494 179.409ZM778.426 181.977V183.227H774.608V181.977H778.426Z" fill="#8684FF"/>
<circle cx="1106.5" cy="134.5" r="13.5" fill="white"/>
<circle cx="1106.5" cy="134.5" r="13.5" fill="white"/>
<path d="M1072.64 156.364V168H1071.23V157.841H1071.16L1068.32 159.727V158.295L1071.23 156.364H1072.64ZM1080.01 160.523V159.273H1087.1V160.523H1084.24V168H1082.89V160.523H1080.01ZM1090.21 162.432H1092.71C1093.74 162.432 1094.52 162.691 1095.06 163.21C1095.6 163.729 1095.87 164.386 1095.87 165.182C1095.87 165.705 1095.75 166.18 1095.51 166.608C1095.27 167.032 1094.91 167.371 1094.44 167.625C1093.97 167.875 1093.4 168 1092.71 168H1089.06V159.273H1090.4V166.75H1092.71C1093.24 166.75 1093.68 166.61 1094.02 166.33C1094.36 166.049 1094.53 165.689 1094.53 165.25C1094.53 164.788 1094.36 164.411 1094.02 164.119C1093.68 163.828 1093.24 163.682 1092.71 163.682H1090.21V162.432ZM1097.26 168V159.273H1098.6V168H1097.26ZM1104.6 168.182C1103.78 168.182 1103.08 167.989 1102.49 167.602C1101.9 167.216 1101.44 166.684 1101.12 166.006C1100.81 165.328 1100.65 164.553 1100.65 163.682C1100.65 162.795 1100.81 162.013 1101.13 161.335C1101.46 160.653 1101.92 160.121 1102.51 159.739C1103.1 159.352 1103.79 159.159 1104.58 159.159C1105.19 159.159 1105.74 159.273 1106.24 159.5C1106.73 159.727 1107.13 160.045 1107.45 160.455C1107.76 160.864 1107.96 161.341 1108.03 161.886H1106.69C1106.59 161.489 1106.36 161.136 1106.01 160.83C1105.66 160.519 1105.19 160.364 1104.6 160.364C1104.08 160.364 1103.62 160.5 1103.23 160.773C1102.84 161.042 1102.53 161.422 1102.31 161.915C1102.1 162.403 1101.99 162.977 1101.99 163.636C1101.99 164.311 1102.09 164.898 1102.31 165.398C1102.52 165.898 1102.82 166.286 1103.21 166.562C1103.61 166.839 1104.07 166.977 1104.6 166.977C1104.95 166.977 1105.27 166.917 1105.55 166.795C1105.83 166.674 1106.07 166.5 1106.27 166.273C1106.47 166.045 1106.61 165.773 1106.69 165.455H1108.03C1107.96 165.97 1107.77 166.434 1107.47 166.847C1107.17 167.256 1106.78 167.581 1106.29 167.824C1105.81 168.062 1105.24 168.182 1104.6 168.182ZM1110.97 168.091C1110.69 168.091 1110.45 167.991 1110.25 167.79C1110.05 167.589 1109.95 167.348 1109.95 167.068C1109.95 166.788 1110.05 166.547 1110.25 166.347C1110.45 166.146 1110.69 166.045 1110.97 166.045C1111.25 166.045 1111.49 166.146 1111.69 166.347C1111.89 166.547 1111.99 166.788 1111.99 167.068C1111.99 167.254 1111.95 167.424 1111.85 167.58C1111.76 167.735 1111.64 167.86 1111.48 167.955C1111.33 168.045 1111.16 168.091 1110.97 168.091ZM1118.13 168V166.75H1118.44C1118.71 166.75 1118.92 166.699 1119.1 166.597C1119.27 166.491 1119.41 166.307 1119.52 166.045C1119.63 165.78 1119.71 165.413 1119.77 164.943C1119.83 164.47 1119.87 163.867 1119.9 163.136L1120.06 159.273H1125.88V168H1124.54V160.523H1121.33L1121.19 163.636C1121.16 164.352 1121.1 164.983 1121 165.528C1120.91 166.07 1120.76 166.525 1120.56 166.892C1120.37 167.259 1120.11 167.536 1119.79 167.722C1119.47 167.907 1119.07 168 1118.58 168H1118.13ZM1132 168.182C1131.15 168.182 1130.43 167.996 1129.82 167.625C1129.21 167.25 1128.75 166.727 1128.42 166.057C1128.09 165.383 1127.93 164.598 1127.93 163.705C1127.93 162.811 1128.09 162.023 1128.42 161.341C1128.75 160.655 1129.2 160.121 1129.79 159.739C1130.38 159.352 1131.07 159.159 1131.86 159.159C1132.31 159.159 1132.76 159.235 1133.21 159.386C1133.65 159.538 1134.05 159.784 1134.42 160.125C1134.78 160.462 1135.07 160.909 1135.29 161.466C1135.5 162.023 1135.61 162.708 1135.61 163.523V164.091H1128.88V162.932H1134.25C1134.25 162.439 1134.15 162 1133.95 161.614C1133.76 161.227 1133.48 160.922 1133.12 160.699C1132.76 160.475 1132.34 160.364 1131.86 160.364C1131.33 160.364 1130.86 160.496 1130.47 160.761C1130.09 161.023 1129.79 161.364 1129.58 161.784C1129.37 162.205 1129.27 162.655 1129.27 163.136V163.909C1129.27 164.568 1129.38 165.127 1129.61 165.585C1129.84 166.04 1130.16 166.386 1130.57 166.625C1130.98 166.86 1131.45 166.977 1132 166.977C1132.35 166.977 1132.67 166.928 1132.95 166.83C1133.24 166.727 1133.49 166.576 1133.69 166.375C1133.9 166.17 1134.06 165.917 1134.18 165.614L1135.47 165.977C1135.34 166.417 1135.11 166.803 1134.79 167.136C1134.46 167.466 1134.07 167.723 1133.59 167.909C1133.12 168.091 1132.59 168.182 1132 168.182ZM1136.84 160.523V159.273H1143.93V160.523H1141.06V168H1139.72V160.523H1136.84ZM1101.88 182.023V183.273H1097.06V182.023H1101.88ZM1097.38 178.273V187H1096.04V178.273H1097.38ZM1102.9 178.273V187H1101.56V178.273H1102.9ZM1106.33 187.091C1106.05 187.091 1105.81 186.991 1105.61 186.79C1105.41 186.589 1105.31 186.348 1105.31 186.068C1105.31 185.788 1105.41 185.547 1105.61 185.347C1105.81 185.146 1106.05 185.045 1106.33 185.045C1106.61 185.045 1106.85 185.146 1107.05 185.347C1107.25 185.547 1107.35 185.788 1107.35 186.068C1107.35 186.254 1107.3 186.424 1107.21 186.58C1107.12 186.735 1107 186.86 1106.84 186.955C1106.69 187.045 1106.52 187.091 1106.33 187.091ZM1112.64 179.409C1112.34 179.413 1112.04 179.491 1111.73 179.642C1111.43 179.794 1111.17 179.994 1110.97 180.244C1110.77 180.491 1110.67 180.765 1110.67 181.068H1109.35C1109.35 180.689 1109.44 180.326 1109.62 179.977C1109.8 179.629 1110.05 179.318 1110.36 179.045C1110.67 178.773 1111.02 178.557 1111.41 178.398C1111.81 178.239 1112.22 178.159 1112.64 178.159C1113.44 178.159 1114.11 178.36 1114.67 178.761C1115.22 179.163 1115.65 179.693 1115.93 180.352C1116.23 181.011 1116.37 181.727 1116.37 182.5V182.818C1116.37 183.587 1116.23 184.303 1115.93 184.966C1115.65 185.625 1115.22 186.155 1114.67 186.557C1114.11 186.958 1113.44 187.159 1112.64 187.159C1112.01 187.159 1111.44 187.019 1110.95 186.739C1110.45 186.455 1110.06 186.076 1109.78 185.602C1109.49 185.129 1109.35 184.602 1109.35 184.023H1110.67C1110.67 184.352 1110.76 184.661 1110.95 184.949C1111.14 185.233 1111.38 185.464 1111.68 185.642C1111.98 185.816 1112.3 185.905 1112.64 185.909C1113.15 185.905 1113.58 185.746 1113.94 185.432C1114.3 185.117 1114.57 184.723 1114.75 184.25C1114.94 183.777 1115.03 183.299 1115.03 182.818V182.5C1115.03 182.008 1114.94 181.527 1114.75 181.057C1114.57 180.583 1114.3 180.191 1113.95 179.881C1113.59 179.57 1113.16 179.413 1112.64 179.409ZM1115.58 181.977V183.227H1111.76V181.977H1115.58Z" fill="#8684FF"/>
</g>
<defs>
<filter id="filter0_d_250_385" x="0" y="0" width="1232" height="287" filterUnits="userSpaceOnUse" color-interpolation-filters="sRGB">
<feFlood flood-opacity="0" result="BackgroundImageFix"/>
<feColorMatrix in="SourceAlpha" type="matrix" values="0 0 0 0 0 0 0 0 0 0 0 0 0 0 0 0 0 0 127 0" result="hardAlpha"/>
<feOffset dy="4"/>
<feGaussianBlur stdDeviation="2"/>
<feComposite in2="hardAlpha" operator="out"/>
<feColorMatrix type="matrix" values="0 0 0 0 0 0 0 0 0 0 0 0 0 0 0 0 0 0 0.25 0"/>
<feBlend mode="normal" in2="BackgroundImageFix" result="effect1_dropShadow_250_385"/>
<feBlend mode="normal" in="SourceGraphic" in2="effect1_dropShadow_250_385" result="shape"/>
</filter>
</defs>
</svg>
