<svg width="1232" height="287" viewBox="0 0 1232 287" fill="none" xmlns="http://www.w3.org/2000/svg">
<g filter="url(#filter0_d_250_418)">
<rect x="4" width="1224" height="279" rx="15" fill="#272644" fill-opacity="0.9" shape-rendering="crispEdges"/>
<path d="M1226.47 137.975C1227.84 136.608 1227.84 134.392 1226.47 133.025L1204.2 110.751C1202.83 109.384 1200.62 109.384 1199.25 110.751C1197.88 112.118 1197.88 114.334 1199.25 115.701L1219.05 135.5L1199.25 155.299C1197.88 156.666 1197.88 158.882 1199.25 160.249C1200.62 161.616 1202.83 161.616 1204.2 160.249L1226.47 137.975ZM1180 139H1224V132H1180V139Z" fill="#8684FF"/>
<line x1="4.00325" y1="135" x2="1220" y2="135.988" stroke="#8684FF" stroke-width="8"/>
<path d="M142.409 73.3636H144.091L148.045 83.0227H148.182L152.136 73.3636H153.818V85H152.5V76.1591H152.386L148.75 85H147.477L143.841 76.1591H143.727V85H142.409V73.3636ZM160.121 85.1818C159.28 85.1818 158.554 84.9962 157.945 84.625C157.339 84.25 156.871 83.7273 156.541 83.0568C156.215 82.3826 156.053 81.5985 156.053 80.7045C156.053 79.8106 156.215 79.0227 156.541 78.3409C156.871 77.6553 157.329 77.1212 157.916 76.7386C158.507 76.3523 159.196 76.1591 159.984 76.1591C160.439 76.1591 160.888 76.2348 161.331 76.3864C161.774 76.5379 162.178 76.7841 162.541 77.125C162.905 77.4621 163.195 77.9091 163.411 78.4659C163.626 79.0227 163.734 79.7083 163.734 80.5227V81.0909H157.007V79.9318H162.371C162.371 79.4394 162.272 79 162.075 78.6136C161.882 78.2273 161.606 77.9223 161.246 77.6989C160.89 77.4754 160.469 77.3636 159.984 77.3636C159.45 77.3636 158.988 77.4962 158.598 77.7614C158.212 78.0227 157.914 78.3636 157.706 78.7841C157.498 79.2045 157.393 79.6553 157.393 80.1364V80.9091C157.393 81.5682 157.507 82.1269 157.734 82.5852C157.965 83.0398 158.286 83.3864 158.695 83.625C159.104 83.8598 159.579 83.9773 160.121 83.9773C160.473 83.9773 160.791 83.928 161.075 83.8295C161.363 83.7273 161.611 83.5758 161.82 83.375C162.028 83.1705 162.189 82.9167 162.303 82.6136L163.598 82.9773C163.462 83.4167 163.232 83.803 162.911 84.1364C162.589 84.4659 162.191 84.7235 161.717 84.9091C161.244 85.0909 160.712 85.1818 160.121 85.1818ZM165.229 82.7727H166.661C166.691 83.1667 166.869 83.4659 167.195 83.6705C167.524 83.875 167.952 83.9773 168.479 83.9773C169.017 83.9773 169.477 83.8674 169.859 83.6477C170.242 83.4242 170.433 83.0644 170.433 82.5682C170.433 82.2765 170.361 82.0227 170.217 81.8068C170.073 81.5871 169.871 81.4167 169.609 81.2955C169.348 81.1742 169.039 81.1136 168.683 81.1136H167.183V79.9091H168.683C169.217 79.9091 169.611 79.7879 169.865 79.5455C170.123 79.303 170.251 79 170.251 78.6364C170.251 78.2462 170.113 77.9337 169.837 77.6989C169.56 77.4602 169.168 77.3409 168.661 77.3409C168.149 77.3409 167.723 77.4564 167.382 77.6875C167.041 77.9148 166.861 78.2083 166.842 78.5682H165.433C165.448 78.0985 165.592 77.6837 165.865 77.3239C166.138 76.9602 166.509 76.6761 166.979 76.4716C167.448 76.2633 167.986 76.1591 168.592 76.1591C169.206 76.1591 169.738 76.267 170.189 76.483C170.643 76.6951 170.994 76.9848 171.24 77.3523C171.49 77.7159 171.615 78.1288 171.615 78.5909C171.615 79.0833 171.477 79.4811 171.2 79.7841C170.924 80.0871 170.577 80.303 170.161 80.4318V80.5227C170.49 80.5455 170.776 80.6515 171.018 80.8409C171.265 81.0265 171.456 81.2708 171.592 81.5739C171.729 81.8731 171.797 82.2045 171.797 82.5682C171.797 83.0985 171.655 83.5606 171.371 83.9545C171.087 84.3447 170.696 84.6477 170.2 84.8636C169.704 85.0758 169.138 85.1818 168.501 85.1818C167.884 85.1818 167.331 85.0814 166.842 84.8807C166.354 84.6761 165.965 84.3939 165.678 84.0341C165.393 83.6705 165.244 83.25 165.229 82.7727ZM177.226 85.1818C176.438 85.1818 175.747 84.9943 175.152 84.6193C174.561 84.2443 174.099 83.7197 173.766 83.0455C173.436 82.3712 173.271 81.5833 173.271 80.6818C173.271 79.7727 173.436 78.9792 173.766 78.3011C174.099 77.6231 174.561 77.0966 175.152 76.7216C175.747 76.3466 176.438 76.1591 177.226 76.1591C178.014 76.1591 178.703 76.3466 179.294 76.7216C179.889 77.0966 180.351 77.6231 180.68 78.3011C181.014 78.9792 181.18 79.7727 181.18 80.6818C181.18 81.5833 181.014 82.3712 180.68 83.0455C180.351 83.7197 179.889 84.2443 179.294 84.6193C178.703 84.9943 178.014 85.1818 177.226 85.1818ZM177.226 83.9773C177.824 83.9773 178.317 83.8239 178.703 83.517C179.089 83.2102 179.375 82.8068 179.561 82.3068C179.747 81.8068 179.839 81.2652 179.839 80.6818C179.839 80.0985 179.747 79.5549 179.561 79.0511C179.375 78.5473 179.089 78.1402 178.703 77.8295C178.317 77.5189 177.824 77.3636 177.226 77.3636C176.627 77.3636 176.135 77.5189 175.749 77.8295C175.362 78.1402 175.076 78.5473 174.891 79.0511C174.705 79.5549 174.612 80.0985 174.612 80.6818C174.612 81.2652 174.705 81.8068 174.891 82.3068C175.076 82.8068 175.362 83.2102 175.749 83.517C176.135 83.8239 176.627 83.9773 177.226 83.9773ZM182.455 85V83.75H182.773C183.034 83.75 183.252 83.6989 183.426 83.5966C183.6 83.4905 183.741 83.3068 183.847 83.0455C183.956 82.7803 184.04 82.4129 184.097 81.9432C184.157 81.4697 184.201 80.8674 184.227 80.1364L184.386 76.2727H190.205V85H188.864V77.5227H185.659L185.523 80.6364C185.492 81.3523 185.428 81.983 185.33 82.5284C185.235 83.0701 185.089 83.5246 184.892 83.892C184.699 84.2595 184.441 84.536 184.119 84.7216C183.797 84.9072 183.394 85 182.909 85H182.455ZM194.006 83.0227L198.21 76.2727H199.756V85H198.415V78.25L194.233 85H192.665V76.2727H194.006V83.0227ZM201.024 77.5227V76.2727H208.115V77.5227H205.251V85H203.911V77.5227H201.024Z" fill="white"/>
<path d="M423.114 73.3636V85H421.705V74.6136H415.841V85H414.432V73.3636H423.114ZM428.342 85.2045C427.789 85.2045 427.287 85.1004 426.837 84.892C426.386 84.6799 426.028 84.375 425.763 83.9773C425.498 83.5758 425.365 83.0909 425.365 82.5227C425.365 82.0227 425.464 81.6174 425.661 81.3068C425.857 80.9924 426.121 80.7462 426.45 80.5682C426.78 80.3902 427.143 80.2576 427.541 80.1705C427.943 80.0795 428.346 80.0076 428.751 79.9545C429.282 79.8864 429.712 79.8352 430.041 79.8011C430.375 79.7633 430.617 79.7008 430.768 79.6136C430.924 79.5265 431.001 79.375 431.001 79.1591V79.1136C431.001 78.553 430.848 78.1174 430.541 77.8068C430.238 77.4962 429.778 77.3409 429.161 77.3409C428.52 77.3409 428.018 77.4811 427.655 77.7614C427.291 78.0417 427.036 78.3409 426.888 78.6591L425.615 78.2045C425.842 77.6742 426.145 77.2614 426.524 76.9659C426.907 76.6667 427.323 76.4583 427.774 76.3409C428.229 76.2197 428.676 76.1591 429.115 76.1591C429.395 76.1591 429.717 76.1932 430.081 76.2614C430.448 76.3258 430.803 76.4602 431.143 76.6648C431.488 76.8693 431.774 77.178 432.001 77.5909C432.229 78.0038 432.342 78.5568 432.342 79.25V85H431.001V83.8182H430.933C430.842 84.0076 430.691 84.2102 430.479 84.4261C430.267 84.642 429.984 84.8258 429.632 84.9773C429.28 85.1288 428.85 85.2045 428.342 85.2045ZM428.547 84C429.077 84 429.524 83.8958 429.888 83.6875C430.255 83.4792 430.532 83.2102 430.717 82.8807C430.907 82.5511 431.001 82.2045 431.001 81.8409V80.6136C430.945 80.6818 430.82 80.7443 430.626 80.8011C430.437 80.8542 430.217 80.9015 429.967 80.9432C429.721 80.9811 429.481 81.0152 429.246 81.0455C429.015 81.072 428.827 81.0947 428.683 81.1136C428.335 81.1591 428.009 81.233 427.706 81.3352C427.407 81.4337 427.164 81.5833 426.979 81.7841C426.797 81.9811 426.706 82.25 426.706 82.5909C426.706 83.0568 426.878 83.4091 427.223 83.6477C427.571 83.8826 428.013 84 428.547 84ZM434.017 85V83.75H434.335C434.597 83.75 434.814 83.6989 434.989 83.5966C435.163 83.4905 435.303 83.3068 435.409 83.0455C435.519 82.7803 435.602 82.4129 435.659 81.9432C435.72 81.4697 435.763 80.8674 435.79 80.1364L435.949 76.2727H441.767V85H440.426V77.5227H437.222L437.085 80.6364C437.055 81.3523 436.991 81.983 436.892 82.5284C436.797 83.0701 436.652 83.5246 436.455 83.892C436.261 84.2595 436.004 84.536 435.682 84.7216C435.36 84.9072 434.956 85 434.472 85H434.017ZM447.886 85.1818C447.045 85.1818 446.32 84.9962 445.71 84.625C445.104 84.25 444.636 83.7273 444.307 83.0568C443.981 82.3826 443.818 81.5985 443.818 80.7045C443.818 79.8106 443.981 79.0227 444.307 78.3409C444.636 77.6553 445.095 77.1212 445.682 76.7386C446.273 76.3523 446.962 76.1591 447.75 76.1591C448.205 76.1591 448.653 76.2348 449.097 76.3864C449.54 76.5379 449.943 76.7841 450.307 77.125C450.67 77.4621 450.96 77.9091 451.176 78.4659C451.392 79.0227 451.5 79.7083 451.5 80.5227V81.0909H444.773V79.9318H450.136C450.136 79.4394 450.038 79 449.841 78.6136C449.648 78.2273 449.371 77.9223 449.011 77.6989C448.655 77.4754 448.235 77.3636 447.75 77.3636C447.216 77.3636 446.754 77.4962 446.364 77.7614C445.977 78.0227 445.68 78.3636 445.472 78.7841C445.263 79.2045 445.159 79.6553 445.159 80.1364V80.9091C445.159 81.5682 445.273 82.1269 445.5 82.5852C445.731 83.0398 446.051 83.3864 446.46 83.625C446.869 83.8598 447.345 83.9773 447.886 83.9773C448.239 83.9773 448.557 83.928 448.841 83.8295C449.129 83.7273 449.377 83.5758 449.585 83.375C449.794 83.1705 449.955 82.9167 450.068 82.6136L451.364 82.9773C451.227 83.4167 450.998 83.803 450.676 84.1364C450.354 84.4659 449.956 84.7235 449.483 84.9091C449.009 85.0909 448.477 85.1818 447.886 85.1818ZM457.085 85.1818C456.297 85.1818 455.606 84.9943 455.011 84.6193C454.42 84.2443 453.958 83.7197 453.625 83.0455C453.295 82.3712 453.131 81.5833 453.131 80.6818C453.131 79.7727 453.295 78.9792 453.625 78.3011C453.958 77.6231 454.42 77.0966 455.011 76.7216C455.606 76.3466 456.297 76.1591 457.085 76.1591C457.873 76.1591 458.563 76.3466 459.153 76.7216C459.748 77.0966 460.21 77.6231 460.54 78.3011C460.873 78.9792 461.04 79.7727 461.04 80.6818C461.04 81.5833 460.873 82.3712 460.54 83.0455C460.21 83.7197 459.748 84.2443 459.153 84.6193C458.563 84.9943 457.873 85.1818 457.085 85.1818ZM457.085 83.9773C457.684 83.9773 458.176 83.8239 458.562 83.517C458.949 83.2102 459.235 82.8068 459.42 82.3068C459.606 81.8068 459.699 81.2652 459.699 80.6818C459.699 80.0985 459.606 79.5549 459.42 79.0511C459.235 78.5473 458.949 78.1402 458.562 77.8295C458.176 77.5189 457.684 77.3636 457.085 77.3636C456.487 77.3636 455.994 77.5189 455.608 77.8295C455.222 78.1402 454.936 78.5473 454.75 79.0511C454.564 79.5549 454.472 80.0985 454.472 80.6818C454.472 81.2652 454.564 81.8068 454.75 82.3068C454.936 82.8068 455.222 83.2102 455.608 83.517C455.994 83.8239 456.487 83.9773 457.085 83.9773ZM462.314 85V83.75H462.632C462.893 83.75 463.111 83.6989 463.286 83.5966C463.46 83.4905 463.6 83.3068 463.706 83.0455C463.816 82.7803 463.899 82.4129 463.956 81.9432C464.017 81.4697 464.06 80.8674 464.087 80.1364L464.246 76.2727H470.064V85H468.723V77.5227H465.518L465.382 80.6364C465.352 81.3523 465.287 81.983 465.189 82.5284C465.094 83.0701 464.948 83.5246 464.751 83.892C464.558 84.2595 464.301 84.536 463.979 84.7216C463.657 84.9072 463.253 85 462.768 85H462.314ZM473.865 83.0227L478.07 76.2727H479.615V85H478.274V78.25L474.092 85H472.524V76.2727H473.865V83.0227ZM480.884 77.5227V76.2727H487.974V77.5227H485.111V85H483.77V77.5227H480.884Z" fill="white"/>
<path d="M694.409 85V73.3636H695.818V78.5455H702.023V73.3636H703.432V85H702.023V79.7955H695.818V85H694.409ZM709.73 85.1818C708.889 85.1818 708.164 84.9962 707.554 84.625C706.948 84.25 706.48 83.7273 706.151 83.0568C705.825 82.3826 705.662 81.5985 705.662 80.7045C705.662 79.8106 705.825 79.0227 706.151 78.3409C706.48 77.6553 706.938 77.1212 707.526 76.7386C708.116 76.3523 708.806 76.1591 709.594 76.1591C710.048 76.1591 710.497 76.2348 710.94 76.3864C711.384 76.5379 711.787 76.7841 712.151 77.125C712.514 77.4621 712.804 77.9091 713.02 78.4659C713.236 79.0227 713.344 79.7083 713.344 80.5227V81.0909H706.616V79.9318H711.98C711.98 79.4394 711.882 79 711.685 78.6136C711.491 78.2273 711.215 77.9223 710.855 77.6989C710.499 77.4754 710.079 77.3636 709.594 77.3636C709.06 77.3636 708.598 77.4962 708.207 77.7614C707.821 78.0227 707.524 78.3636 707.315 78.7841C707.107 79.2045 707.003 79.6553 707.003 80.1364V80.9091C707.003 81.5682 707.116 82.1269 707.344 82.5852C707.575 83.0398 707.895 83.3864 708.304 83.625C708.713 83.8598 709.188 83.9773 709.73 83.9773C710.082 83.9773 710.401 83.928 710.685 83.8295C710.973 83.7273 711.221 83.5758 711.429 83.375C711.637 83.1705 711.798 82.9167 711.912 82.6136L713.207 82.9773C713.071 83.4167 712.842 83.803 712.52 84.1364C712.198 84.4659 711.8 84.7235 711.327 84.9091C710.853 85.0909 710.321 85.1818 709.73 85.1818ZM718.929 85.1818C718.141 85.1818 717.45 84.9943 716.855 84.6193C716.264 84.2443 715.802 83.7197 715.469 83.0455C715.139 82.3712 714.974 81.5833 714.974 80.6818C714.974 79.7727 715.139 78.9792 715.469 78.3011C715.802 77.6231 716.264 77.0966 716.855 76.7216C717.45 76.3466 718.141 76.1591 718.929 76.1591C719.717 76.1591 720.406 76.3466 720.997 76.7216C721.592 77.0966 722.054 77.6231 722.384 78.3011C722.717 78.9792 722.884 79.7727 722.884 80.6818C722.884 81.5833 722.717 82.3712 722.384 83.0455C722.054 83.7197 721.592 84.2443 720.997 84.6193C720.406 84.9943 719.717 85.1818 718.929 85.1818ZM718.929 83.9773C719.527 83.9773 720.02 83.8239 720.406 83.517C720.793 83.2102 721.079 82.8068 721.264 82.3068C721.45 81.8068 721.543 81.2652 721.543 80.6818C721.543 80.0985 721.45 79.5549 721.264 79.0511C721.079 78.5473 720.793 78.1402 720.406 77.8295C720.02 77.5189 719.527 77.3636 718.929 77.3636C718.33 77.3636 717.838 77.5189 717.452 77.8295C717.065 78.1402 716.779 78.5473 716.594 79.0511C716.408 79.5549 716.315 80.0985 716.315 80.6818C716.315 81.2652 716.408 81.8068 716.594 82.3068C716.779 82.8068 717.065 83.2102 717.452 83.517C717.838 83.8239 718.33 83.9773 718.929 83.9773ZM724.158 85V83.75H724.476C724.737 83.75 724.955 83.6989 725.129 83.5966C725.304 83.4905 725.444 83.3068 725.55 83.0455C725.66 82.7803 725.743 82.4129 725.8 81.9432C725.86 81.4697 725.904 80.8674 725.93 80.1364L726.089 76.2727H731.908V85H730.567V77.5227H727.362L727.226 80.6364C727.196 81.3523 727.131 81.983 727.033 82.5284C726.938 83.0701 726.792 83.5246 726.595 83.892C726.402 84.2595 726.144 84.536 725.822 84.7216C725.5 84.9072 725.097 85 724.612 85H724.158ZM735.709 83.0227L739.913 76.2727H741.459V85H740.118V78.25L735.936 85H734.368V76.2727H735.709V83.0227ZM742.727 77.5227V76.2727H749.818V77.5227H746.955V85H745.614V77.5227H742.727Z" fill="white"/>
<path d="M963.523 78.7045V79.9545H958.727V78.7045H963.523ZM955.955 81.3636H957.409C957.534 82.1818 957.811 82.8106 958.239 83.25C958.667 83.6894 959.352 83.9091 960.295 83.9091C960.962 83.9091 961.519 83.7216 961.966 83.3466C962.417 82.9716 962.754 82.4754 962.977 81.858C963.205 81.2405 963.318 80.5682 963.318 79.8409V78.5455C963.318 77.7424 963.191 77.036 962.938 76.4261C962.688 75.8125 962.326 75.3352 961.852 74.9943C961.383 74.6496 960.818 74.4773 960.159 74.4773C959.583 74.4773 959.106 74.5795 958.727 74.7841C958.348 74.9886 958.053 75.2822 957.841 75.6648C957.629 76.0473 957.485 76.5076 957.409 77.0455H955.955C956.03 76.303 956.233 75.6439 956.562 75.0682C956.896 74.4886 957.36 74.0341 957.955 73.7045C958.553 73.3712 959.288 73.2045 960.159 73.2045C961.106 73.2045 961.924 73.4261 962.614 73.8693C963.303 74.3087 963.835 74.928 964.21 75.7273C964.585 76.5227 964.773 77.4545 964.773 78.5227V79.8636C964.773 80.9318 964.587 81.8636 964.216 82.6591C963.845 83.4508 963.324 84.0663 962.653 84.5057C961.983 84.9413 961.197 85.1591 960.295 85.1591C959.371 85.1591 958.602 84.9924 957.989 84.6591C957.379 84.322 956.907 83.8674 956.574 83.2955C956.244 82.7197 956.038 82.0758 955.955 81.3636ZM972.803 80.0227V81.2727H967.984V80.0227H972.803ZM968.303 76.2727V85H966.962V76.2727H968.303ZM973.825 76.2727V85H972.484V76.2727H973.825ZM979.933 85.1818C979.092 85.1818 978.367 84.9962 977.757 84.625C977.151 84.25 976.683 83.7273 976.354 83.0568C976.028 82.3826 975.865 81.5985 975.865 80.7045C975.865 79.8106 976.028 79.0227 976.354 78.3409C976.683 77.6553 977.142 77.1212 977.729 76.7386C978.32 76.3523 979.009 76.1591 979.797 76.1591C980.251 76.1591 980.7 76.2348 981.143 76.3864C981.587 76.5379 981.99 76.7841 982.354 77.125C982.717 77.4621 983.007 77.9091 983.223 78.4659C983.439 79.0227 983.547 79.7083 983.547 80.5227V81.0909H976.82V79.9318H982.183C982.183 79.4394 982.085 79 981.888 78.6136C981.695 78.2273 981.418 77.9223 981.058 77.6989C980.702 77.4754 980.282 77.3636 979.797 77.3636C979.263 77.3636 978.801 77.4962 978.411 77.7614C978.024 78.0227 977.727 78.3636 977.518 78.7841C977.31 79.2045 977.206 79.6553 977.206 80.1364V80.9091C977.206 81.5682 977.32 82.1269 977.547 82.5852C977.778 83.0398 978.098 83.3864 978.507 83.625C978.916 83.8598 979.392 83.9773 979.933 83.9773C980.286 83.9773 980.604 83.928 980.888 83.8295C981.176 83.7273 981.424 83.5758 981.632 83.375C981.84 83.1705 982.001 82.9167 982.115 82.6136L983.411 82.9773C983.274 83.4167 983.045 83.803 982.723 84.1364C982.401 84.4659 982.003 84.7235 981.53 84.9091C981.056 85.0909 980.524 85.1818 979.933 85.1818ZM989.132 85.1818C988.344 85.1818 987.653 84.9943 987.058 84.6193C986.467 84.2443 986.005 83.7197 985.672 83.0455C985.342 82.3712 985.178 81.5833 985.178 80.6818C985.178 79.7727 985.342 78.9792 985.672 78.3011C986.005 77.6231 986.467 77.0966 987.058 76.7216C987.653 76.3466 988.344 76.1591 989.132 76.1591C989.92 76.1591 990.609 76.3466 991.2 76.7216C991.795 77.0966 992.257 77.6231 992.587 78.3011C992.92 78.9792 993.087 79.7727 993.087 80.6818C993.087 81.5833 992.92 82.3712 992.587 83.0455C992.257 83.7197 991.795 84.2443 991.2 84.6193C990.609 84.9943 989.92 85.1818 989.132 85.1818ZM989.132 83.9773C989.731 83.9773 990.223 83.8239 990.609 83.517C990.996 83.2102 991.282 82.8068 991.467 82.3068C991.653 81.8068 991.746 81.2652 991.746 80.6818C991.746 80.0985 991.653 79.5549 991.467 79.0511C991.282 78.5473 990.996 78.1402 990.609 77.8295C990.223 77.5189 989.731 77.3636 989.132 77.3636C988.534 77.3636 988.041 77.5189 987.655 77.8295C987.268 78.1402 986.982 78.5473 986.797 79.0511C986.611 79.5549 986.518 80.0985 986.518 80.6818C986.518 81.2652 986.611 81.8068 986.797 82.3068C986.982 82.8068 987.268 83.2102 987.655 83.517C988.041 83.8239 988.534 83.9773 989.132 83.9773ZM994.361 85V83.75H994.679C994.94 83.75 995.158 83.6989 995.332 83.5966C995.507 83.4905 995.647 83.3068 995.753 83.0455C995.863 82.7803 995.946 82.4129 996.003 81.9432C996.063 81.4697 996.107 80.8674 996.134 80.1364L996.293 76.2727H1002.11V85H1000.77V77.5227H997.565L997.429 80.6364C997.399 81.3523 997.334 81.983 997.236 82.5284C997.141 83.0701 996.995 83.5246 996.798 83.892C996.605 84.2595 996.348 84.536 996.026 84.7216C995.704 84.9072 995.3 85 994.815 85H994.361ZM1005.91 83.0227L1010.12 76.2727H1011.66V85H1010.32V78.25L1006.14 85H1004.57V76.2727H1005.91V83.0227ZM1012.93 77.5227V76.2727H1020.02V77.5227H1017.16V85H1015.82V77.5227H1012.93Z" fill="white"/>
<ellipse cx="1.5" cy="24" rx="1.5" ry="24" transform="matrix(-1 0 0 1 63 112)" fill="#8684FF"/>
<path d="M33.2436 180V178.977L37.0845 174.773C37.5353 174.28 37.9065 173.852 38.1982 173.489C38.4898 173.121 38.7057 172.777 38.8459 172.455C38.9898 172.129 39.0618 171.788 39.0618 171.432C39.0618 171.023 38.9633 170.669 38.7663 170.369C38.5732 170.07 38.308 169.839 37.9709 169.676C37.6338 169.513 37.255 169.432 36.8345 169.432C36.3875 169.432 35.9974 169.525 35.6641 169.71C35.3345 169.892 35.0788 170.148 34.897 170.477C34.719 170.807 34.63 171.193 34.63 171.636H33.2891C33.2891 170.955 33.4463 170.356 33.7607 169.841C34.075 169.326 34.5031 168.924 35.0447 168.636C35.5902 168.348 36.2019 168.205 36.88 168.205C37.5618 168.205 38.166 168.348 38.6925 168.636C39.219 168.924 39.6319 169.312 39.9311 169.801C40.2304 170.29 40.38 170.833 40.38 171.432C40.38 171.86 40.3023 172.278 40.147 172.688C39.9955 173.093 39.7304 173.545 39.3516 174.045C38.9766 174.542 38.4557 175.148 37.7891 175.864L35.1754 178.659V178.75H40.5845V180H33.2436ZM43.9311 180.091C43.6508 180.091 43.4103 179.991 43.2095 179.79C43.0088 179.589 42.9084 179.348 42.9084 179.068C42.9084 178.788 43.0088 178.547 43.2095 178.347C43.4103 178.146 43.6508 178.045 43.9311 178.045C44.2114 178.045 44.4519 178.146 44.6527 178.347C44.8535 178.547 44.9538 178.788 44.9538 179.068C44.9538 179.254 44.9065 179.424 44.8118 179.58C44.7209 179.735 44.5978 179.86 44.4425 179.955C44.291 180.045 44.1205 180.091 43.9311 180.091ZM50.7947 180.159C50.3175 180.152 49.8402 180.061 49.3629 179.886C48.8857 179.712 48.45 179.419 48.0561 179.006C47.6622 178.589 47.3459 178.027 47.1072 177.318C46.8686 176.606 46.7493 175.712 46.7493 174.636C46.7493 173.606 46.8459 172.693 47.0391 171.898C47.2322 171.098 47.5125 170.426 47.88 169.881C48.2474 169.331 48.6906 168.915 49.2095 168.631C49.7322 168.347 50.3213 168.205 50.9766 168.205C51.6281 168.205 52.2076 168.335 52.7152 168.597C53.2266 168.854 53.6432 169.214 53.9652 169.676C54.2872 170.138 54.4955 170.67 54.5902 171.273H53.2038C53.075 170.75 52.825 170.316 52.4538 169.972C52.0826 169.627 51.5902 169.455 50.9766 169.455C50.075 169.455 49.3648 169.847 48.8459 170.631C48.3307 171.415 48.0713 172.515 48.0675 173.932H48.1584C48.3705 173.61 48.6224 173.335 48.9141 173.108C49.2095 172.877 49.5353 172.699 49.8913 172.574C50.2474 172.449 50.6243 172.386 51.022 172.386C51.6887 172.386 52.2985 172.553 52.8516 172.886C53.4046 173.216 53.8478 173.672 54.1811 174.256C54.5144 174.835 54.6811 175.5 54.6811 176.25C54.6811 176.97 54.5201 177.629 54.1982 178.227C53.8762 178.822 53.4235 179.295 52.8402 179.648C52.2607 179.996 51.5788 180.167 50.7947 180.159ZM50.7947 178.909C51.272 178.909 51.7 178.79 52.0788 178.551C52.4614 178.312 52.7625 177.992 52.9822 177.591C53.2057 177.189 53.3175 176.742 53.3175 176.25C53.3175 175.769 53.2095 175.331 52.9936 174.938C52.7815 174.54 52.4879 174.223 52.1129 173.989C51.7417 173.754 51.3175 173.636 50.8402 173.636C50.4804 173.636 50.1451 173.708 49.8345 173.852C49.5239 173.992 49.2512 174.186 49.0163 174.432C48.7853 174.678 48.6035 174.96 48.4709 175.278C48.3383 175.593 48.272 175.924 48.272 176.273C48.272 176.735 48.38 177.167 48.5959 177.568C48.8156 177.97 49.1148 178.294 49.4936 178.54C49.8762 178.786 50.3099 178.909 50.7947 178.909ZM66.2109 178.182L69.2564 171.273H70.5291L66.7564 180H65.6655L61.9609 171.273H63.2109L66.2109 178.182ZM62.7791 171.273V180H61.4382V171.273H62.7791ZM69.6428 180V171.273H70.9837V180H69.6428ZM72.6655 180V178.75H72.9837C73.245 178.75 73.4628 178.699 73.6371 178.597C73.8113 178.491 73.9515 178.307 74.0575 178.045C74.1674 177.78 74.2507 177.413 74.3075 176.943C74.3681 176.47 74.4117 175.867 74.4382 175.136L74.5973 171.273H80.4155V180H79.0746V172.523H75.87L75.7337 175.636C75.7034 176.352 75.639 176.983 75.5405 177.528C75.4458 178.07 75.3 178.525 75.103 178.892C74.9098 179.259 74.6522 179.536 74.3303 179.722C74.0083 179.907 73.6049 180 73.12 180H72.6655ZM88.7166 175.023V176.273H83.8984V175.023H88.7166ZM84.2166 171.273V180H82.8757V171.273H84.2166ZM89.7393 171.273V180H88.3984V171.273H89.7393ZM23.0092 199V197.75H23.3274C23.5888 197.75 23.8066 197.699 23.9808 197.597C24.1551 197.491 24.2952 197.307 24.4013 197.045C24.5111 196.78 24.5945 196.413 24.6513 195.943C24.7119 195.47 24.7554 194.867 24.782 194.136L24.9411 190.273H30.7592V199H29.4183V191.523H26.2138L26.0774 194.636C26.0471 195.352 25.9827 195.983 25.8842 196.528C25.7895 197.07 25.6437 197.525 25.4467 197.892C25.2536 198.259 24.996 198.536 24.674 198.722C24.352 198.907 23.9486 199 23.4638 199H23.0092ZM36.8786 199.182C36.0376 199.182 35.3123 198.996 34.7024 198.625C34.0964 198.25 33.6286 197.727 33.299 197.057C32.9732 196.383 32.8104 195.598 32.8104 194.705C32.8104 193.811 32.9732 193.023 33.299 192.341C33.6286 191.655 34.0869 191.121 34.674 190.739C35.2649 190.352 35.9543 190.159 36.7422 190.159C37.1967 190.159 37.6456 190.235 38.0888 190.386C38.532 190.538 38.9354 190.784 39.299 191.125C39.6626 191.462 39.9524 191.909 40.1683 192.466C40.3842 193.023 40.4922 193.708 40.4922 194.523V195.091H33.7649V193.932H39.1286C39.1286 193.439 39.0301 193 38.8331 192.614C38.6399 192.227 38.3634 191.922 38.0036 191.699C37.6475 191.475 37.227 191.364 36.7422 191.364C36.2081 191.364 35.746 191.496 35.3558 191.761C34.9695 192.023 34.6721 192.364 34.4638 192.784C34.2554 193.205 34.1513 193.655 34.1513 194.136V194.909C34.1513 195.568 34.2649 196.127 34.4922 196.585C34.7232 197.04 35.0433 197.386 35.4524 197.625C35.8615 197.86 36.3369 197.977 36.8786 197.977C37.2308 197.977 37.549 197.928 37.8331 197.83C38.121 197.727 38.3691 197.576 38.5774 197.375C38.7857 197.17 38.9467 196.917 39.0604 196.614L40.3558 196.977C40.2195 197.417 39.9903 197.803 39.6683 198.136C39.3464 198.466 38.9486 198.723 38.4751 198.909C38.0017 199.091 37.4695 199.182 36.8786 199.182ZM41.7195 191.523V190.273H48.8104V191.523H45.9467V199H44.6058V191.523H41.7195ZM54.3345 201.5V197.75H55.0618C55.2398 197.564 55.3932 197.364 55.522 197.148C55.6508 196.932 55.7625 196.676 55.8572 196.381C55.9557 196.081 56.0391 195.718 56.1072 195.29C56.1754 194.858 56.236 194.337 56.2891 193.727L56.5845 190.273H62.13V197.75H63.4709V201.5H62.13V199H55.6754V201.5H54.3345ZM56.5845 197.75H60.7891V191.523H57.8345L57.6072 193.727C57.5125 194.64 57.3951 195.437 57.255 196.119C57.1148 196.801 56.8913 197.345 56.5845 197.75ZM68.7962 199.182C68.0083 199.182 67.317 198.994 66.7223 198.619C66.1314 198.244 65.6693 197.72 65.3359 197.045C65.0064 196.371 64.8416 195.583 64.8416 194.682C64.8416 193.773 65.0064 192.979 65.3359 192.301C65.6693 191.623 66.1314 191.097 66.7223 190.722C67.317 190.347 68.0083 190.159 68.7962 190.159C69.584 190.159 70.2734 190.347 70.8643 190.722C71.459 191.097 71.9212 191.623 72.2507 192.301C72.584 192.979 72.7507 193.773 72.7507 194.682C72.7507 195.583 72.584 196.371 72.2507 197.045C71.9212 197.72 71.459 198.244 70.8643 198.619C70.2734 198.994 69.584 199.182 68.7962 199.182ZM68.7962 197.977C69.3946 197.977 69.8871 197.824 70.2734 197.517C70.6598 197.21 70.9458 196.807 71.1314 196.307C71.317 195.807 71.4098 195.265 71.4098 194.682C71.4098 194.098 71.317 193.555 71.1314 193.051C70.9458 192.547 70.6598 192.14 70.2734 191.83C69.8871 191.519 69.3946 191.364 68.7962 191.364C68.1977 191.364 67.7053 191.519 67.3189 191.83C66.9325 192.14 66.6465 192.547 66.4609 193.051C66.2753 193.555 66.1825 194.098 66.1825 194.682C66.1825 195.265 66.2753 195.807 66.4609 196.307C66.6465 196.807 66.9325 197.21 67.3189 197.517C67.7053 197.824 68.1977 197.977 68.7962 197.977ZM85.1385 194.023V195.273H80.3203V194.023H85.1385ZM80.6385 190.273V199H79.2976V190.273H80.6385ZM86.1612 190.273V199H84.8203V190.273H86.1612ZM89.5874 199.091C89.3071 199.091 89.0665 198.991 88.8658 198.79C88.665 198.589 88.5646 198.348 88.5646 198.068C88.5646 197.788 88.665 197.547 88.8658 197.347C89.0665 197.146 89.3071 197.045 89.5874 197.045C89.8677 197.045 90.1082 197.146 90.3089 197.347C90.5097 197.547 90.6101 197.788 90.6101 198.068C90.6101 198.254 90.5627 198.424 90.468 198.58C90.3771 198.735 90.254 198.86 90.0987 198.955C89.9472 199.045 89.7768 199.091 89.5874 199.091ZM95.9027 191.409C95.5997 191.413 95.2947 191.491 94.9879 191.642C94.6849 191.794 94.4311 191.994 94.2266 192.244C94.0258 192.491 93.9254 192.765 93.9254 193.068H92.6072C92.6072 192.689 92.6982 192.326 92.88 191.977C93.0618 191.629 93.3061 191.318 93.6129 191.045C93.9235 190.773 94.2758 190.557 94.6697 190.398C95.0675 190.239 95.4785 190.159 95.9027 190.159C96.6982 190.159 97.3724 190.36 97.9254 190.761C98.4822 191.163 98.9046 191.693 99.1925 192.352C99.4841 193.011 99.63 193.727 99.63 194.5V194.818C99.63 195.587 99.4841 196.303 99.1925 196.966C98.9046 197.625 98.4822 198.155 97.9254 198.557C97.3724 198.958 96.6982 199.159 95.9027 199.159C95.2663 199.159 94.7 199.019 94.2038 198.739C93.7076 198.455 93.3175 198.076 93.0334 197.602C92.7493 197.129 92.6072 196.602 92.6072 196.023H93.9254C93.9254 196.352 94.0182 196.661 94.2038 196.949C94.3932 197.233 94.6375 197.464 94.9368 197.642C95.2398 197.816 95.5618 197.905 95.9027 197.909C96.4103 197.905 96.8421 197.746 97.1982 197.432C97.5542 197.117 97.825 196.723 98.0107 196.25C98.1963 195.777 98.2891 195.299 98.2891 194.818V194.5C98.2891 194.008 98.1963 193.527 98.0107 193.057C97.8288 192.583 97.5599 192.191 97.2038 191.881C96.8516 191.57 96.4179 191.413 95.9027 191.409ZM98.8345 193.977V195.227H95.0163V193.977H98.8345Z" fill="white"/>
<ellipse cx="1.5" cy="24" rx="1.5" ry="24" transform="matrix(-1 0 0 1 324.5 112)" fill="#8684FF"/>
<path d="M300.538 168.364V180H299.129V169.841H299.06L296.219 171.727V170.295L299.129 168.364H300.538ZM303.884 180V178.977L307.725 174.773C308.176 174.28 308.547 173.852 308.839 173.489C309.13 173.121 309.346 172.777 309.487 172.455C309.63 172.129 309.702 171.788 309.702 171.432C309.702 171.023 309.604 170.669 309.407 170.369C309.214 170.07 308.949 169.839 308.612 169.676C308.274 169.513 307.896 169.432 307.475 169.432C307.028 169.432 306.638 169.525 306.305 169.71C305.975 169.892 305.719 170.148 305.538 170.477C305.36 170.807 305.271 171.193 305.271 171.636H303.93C303.93 170.955 304.087 170.356 304.401 169.841C304.716 169.326 305.144 168.924 305.685 168.636C306.231 168.348 306.843 168.205 307.521 168.205C308.202 168.205 308.807 168.348 309.333 168.636C309.86 168.924 310.272 169.312 310.572 169.801C310.871 170.29 311.021 170.833 311.021 171.432C311.021 171.86 310.943 172.278 310.788 172.688C310.636 173.093 310.371 173.545 309.992 174.045C309.617 174.542 309.096 175.148 308.43 175.864L305.816 178.659V178.75H311.225V180H303.884ZM317.594 172.523V171.273H324.685V172.523H321.822V180H320.481V172.523H317.594ZM327.8 174.432H330.3C331.323 174.432 332.105 174.691 332.647 175.21C333.189 175.729 333.46 176.386 333.46 177.182C333.46 177.705 333.338 178.18 333.096 178.608C332.853 179.032 332.497 179.371 332.028 179.625C331.558 179.875 330.982 180 330.3 180H326.641V171.273H327.982V178.75H330.3C330.831 178.75 331.266 178.61 331.607 178.33C331.948 178.049 332.119 177.689 332.119 177.25C332.119 176.788 331.948 176.411 331.607 176.119C331.266 175.828 330.831 175.682 330.3 175.682H327.8V174.432ZM334.846 180V171.273H336.187V180H334.846ZM342.187 180.182C341.369 180.182 340.664 179.989 340.073 179.602C339.482 179.216 339.028 178.684 338.71 178.006C338.391 177.328 338.232 176.553 338.232 175.682C338.232 174.795 338.395 174.013 338.721 173.335C339.05 172.653 339.509 172.121 340.096 171.739C340.687 171.352 341.376 171.159 342.164 171.159C342.778 171.159 343.331 171.273 343.823 171.5C344.316 171.727 344.719 172.045 345.033 172.455C345.348 172.864 345.543 173.341 345.619 173.886H344.278C344.175 173.489 343.948 173.136 343.596 172.83C343.247 172.519 342.778 172.364 342.187 172.364C341.664 172.364 341.206 172.5 340.812 172.773C340.422 173.042 340.117 173.422 339.897 173.915C339.681 174.403 339.573 174.977 339.573 175.636C339.573 176.311 339.679 176.898 339.891 177.398C340.107 177.898 340.41 178.286 340.8 178.562C341.194 178.839 341.656 178.977 342.187 178.977C342.535 178.977 342.852 178.917 343.136 178.795C343.42 178.674 343.66 178.5 343.857 178.273C344.054 178.045 344.194 177.773 344.278 177.455H345.619C345.543 177.97 345.355 178.434 345.056 178.847C344.761 179.256 344.369 179.581 343.88 179.824C343.395 180.062 342.831 180.182 342.187 180.182ZM348.556 180.091C348.276 180.091 348.035 179.991 347.835 179.79C347.634 179.589 347.533 179.348 347.533 179.068C347.533 178.788 347.634 178.547 347.835 178.347C348.035 178.146 348.276 178.045 348.556 178.045C348.836 178.045 349.077 178.146 349.278 178.347C349.478 178.547 349.579 178.788 349.579 179.068C349.579 179.254 349.531 179.424 349.437 179.58C349.346 179.735 349.223 179.86 349.067 179.955C348.916 180.045 348.746 180.091 348.556 180.091ZM284.509 199V197.75H284.827C285.089 197.75 285.307 197.699 285.481 197.597C285.655 197.491 285.795 197.307 285.901 197.045C286.011 196.78 286.094 196.413 286.151 195.943C286.212 195.47 286.255 194.867 286.282 194.136L286.441 190.273H292.259V199H290.918V191.523H287.714L287.577 194.636C287.547 195.352 287.483 195.983 287.384 196.528C287.29 197.07 287.144 197.525 286.947 197.892C286.754 198.259 286.496 198.536 286.174 198.722C285.852 198.907 285.449 199 284.964 199H284.509ZM298.379 199.182C297.538 199.182 296.812 198.996 296.202 198.625C295.596 198.25 295.129 197.727 294.799 197.057C294.473 196.383 294.31 195.598 294.31 194.705C294.31 193.811 294.473 193.023 294.799 192.341C295.129 191.655 295.587 191.121 296.174 190.739C296.765 190.352 297.454 190.159 298.242 190.159C298.697 190.159 299.146 190.235 299.589 190.386C300.032 190.538 300.435 190.784 300.799 191.125C301.163 191.462 301.452 191.909 301.668 192.466C301.884 193.023 301.992 193.708 301.992 194.523V195.091H295.265V193.932H300.629C300.629 193.439 300.53 193 300.333 192.614C300.14 192.227 299.863 191.922 299.504 191.699C299.147 191.475 298.727 191.364 298.242 191.364C297.708 191.364 297.246 191.496 296.856 191.761C296.469 192.023 296.172 192.364 295.964 192.784C295.755 193.205 295.651 193.655 295.651 194.136V194.909C295.651 195.568 295.765 196.127 295.992 196.585C296.223 197.04 296.543 197.386 296.952 197.625C297.362 197.86 297.837 197.977 298.379 197.977C298.731 197.977 299.049 197.928 299.333 197.83C299.621 197.727 299.869 197.576 300.077 197.375C300.286 197.17 300.447 196.917 300.56 196.614L301.856 196.977C301.719 197.417 301.49 197.803 301.168 198.136C300.846 198.466 300.449 198.723 299.975 198.909C299.502 199.091 298.969 199.182 298.379 199.182ZM303.219 191.523V190.273H310.31V191.523H307.447V199H306.106V191.523H303.219ZM315.835 201.5V197.75H316.562C316.74 197.564 316.893 197.364 317.022 197.148C317.151 196.932 317.263 196.676 317.357 196.381C317.456 196.081 317.539 195.718 317.607 195.29C317.675 194.858 317.736 194.337 317.789 193.727L318.085 190.273H323.63V197.75H324.971V201.5H323.63V199H317.175V201.5H315.835ZM318.085 197.75H322.289V191.523H319.335L319.107 193.727C319.013 194.64 318.895 195.437 318.755 196.119C318.615 196.801 318.391 197.345 318.085 197.75ZM330.296 199.182C329.508 199.182 328.817 198.994 328.222 198.619C327.631 198.244 327.169 197.72 326.836 197.045C326.506 196.371 326.342 195.583 326.342 194.682C326.342 193.773 326.506 192.979 326.836 192.301C327.169 191.623 327.631 191.097 328.222 190.722C328.817 190.347 329.508 190.159 330.296 190.159C331.084 190.159 331.773 190.347 332.364 190.722C332.959 191.097 333.421 191.623 333.751 192.301C334.084 192.979 334.251 193.773 334.251 194.682C334.251 195.583 334.084 196.371 333.751 197.045C333.421 197.72 332.959 198.244 332.364 198.619C331.773 198.994 331.084 199.182 330.296 199.182ZM330.296 197.977C330.895 197.977 331.387 197.824 331.773 197.517C332.16 197.21 332.446 196.807 332.631 196.307C332.817 195.807 332.91 195.265 332.91 194.682C332.91 194.098 332.817 193.555 332.631 193.051C332.446 192.547 332.16 192.14 331.773 191.83C331.387 191.519 330.895 191.364 330.296 191.364C329.698 191.364 329.205 191.519 328.819 191.83C328.433 192.14 328.147 192.547 327.961 193.051C327.775 193.555 327.683 194.098 327.683 194.682C327.683 195.265 327.775 195.807 327.961 196.307C328.147 196.807 328.433 197.21 328.819 197.517C329.205 197.824 329.698 197.977 330.296 197.977ZM346.638 194.023V195.273H341.82V194.023H346.638ZM342.138 190.273V199H340.798V190.273H342.138ZM347.661 190.273V199H346.32V190.273H347.661ZM351.087 199.091C350.807 199.091 350.567 198.991 350.366 198.79C350.165 198.589 350.065 198.348 350.065 198.068C350.065 197.788 350.165 197.547 350.366 197.347C350.567 197.146 350.807 197.045 351.087 197.045C351.368 197.045 351.608 197.146 351.809 197.347C352.01 197.547 352.11 197.788 352.11 198.068C352.11 198.254 352.063 198.424 351.968 198.58C351.877 198.735 351.754 198.86 351.599 198.955C351.447 199.045 351.277 199.091 351.087 199.091ZM357.403 191.409C357.1 191.413 356.795 191.491 356.488 191.642C356.185 191.794 355.931 191.994 355.727 192.244C355.526 192.491 355.425 192.765 355.425 193.068H354.107C354.107 192.689 354.198 192.326 354.38 191.977C354.562 191.629 354.806 191.318 355.113 191.045C355.424 190.773 355.776 190.557 356.17 190.398C356.567 190.239 356.978 190.159 357.403 190.159C358.198 190.159 358.872 190.36 359.425 190.761C359.982 191.163 360.405 191.693 360.692 192.352C360.984 193.011 361.13 193.727 361.13 194.5V194.818C361.13 195.587 360.984 196.303 360.692 196.966C360.405 197.625 359.982 198.155 359.425 198.557C358.872 198.958 358.198 199.159 357.403 199.159C356.766 199.159 356.2 199.019 355.704 198.739C355.208 198.455 354.817 198.076 354.533 197.602C354.249 197.129 354.107 196.602 354.107 196.023H355.425C355.425 196.352 355.518 196.661 355.704 196.949C355.893 197.233 356.138 197.464 356.437 197.642C356.74 197.816 357.062 197.905 357.403 197.909C357.91 197.905 358.342 197.746 358.698 197.432C359.054 197.117 359.325 196.723 359.511 196.25C359.696 195.777 359.789 195.299 359.789 194.818V194.5C359.789 194.008 359.696 193.527 359.511 193.057C359.329 192.583 359.06 192.191 358.704 191.881C358.352 191.57 357.918 191.413 357.403 191.409ZM360.335 193.977V195.227H356.516V193.977H360.335Z" fill="white"/>
<ellipse cx="1.5" cy="24" rx="1.5" ry="24" transform="matrix(-1 0 0 1 586 112)" fill="#8684FF"/>
<path d="M565.278 180.159C564.612 180.159 564.011 180.027 563.477 179.761C562.943 179.496 562.515 179.133 562.193 178.67C561.871 178.208 561.695 177.682 561.665 177.091H563.028C563.081 177.617 563.32 178.053 563.744 178.398C564.172 178.739 564.684 178.909 565.278 178.909C565.756 178.909 566.18 178.797 566.551 178.574C566.926 178.35 567.22 178.044 567.432 177.653C567.648 177.259 567.756 176.814 567.756 176.318C567.756 175.811 567.644 175.358 567.42 174.96C567.201 174.559 566.898 174.242 566.511 174.011C566.125 173.78 565.684 173.663 565.188 173.659C564.831 173.655 564.466 173.71 564.091 173.824C563.716 173.934 563.407 174.076 563.165 174.25L561.847 174.091L562.551 168.364H568.597V169.614H563.733L563.324 173.045H563.392C563.631 172.856 563.93 172.699 564.29 172.574C564.65 172.449 565.025 172.386 565.415 172.386C566.127 172.386 566.761 172.557 567.318 172.898C567.879 173.235 568.318 173.697 568.636 174.284C568.958 174.871 569.119 175.542 569.119 176.295C569.119 177.038 568.953 177.701 568.619 178.284C568.29 178.864 567.835 179.322 567.256 179.659C566.676 179.992 566.017 180.159 565.278 180.159ZM575.399 172.523V171.273H582.49V172.523H579.626V180H578.286V172.523H575.399ZM585.605 174.432H588.105C589.128 174.432 589.91 174.691 590.452 175.21C590.993 175.729 591.264 176.386 591.264 177.182C591.264 177.705 591.143 178.18 590.901 178.608C590.658 179.032 590.302 179.371 589.832 179.625C589.363 179.875 588.787 180 588.105 180H584.446V171.273H585.787V178.75H588.105C588.635 178.75 589.071 178.61 589.412 178.33C589.753 178.049 589.923 177.689 589.923 177.25C589.923 176.788 589.753 176.411 589.412 176.119C589.071 175.828 588.635 175.682 588.105 175.682H585.605V174.432ZM592.651 180V171.273H593.991V180H592.651ZM599.991 180.182C599.173 180.182 598.469 179.989 597.878 179.602C597.287 179.216 596.832 178.684 596.514 178.006C596.196 177.328 596.037 176.553 596.037 175.682C596.037 174.795 596.2 174.013 596.526 173.335C596.855 172.653 597.313 172.121 597.901 171.739C598.491 171.352 599.181 171.159 599.969 171.159C600.582 171.159 601.135 171.273 601.628 171.5C602.12 171.727 602.524 172.045 602.838 172.455C603.152 172.864 603.348 173.341 603.423 173.886H602.082C601.98 173.489 601.753 173.136 601.401 172.83C601.052 172.519 600.582 172.364 599.991 172.364C599.469 172.364 599.01 172.5 598.616 172.773C598.226 173.042 597.921 173.422 597.702 173.915C597.486 174.403 597.378 174.977 597.378 175.636C597.378 176.311 597.484 176.898 597.696 177.398C597.912 177.898 598.215 178.286 598.605 178.562C598.999 178.839 599.461 178.977 599.991 178.977C600.34 178.977 600.656 178.917 600.94 178.795C601.224 178.674 601.465 178.5 601.662 178.273C601.859 178.045 601.999 177.773 602.082 177.455H603.423C603.348 177.97 603.16 178.434 602.861 178.847C602.565 179.256 602.173 179.581 601.685 179.824C601.2 180.062 600.635 180.182 599.991 180.182ZM606.361 180.091C606.08 180.091 605.84 179.991 605.639 179.79C605.438 179.589 605.338 179.348 605.338 179.068C605.338 178.788 605.438 178.547 605.639 178.347C605.84 178.146 606.08 178.045 606.361 178.045C606.641 178.045 606.882 178.146 607.082 178.347C607.283 178.547 607.384 178.788 607.384 179.068C607.384 179.254 607.336 179.424 607.241 179.58C607.151 179.735 607.027 179.86 606.872 179.955C606.721 180.045 606.55 180.091 606.361 180.091ZM546.009 199V197.75H546.327C546.589 197.75 546.807 197.699 546.981 197.597C547.155 197.491 547.295 197.307 547.401 197.045C547.511 196.78 547.594 196.413 547.651 195.943C547.712 195.47 547.755 194.867 547.782 194.136L547.941 190.273H553.759V199H552.418V191.523H549.214L549.077 194.636C549.047 195.352 548.983 195.983 548.884 196.528C548.79 197.07 548.644 197.525 548.447 197.892C548.254 198.259 547.996 198.536 547.674 198.722C547.352 198.907 546.949 199 546.464 199H546.009ZM559.879 199.182C559.038 199.182 558.312 198.996 557.702 198.625C557.096 198.25 556.629 197.727 556.299 197.057C555.973 196.383 555.81 195.598 555.81 194.705C555.81 193.811 555.973 193.023 556.299 192.341C556.629 191.655 557.087 191.121 557.674 190.739C558.265 190.352 558.954 190.159 559.742 190.159C560.197 190.159 560.646 190.235 561.089 190.386C561.532 190.538 561.935 190.784 562.299 191.125C562.663 191.462 562.952 191.909 563.168 192.466C563.384 193.023 563.492 193.708 563.492 194.523V195.091H556.765V193.932H562.129C562.129 193.439 562.03 193 561.833 192.614C561.64 192.227 561.363 191.922 561.004 191.699C560.647 191.475 560.227 191.364 559.742 191.364C559.208 191.364 558.746 191.496 558.356 191.761C557.969 192.023 557.672 192.364 557.464 192.784C557.255 193.205 557.151 193.655 557.151 194.136V194.909C557.151 195.568 557.265 196.127 557.492 196.585C557.723 197.04 558.043 197.386 558.452 197.625C558.862 197.86 559.337 197.977 559.879 197.977C560.231 197.977 560.549 197.928 560.833 197.83C561.121 197.727 561.369 197.576 561.577 197.375C561.786 197.17 561.947 196.917 562.06 196.614L563.356 196.977C563.219 197.417 562.99 197.803 562.668 198.136C562.346 198.466 561.949 198.723 561.475 198.909C561.002 199.091 560.469 199.182 559.879 199.182ZM564.719 191.523V190.273H571.81V191.523H568.947V199H567.606V191.523H564.719ZM577.335 201.5V197.75H578.062C578.24 197.564 578.393 197.364 578.522 197.148C578.651 196.932 578.763 196.676 578.857 196.381C578.956 196.081 579.039 195.718 579.107 195.29C579.175 194.858 579.236 194.337 579.289 193.727L579.585 190.273H585.13V197.75H586.471V201.5H585.13V199H578.675V201.5H577.335ZM579.585 197.75H583.789V191.523H580.835L580.607 193.727C580.513 194.64 580.395 195.437 580.255 196.119C580.115 196.801 579.891 197.345 579.585 197.75ZM591.796 199.182C591.008 199.182 590.317 198.994 589.722 198.619C589.131 198.244 588.669 197.72 588.336 197.045C588.006 196.371 587.842 195.583 587.842 194.682C587.842 193.773 588.006 192.979 588.336 192.301C588.669 191.623 589.131 191.097 589.722 190.722C590.317 190.347 591.008 190.159 591.796 190.159C592.584 190.159 593.273 190.347 593.864 190.722C594.459 191.097 594.921 191.623 595.251 192.301C595.584 192.979 595.751 193.773 595.751 194.682C595.751 195.583 595.584 196.371 595.251 197.045C594.921 197.72 594.459 198.244 593.864 198.619C593.273 198.994 592.584 199.182 591.796 199.182ZM591.796 197.977C592.395 197.977 592.887 197.824 593.273 197.517C593.66 197.21 593.946 196.807 594.131 196.307C594.317 195.807 594.41 195.265 594.41 194.682C594.41 194.098 594.317 193.555 594.131 193.051C593.946 192.547 593.66 192.14 593.273 191.83C592.887 191.519 592.395 191.364 591.796 191.364C591.198 191.364 590.705 191.519 590.319 191.83C589.933 192.14 589.647 192.547 589.461 193.051C589.275 193.555 589.183 194.098 589.183 194.682C589.183 195.265 589.275 195.807 589.461 196.307C589.647 196.807 589.933 197.21 590.319 197.517C590.705 197.824 591.198 197.977 591.796 197.977ZM608.138 194.023V195.273H603.32V194.023H608.138ZM603.638 190.273V199H602.298V190.273H603.638ZM609.161 190.273V199H607.82V190.273H609.161ZM612.587 199.091C612.307 199.091 612.067 198.991 611.866 198.79C611.665 198.589 611.565 198.348 611.565 198.068C611.565 197.788 611.665 197.547 611.866 197.347C612.067 197.146 612.307 197.045 612.587 197.045C612.868 197.045 613.108 197.146 613.309 197.347C613.51 197.547 613.61 197.788 613.61 198.068C613.61 198.254 613.563 198.424 613.468 198.58C613.377 198.735 613.254 198.86 613.099 198.955C612.947 199.045 612.777 199.091 612.587 199.091ZM618.903 191.409C618.6 191.413 618.295 191.491 617.988 191.642C617.685 191.794 617.431 191.994 617.227 192.244C617.026 192.491 616.925 192.765 616.925 193.068H615.607C615.607 192.689 615.698 192.326 615.88 191.977C616.062 191.629 616.306 191.318 616.613 191.045C616.924 190.773 617.276 190.557 617.67 190.398C618.067 190.239 618.478 190.159 618.903 190.159C619.698 190.159 620.372 190.36 620.925 190.761C621.482 191.163 621.905 191.693 622.192 192.352C622.484 193.011 622.63 193.727 622.63 194.5V194.818C622.63 195.587 622.484 196.303 622.192 196.966C621.905 197.625 621.482 198.155 620.925 198.557C620.372 198.958 619.698 199.159 618.903 199.159C618.266 199.159 617.7 199.019 617.204 198.739C616.708 198.455 616.317 198.076 616.033 197.602C615.749 197.129 615.607 196.602 615.607 196.023H616.925C616.925 196.352 617.018 196.661 617.204 196.949C617.393 197.233 617.638 197.464 617.937 197.642C618.24 197.816 618.562 197.905 618.903 197.909C619.41 197.905 619.842 197.746 620.198 197.432C620.554 197.117 620.825 196.723 621.011 196.25C621.196 195.777 621.289 195.299 621.289 194.818V194.5C621.289 194.008 621.196 193.527 621.011 193.057C620.829 192.583 620.56 192.191 620.204 191.881C619.852 191.57 619.418 191.413 618.903 191.409ZM621.835 193.977V195.227H618.016V193.977H621.835Z" fill="white"/>
<ellipse cx="1.5" cy="24" rx="1.5" ry="24" transform="matrix(-1 0 0 1 847.5 112)" fill="#8684FF"/>
<path d="M826.847 180.159C826.097 180.159 825.429 180.03 824.842 179.773C824.258 179.515 823.794 179.157 823.45 178.699C823.109 178.237 822.923 177.701 822.893 177.091H824.325C824.355 177.466 824.484 177.79 824.711 178.062C824.938 178.331 825.236 178.54 825.603 178.688C825.97 178.835 826.378 178.909 826.825 178.909C827.325 178.909 827.768 178.822 828.154 178.648C828.54 178.473 828.844 178.231 829.063 177.92C829.283 177.61 829.393 177.25 829.393 176.841C829.393 176.413 829.287 176.036 829.075 175.71C828.862 175.381 828.552 175.123 828.143 174.938C827.734 174.752 827.234 174.659 826.643 174.659H825.711V173.409H826.643C827.105 173.409 827.51 173.326 827.859 173.159C828.211 172.992 828.486 172.758 828.683 172.455C828.883 172.152 828.984 171.795 828.984 171.386C828.984 170.992 828.897 170.65 828.722 170.358C828.548 170.066 828.302 169.839 827.984 169.676C827.669 169.513 827.298 169.432 826.87 169.432C826.469 169.432 826.09 169.506 825.734 169.653C825.381 169.797 825.094 170.008 824.87 170.284C824.647 170.557 824.525 170.886 824.506 171.273H823.143C823.165 170.663 823.349 170.129 823.694 169.67C824.039 169.208 824.489 168.848 825.046 168.591C825.607 168.333 826.222 168.205 826.893 168.205C827.612 168.205 828.23 168.35 828.745 168.642C829.26 168.93 829.656 169.311 829.933 169.784C830.209 170.258 830.347 170.769 830.347 171.318C830.347 171.973 830.175 172.532 829.83 172.994C829.489 173.456 829.025 173.777 828.438 173.955V174.045C829.173 174.167 829.747 174.479 830.16 174.983C830.573 175.483 830.779 176.102 830.779 176.841C830.779 177.473 830.607 178.042 830.262 178.545C829.921 179.045 829.455 179.439 828.864 179.727C828.273 180.015 827.601 180.159 826.847 180.159ZM837.126 172.523V171.273H844.217V172.523H841.353V180H840.012V172.523H837.126ZM847.332 174.432H849.832C850.854 174.432 851.637 174.691 852.178 175.21C852.72 175.729 852.991 176.386 852.991 177.182C852.991 177.705 852.87 178.18 852.627 178.608C852.385 179.032 852.029 179.371 851.559 179.625C851.089 179.875 850.513 180 849.832 180H846.173V171.273H847.513V178.75H849.832C850.362 178.75 850.798 178.61 851.138 178.33C851.479 178.049 851.65 177.689 851.65 177.25C851.65 176.788 851.479 176.411 851.138 176.119C850.798 175.828 850.362 175.682 849.832 175.682H847.332V174.432ZM854.377 180V171.273H855.718V180H854.377ZM861.718 180.182C860.9 180.182 860.195 179.989 859.604 179.602C859.013 179.216 858.559 178.684 858.241 178.006C857.923 177.328 857.763 176.553 857.763 175.682C857.763 174.795 857.926 174.013 858.252 173.335C858.582 172.653 859.04 172.121 859.627 171.739C860.218 171.352 860.907 171.159 861.695 171.159C862.309 171.159 862.862 171.273 863.354 171.5C863.847 171.727 864.25 172.045 864.565 172.455C864.879 172.864 865.074 173.341 865.15 173.886H863.809C863.707 173.489 863.479 173.136 863.127 172.83C862.779 172.519 862.309 172.364 861.718 172.364C861.195 172.364 860.737 172.5 860.343 172.773C859.953 173.042 859.648 173.422 859.428 173.915C859.212 174.403 859.104 174.977 859.104 175.636C859.104 176.311 859.21 176.898 859.423 177.398C859.638 177.898 859.942 178.286 860.332 178.562C860.726 178.839 861.188 178.977 861.718 178.977C862.067 178.977 862.383 178.917 862.667 178.795C862.951 178.674 863.192 178.5 863.388 178.273C863.585 178.045 863.726 177.773 863.809 177.455H865.15C865.074 177.97 864.887 178.434 864.587 178.847C864.292 179.256 863.9 179.581 863.411 179.824C862.926 180.062 862.362 180.182 861.718 180.182ZM868.087 180.091C867.807 180.091 867.567 179.991 867.366 179.79C867.165 179.589 867.065 179.348 867.065 179.068C867.065 178.788 867.165 178.547 867.366 178.347C867.567 178.146 867.807 178.045 868.087 178.045C868.368 178.045 868.608 178.146 868.809 178.347C869.01 178.547 869.11 178.788 869.11 179.068C869.11 179.254 869.063 179.424 868.968 179.58C868.877 179.735 868.754 179.86 868.599 179.955C868.447 180.045 868.277 180.091 868.087 180.091ZM807.509 199V197.75H807.827C808.089 197.75 808.307 197.699 808.481 197.597C808.655 197.491 808.795 197.307 808.901 197.045C809.011 196.78 809.094 196.413 809.151 195.943C809.212 195.47 809.255 194.867 809.282 194.136L809.441 190.273H815.259V199H813.918V191.523H810.714L810.577 194.636C810.547 195.352 810.483 195.983 810.384 196.528C810.29 197.07 810.144 197.525 809.947 197.892C809.754 198.259 809.496 198.536 809.174 198.722C808.852 198.907 808.449 199 807.964 199H807.509ZM821.379 199.182C820.538 199.182 819.812 198.996 819.202 198.625C818.596 198.25 818.129 197.727 817.799 197.057C817.473 196.383 817.31 195.598 817.31 194.705C817.31 193.811 817.473 193.023 817.799 192.341C818.129 191.655 818.587 191.121 819.174 190.739C819.765 190.352 820.454 190.159 821.242 190.159C821.697 190.159 822.146 190.235 822.589 190.386C823.032 190.538 823.435 190.784 823.799 191.125C824.163 191.462 824.452 191.909 824.668 192.466C824.884 193.023 824.992 193.708 824.992 194.523V195.091H818.265V193.932H823.629C823.629 193.439 823.53 193 823.333 192.614C823.14 192.227 822.863 191.922 822.504 191.699C822.147 191.475 821.727 191.364 821.242 191.364C820.708 191.364 820.246 191.496 819.856 191.761C819.469 192.023 819.172 192.364 818.964 192.784C818.755 193.205 818.651 193.655 818.651 194.136V194.909C818.651 195.568 818.765 196.127 818.992 196.585C819.223 197.04 819.543 197.386 819.952 197.625C820.362 197.86 820.837 197.977 821.379 197.977C821.731 197.977 822.049 197.928 822.333 197.83C822.621 197.727 822.869 197.576 823.077 197.375C823.286 197.17 823.447 196.917 823.56 196.614L824.856 196.977C824.719 197.417 824.49 197.803 824.168 198.136C823.846 198.466 823.449 198.723 822.975 198.909C822.502 199.091 821.969 199.182 821.379 199.182ZM826.219 191.523V190.273H833.31V191.523H830.447V199H829.106V191.523H826.219ZM838.835 201.5V197.75H839.562C839.74 197.564 839.893 197.364 840.022 197.148C840.151 196.932 840.263 196.676 840.357 196.381C840.456 196.081 840.539 195.718 840.607 195.29C840.675 194.858 840.736 194.337 840.789 193.727L841.085 190.273H846.63V197.75H847.971V201.5H846.63V199H840.175V201.5H838.835ZM841.085 197.75H845.289V191.523H842.335L842.107 193.727C842.013 194.64 841.895 195.437 841.755 196.119C841.615 196.801 841.391 197.345 841.085 197.75ZM853.296 199.182C852.508 199.182 851.817 198.994 851.222 198.619C850.631 198.244 850.169 197.72 849.836 197.045C849.506 196.371 849.342 195.583 849.342 194.682C849.342 193.773 849.506 192.979 849.836 192.301C850.169 191.623 850.631 191.097 851.222 190.722C851.817 190.347 852.508 190.159 853.296 190.159C854.084 190.159 854.773 190.347 855.364 190.722C855.959 191.097 856.421 191.623 856.751 192.301C857.084 192.979 857.251 193.773 857.251 194.682C857.251 195.583 857.084 196.371 856.751 197.045C856.421 197.72 855.959 198.244 855.364 198.619C854.773 198.994 854.084 199.182 853.296 199.182ZM853.296 197.977C853.895 197.977 854.387 197.824 854.773 197.517C855.16 197.21 855.446 196.807 855.631 196.307C855.817 195.807 855.91 195.265 855.91 194.682C855.91 194.098 855.817 193.555 855.631 193.051C855.446 192.547 855.16 192.14 854.773 191.83C854.387 191.519 853.895 191.364 853.296 191.364C852.698 191.364 852.205 191.519 851.819 191.83C851.433 192.14 851.147 192.547 850.961 193.051C850.775 193.555 850.683 194.098 850.683 194.682C850.683 195.265 850.775 195.807 850.961 196.307C851.147 196.807 851.433 197.21 851.819 197.517C852.205 197.824 852.698 197.977 853.296 197.977ZM869.638 194.023V195.273H864.82V194.023H869.638ZM865.138 190.273V199H863.798V190.273H865.138ZM870.661 190.273V199H869.32V190.273H870.661ZM874.087 199.091C873.807 199.091 873.567 198.991 873.366 198.79C873.165 198.589 873.065 198.348 873.065 198.068C873.065 197.788 873.165 197.547 873.366 197.347C873.567 197.146 873.807 197.045 874.087 197.045C874.368 197.045 874.608 197.146 874.809 197.347C875.01 197.547 875.11 197.788 875.11 198.068C875.11 198.254 875.063 198.424 874.968 198.58C874.877 198.735 874.754 198.86 874.599 198.955C874.447 199.045 874.277 199.091 874.087 199.091ZM880.403 191.409C880.1 191.413 879.795 191.491 879.488 191.642C879.185 191.794 878.931 191.994 878.727 192.244C878.526 192.491 878.425 192.765 878.425 193.068H877.107C877.107 192.689 877.198 192.326 877.38 191.977C877.562 191.629 877.806 191.318 878.113 191.045C878.424 190.773 878.776 190.557 879.17 190.398C879.567 190.239 879.978 190.159 880.403 190.159C881.198 190.159 881.872 190.36 882.425 190.761C882.982 191.163 883.405 191.693 883.692 192.352C883.984 193.011 884.13 193.727 884.13 194.5V194.818C884.13 195.587 883.984 196.303 883.692 196.966C883.405 197.625 882.982 198.155 882.425 198.557C881.872 198.958 881.198 199.159 880.403 199.159C879.766 199.159 879.2 199.019 878.704 198.739C878.208 198.455 877.817 198.076 877.533 197.602C877.249 197.129 877.107 196.602 877.107 196.023H878.425C878.425 196.352 878.518 196.661 878.704 196.949C878.893 197.233 879.138 197.464 879.437 197.642C879.74 197.816 880.062 197.905 880.403 197.909C880.91 197.905 881.342 197.746 881.698 197.432C882.054 197.117 882.325 196.723 882.511 196.25C882.696 195.777 882.789 195.299 882.789 194.818V194.5C882.789 194.008 882.696 193.527 882.511 193.057C882.329 192.583 882.06 192.191 881.704 191.881C881.352 191.57 880.918 191.413 880.403 191.409ZM883.335 193.977V195.227H879.516V193.977H883.335Z" fill="white"/>
<ellipse cx="1.5" cy="24" rx="1.5" ry="24" transform="matrix(-1 0 0 1 1109 112)" fill="#8684FF"/>
<path d="M1084.67 180V178.977L1088.51 174.773C1088.96 174.28 1089.33 173.852 1089.62 173.489C1089.91 173.121 1090.13 172.777 1090.27 172.455C1090.41 172.129 1090.48 171.788 1090.48 171.432C1090.48 171.023 1090.39 170.669 1090.19 170.369C1090 170.07 1089.73 169.839 1089.39 169.676C1089.06 169.513 1088.68 169.432 1088.26 169.432C1087.81 169.432 1087.42 169.525 1087.09 169.71C1086.76 169.892 1086.5 170.148 1086.32 170.477C1086.14 170.807 1086.05 171.193 1086.05 171.636H1084.71C1084.71 170.955 1084.87 170.356 1085.18 169.841C1085.5 169.326 1085.92 168.924 1086.47 168.636C1087.01 168.348 1087.62 168.205 1088.3 168.205C1088.98 168.205 1089.59 168.348 1090.11 168.636C1090.64 168.924 1091.05 169.312 1091.35 169.801C1091.65 170.29 1091.8 170.833 1091.8 171.432C1091.8 171.86 1091.72 172.278 1091.57 172.688C1091.42 173.093 1091.15 173.545 1090.77 174.045C1090.4 174.542 1089.88 175.148 1089.21 175.864L1086.6 178.659V178.75H1092.01V180H1084.67ZM1098.38 172.523V171.273H1105.47V172.523H1102.6V180H1101.26V172.523H1098.38ZM1108.58 174.432H1111.08C1112.1 174.432 1112.89 174.691 1113.43 175.21C1113.97 175.729 1114.24 176.386 1114.24 177.182C1114.24 177.705 1114.12 178.18 1113.88 178.608C1113.63 179.032 1113.28 179.371 1112.81 179.625C1112.34 179.875 1111.76 180 1111.08 180H1107.42V171.273H1108.76V178.75H1111.08C1111.61 178.75 1112.05 178.61 1112.39 178.33C1112.73 178.049 1112.9 177.689 1112.9 177.25C1112.9 176.788 1112.73 176.411 1112.39 176.119C1112.05 175.828 1111.61 175.682 1111.08 175.682H1108.58V174.432ZM1115.63 180V171.273H1116.97V180H1115.63ZM1122.97 180.182C1122.15 180.182 1121.45 179.989 1120.85 179.602C1120.26 179.216 1119.81 178.684 1119.49 178.006C1119.17 177.328 1119.01 176.553 1119.01 175.682C1119.01 174.795 1119.18 174.013 1119.5 173.335C1119.83 172.653 1120.29 172.121 1120.88 171.739C1121.47 171.352 1122.16 171.159 1122.95 171.159C1123.56 171.159 1124.11 171.273 1124.6 171.5C1125.1 171.727 1125.5 172.045 1125.81 172.455C1126.13 172.864 1126.32 173.341 1126.4 173.886H1125.06C1124.96 173.489 1124.73 173.136 1124.38 172.83C1124.03 172.519 1123.56 172.364 1122.97 172.364C1122.45 172.364 1121.99 172.5 1121.59 172.773C1121.2 173.042 1120.9 173.422 1120.68 173.915C1120.46 174.403 1120.35 174.977 1120.35 175.636C1120.35 176.311 1120.46 176.898 1120.67 177.398C1120.89 177.898 1121.19 178.286 1121.58 178.562C1121.98 178.839 1122.44 178.977 1122.97 178.977C1123.32 178.977 1123.63 178.917 1123.92 178.795C1124.2 178.674 1124.44 178.5 1124.64 178.273C1124.84 178.045 1124.98 177.773 1125.06 177.455H1126.4C1126.32 177.97 1126.14 178.434 1125.84 178.847C1125.54 179.256 1125.15 179.581 1124.66 179.824C1124.18 180.062 1123.61 180.182 1122.97 180.182ZM1129.34 180.091C1129.06 180.091 1128.82 179.991 1128.62 179.79C1128.42 179.589 1128.31 179.348 1128.31 179.068C1128.31 178.788 1128.42 178.547 1128.62 178.347C1128.82 178.146 1129.06 178.045 1129.34 178.045C1129.62 178.045 1129.86 178.146 1130.06 178.347C1130.26 178.547 1130.36 178.788 1130.36 179.068C1130.36 179.254 1130.31 179.424 1130.22 179.58C1130.13 179.735 1130 179.86 1129.85 179.955C1129.7 180.045 1129.53 180.091 1129.34 180.091ZM1069.01 199V197.75H1069.33C1069.59 197.75 1069.81 197.699 1069.98 197.597C1070.16 197.491 1070.3 197.307 1070.4 197.045C1070.51 196.78 1070.59 196.413 1070.65 195.943C1070.71 195.47 1070.76 194.867 1070.78 194.136L1070.94 190.273H1076.76V199H1075.42V191.523H1072.21L1072.08 194.636C1072.05 195.352 1071.98 195.983 1071.88 196.528C1071.79 197.07 1071.64 197.525 1071.45 197.892C1071.25 198.259 1071 198.536 1070.67 198.722C1070.35 198.907 1069.95 199 1069.46 199H1069.01ZM1082.88 199.182C1082.04 199.182 1081.31 198.996 1080.7 198.625C1080.1 198.25 1079.63 197.727 1079.3 197.057C1078.97 196.383 1078.81 195.598 1078.81 194.705C1078.81 193.811 1078.97 193.023 1079.3 192.341C1079.63 191.655 1080.09 191.121 1080.67 190.739C1081.26 190.352 1081.95 190.159 1082.74 190.159C1083.2 190.159 1083.65 190.235 1084.09 190.386C1084.53 190.538 1084.94 190.784 1085.3 191.125C1085.66 191.462 1085.95 191.909 1086.17 192.466C1086.38 193.023 1086.49 193.708 1086.49 194.523V195.091H1079.76V193.932H1085.13C1085.13 193.439 1085.03 193 1084.83 192.614C1084.64 192.227 1084.36 191.922 1084 191.699C1083.65 191.475 1083.23 191.364 1082.74 191.364C1082.21 191.364 1081.75 191.496 1081.36 191.761C1080.97 192.023 1080.67 192.364 1080.46 192.784C1080.26 193.205 1080.15 193.655 1080.15 194.136V194.909C1080.15 195.568 1080.26 196.127 1080.49 196.585C1080.72 197.04 1081.04 197.386 1081.45 197.625C1081.86 197.86 1082.34 197.977 1082.88 197.977C1083.23 197.977 1083.55 197.928 1083.83 197.83C1084.12 197.727 1084.37 197.576 1084.58 197.375C1084.79 197.17 1084.95 196.917 1085.06 196.614L1086.36 196.977C1086.22 197.417 1085.99 197.803 1085.67 198.136C1085.35 198.466 1084.95 198.723 1084.48 198.909C1084 199.091 1083.47 199.182 1082.88 199.182ZM1087.72 191.523V190.273H1094.81V191.523H1091.95V199H1090.61V191.523H1087.72ZM1100.33 201.5V197.75H1101.06C1101.24 197.564 1101.39 197.364 1101.52 197.148C1101.65 196.932 1101.76 196.676 1101.86 196.381C1101.96 196.081 1102.04 195.718 1102.11 195.29C1102.18 194.858 1102.24 194.337 1102.29 193.727L1102.58 190.273H1108.13V197.75H1109.47V201.5H1108.13V199H1101.68V201.5H1100.33ZM1102.58 197.75H1106.79V191.523H1103.83L1103.61 193.727C1103.51 194.64 1103.4 195.437 1103.25 196.119C1103.11 196.801 1102.89 197.345 1102.58 197.75ZM1114.8 199.182C1114.01 199.182 1113.32 198.994 1112.72 198.619C1112.13 198.244 1111.67 197.72 1111.34 197.045C1111.01 196.371 1110.84 195.583 1110.84 194.682C1110.84 193.773 1111.01 192.979 1111.34 192.301C1111.67 191.623 1112.13 191.097 1112.72 190.722C1113.32 190.347 1114.01 190.159 1114.8 190.159C1115.58 190.159 1116.27 190.347 1116.86 190.722C1117.46 191.097 1117.92 191.623 1118.25 192.301C1118.58 192.979 1118.75 193.773 1118.75 194.682C1118.75 195.583 1118.58 196.371 1118.25 197.045C1117.92 197.72 1117.46 198.244 1116.86 198.619C1116.27 198.994 1115.58 199.182 1114.8 199.182ZM1114.8 197.977C1115.39 197.977 1115.89 197.824 1116.27 197.517C1116.66 197.21 1116.95 196.807 1117.13 196.307C1117.32 195.807 1117.41 195.265 1117.41 194.682C1117.41 194.098 1117.32 193.555 1117.13 193.051C1116.95 192.547 1116.66 192.14 1116.27 191.83C1115.89 191.519 1115.39 191.364 1114.8 191.364C1114.2 191.364 1113.71 191.519 1113.32 191.83C1112.93 192.14 1112.65 192.547 1112.46 193.051C1112.28 193.555 1112.18 194.098 1112.18 194.682C1112.18 195.265 1112.28 195.807 1112.46 196.307C1112.65 196.807 1112.93 197.21 1113.32 197.517C1113.71 197.824 1114.2 197.977 1114.8 197.977ZM1131.14 194.023V195.273H1126.32V194.023H1131.14ZM1126.64 190.273V199H1125.3V190.273H1126.64ZM1132.16 190.273V199H1130.82V190.273H1132.16ZM1135.59 199.091C1135.31 199.091 1135.07 198.991 1134.87 198.79C1134.67 198.589 1134.56 198.348 1134.56 198.068C1134.56 197.788 1134.67 197.547 1134.87 197.347C1135.07 197.146 1135.31 197.045 1135.59 197.045C1135.87 197.045 1136.11 197.146 1136.31 197.347C1136.51 197.547 1136.61 197.788 1136.61 198.068C1136.61 198.254 1136.56 198.424 1136.47 198.58C1136.38 198.735 1136.25 198.86 1136.1 198.955C1135.95 199.045 1135.78 199.091 1135.59 199.091ZM1141.9 191.409C1141.6 191.413 1141.29 191.491 1140.99 191.642C1140.68 191.794 1140.43 191.994 1140.23 192.244C1140.03 192.491 1139.93 192.765 1139.93 193.068H1138.61C1138.61 192.689 1138.7 192.326 1138.88 191.977C1139.06 191.629 1139.31 191.318 1139.61 191.045C1139.92 190.773 1140.28 190.557 1140.67 190.398C1141.07 190.239 1141.48 190.159 1141.9 190.159C1142.7 190.159 1143.37 190.36 1143.93 190.761C1144.48 191.163 1144.9 191.693 1145.19 192.352C1145.48 193.011 1145.63 193.727 1145.63 194.5V194.818C1145.63 195.587 1145.48 196.303 1145.19 196.966C1144.9 197.625 1144.48 198.155 1143.93 198.557C1143.37 198.958 1142.7 199.159 1141.9 199.159C1141.27 199.159 1140.7 199.019 1140.2 198.739C1139.71 198.455 1139.32 198.076 1139.03 197.602C1138.75 197.129 1138.61 196.602 1138.61 196.023H1139.93C1139.93 196.352 1140.02 196.661 1140.2 196.949C1140.39 197.233 1140.64 197.464 1140.94 197.642C1141.24 197.816 1141.56 197.905 1141.9 197.909C1142.41 197.905 1142.84 197.746 1143.2 197.432C1143.55 197.117 1143.83 196.723 1144.01 196.25C1144.2 195.777 1144.29 195.299 1144.29 194.818V194.5C1144.29 194.008 1144.2 193.527 1144.01 193.057C1143.83 192.583 1143.56 192.191 1143.2 191.881C1142.85 191.57 1142.42 191.413 1141.9 191.409ZM1144.83 193.977V195.227H1141.02V193.977H1144.83Z" fill="white"/>
</g>
<defs>
<filter id="filter0_d_250_418" x="0" y="0" width="1232" height="287" filterUnits="userSpaceOnUse" color-interpolation-filters="sRGB">
<feFlood flood-opacity="0" result="BackgroundImageFix"/>
<feColorMatrix in="SourceAlpha" type="matrix" values="0 0 0 0 0 0 0 0 0 0 0 0 0 0 0 0 0 0 127 0" result="hardAlpha"/>
<feOffset dy="4"/>
<feGaussianBlur stdDeviation="2"/>
<feComposite in2="hardAlpha" operator="out"/>
<feColorMatrix type="matrix" values="0 0 0 0 0 0 0 0 0 0 0 0 0 0 0 0 0 0 0.25 0"/>
<feBlend mode="normal" in2="BackgroundImageFix" result="effect1_dropShadow_250_418"/>
<feBlend mode="normal" in="SourceGraphic" in2="effect1_dropShadow_250_418" result="shape"/>
</filter>
</defs>
</svg>
