<svg width="1232" height="309" viewBox="0 0 1232 309" fill="none" xmlns="http://www.w3.org/2000/svg">
<g filter="url(#filter0_d_250_457)">
<rect x="4" width="1224" height="301" rx="15" fill="#272644" fill-opacity="0.8" shape-rendering="crispEdges"/>
<path d="M1226.47 149.475C1227.84 148.108 1227.84 145.892 1226.47 144.525L1204.2 122.251C1202.83 120.884 1200.62 120.884 1199.25 122.251C1197.88 123.618 1197.88 125.834 1199.25 127.201L1219.05 147L1199.25 166.799C1197.88 168.166 1197.88 170.382 1199.25 171.749C1200.62 173.116 1202.83 173.116 1204.2 171.749L1226.47 149.475ZM1180 150.5H1224V143.5H1180V150.5Z" fill="white"/>
<path d="M153.773 132.182C152.985 132.182 152.294 131.994 151.699 131.619C151.108 131.244 150.646 130.72 150.312 130.045C149.983 129.371 149.818 128.583 149.818 127.682C149.818 126.773 149.983 125.979 150.312 125.301C150.646 124.623 151.108 124.097 151.699 123.722C152.294 123.347 152.985 123.159 153.773 123.159C154.561 123.159 155.25 123.347 155.841 123.722C156.436 124.097 156.898 124.623 157.227 125.301C157.561 125.979 157.727 126.773 157.727 127.682C157.727 128.583 157.561 129.371 157.227 130.045C156.898 130.72 156.436 131.244 155.841 131.619C155.25 131.994 154.561 132.182 153.773 132.182ZM153.773 130.977C154.371 130.977 154.864 130.824 155.25 130.517C155.636 130.21 155.922 129.807 156.108 129.307C156.294 128.807 156.386 128.265 156.386 127.682C156.386 127.098 156.294 126.555 156.108 126.051C155.922 125.547 155.636 125.14 155.25 124.83C154.864 124.519 154.371 124.364 153.773 124.364C153.174 124.364 152.682 124.519 152.295 124.83C151.909 125.14 151.623 125.547 151.438 126.051C151.252 126.555 151.159 127.098 151.159 127.682C151.159 128.265 151.252 128.807 151.438 129.307C151.623 129.807 151.909 130.21 152.295 130.517C152.682 130.824 153.174 130.977 153.773 130.977ZM159.001 132V130.75H159.32C159.581 130.75 159.799 130.699 159.973 130.597C160.147 130.491 160.287 130.307 160.393 130.045C160.503 129.78 160.587 129.413 160.643 128.943C160.704 128.47 160.748 127.867 160.774 127.136L160.933 123.273H166.751V132H165.411V124.523H162.206L162.07 127.636C162.039 128.352 161.975 128.983 161.876 129.528C161.782 130.07 161.636 130.525 161.439 130.892C161.246 131.259 160.988 131.536 160.666 131.722C160.344 131.907 159.941 132 159.456 132H159.001ZM168.28 134.5V130.75H169.007C169.185 130.564 169.339 130.364 169.467 130.148C169.596 129.932 169.708 129.676 169.803 129.381C169.901 129.081 169.984 128.718 170.053 128.29C170.121 127.858 170.181 127.337 170.234 126.727L170.53 123.273H176.075V130.75H177.416V134.5H176.075V132H169.621V134.5H168.28ZM170.53 130.75H174.734V124.523H171.78L171.553 126.727C171.458 127.64 171.34 128.437 171.2 129.119C171.06 129.801 170.837 130.345 170.53 130.75ZM180.06 135.273C179.832 135.273 179.63 135.254 179.452 135.216C179.274 135.182 179.151 135.148 179.082 135.114L179.423 133.932C179.749 134.015 180.037 134.045 180.287 134.023C180.537 134 180.759 133.888 180.952 133.688C181.149 133.491 181.329 133.17 181.491 132.727L181.741 132.045L178.514 123.273H179.969L182.378 130.227H182.469L184.878 123.273H186.332L182.628 133.273C182.461 133.723 182.255 134.097 182.009 134.392C181.762 134.691 181.476 134.913 181.151 135.057C180.829 135.201 180.465 135.273 180.06 135.273ZM188.102 132V123.273H191.67C192.61 123.273 193.356 123.485 193.909 123.909C194.462 124.333 194.739 124.894 194.739 125.591C194.739 126.121 194.581 126.532 194.267 126.824C193.953 127.112 193.549 127.307 193.057 127.409C193.379 127.455 193.691 127.568 193.994 127.75C194.301 127.932 194.555 128.182 194.756 128.5C194.956 128.814 195.057 129.201 195.057 129.659C195.057 130.106 194.943 130.506 194.716 130.858C194.489 131.21 194.163 131.489 193.739 131.693C193.314 131.898 192.807 132 192.216 132H188.102ZM189.375 130.773H192.216C192.678 130.773 193.04 130.663 193.301 130.443C193.563 130.223 193.693 129.924 193.693 129.545C193.693 129.095 193.563 128.741 193.301 128.483C193.04 128.222 192.678 128.091 192.216 128.091H189.375V130.773ZM189.375 126.932H191.67C192.03 126.932 192.339 126.883 192.597 126.784C192.854 126.682 193.051 126.538 193.188 126.352C193.328 126.163 193.398 125.939 193.398 125.682C193.398 125.314 193.244 125.027 192.938 124.818C192.631 124.606 192.208 124.5 191.67 124.5H189.375V126.932ZM199.655 132.205C199.102 132.205 198.6 132.1 198.149 131.892C197.698 131.68 197.34 131.375 197.075 130.977C196.81 130.576 196.678 130.091 196.678 129.523C196.678 129.023 196.776 128.617 196.973 128.307C197.17 127.992 197.433 127.746 197.763 127.568C198.092 127.39 198.456 127.258 198.854 127.17C199.255 127.08 199.659 127.008 200.064 126.955C200.594 126.886 201.024 126.835 201.354 126.801C201.687 126.763 201.929 126.701 202.081 126.614C202.236 126.527 202.314 126.375 202.314 126.159V126.114C202.314 125.553 202.161 125.117 201.854 124.807C201.551 124.496 201.09 124.341 200.473 124.341C199.833 124.341 199.331 124.481 198.967 124.761C198.604 125.042 198.348 125.341 198.2 125.659L196.928 125.205C197.155 124.674 197.458 124.261 197.837 123.966C198.219 123.667 198.636 123.458 199.087 123.341C199.541 123.22 199.988 123.159 200.428 123.159C200.708 123.159 201.03 123.193 201.393 123.261C201.761 123.326 202.115 123.46 202.456 123.665C202.801 123.869 203.087 124.178 203.314 124.591C203.541 125.004 203.655 125.557 203.655 126.25V132H202.314V130.818H202.246C202.155 131.008 202.003 131.21 201.791 131.426C201.579 131.642 201.297 131.826 200.945 131.977C200.592 132.129 200.162 132.205 199.655 132.205ZM199.859 131C200.39 131 200.837 130.896 201.2 130.688C201.568 130.479 201.844 130.21 202.03 129.881C202.219 129.551 202.314 129.205 202.314 128.841V127.614C202.257 127.682 202.132 127.744 201.939 127.801C201.75 127.854 201.53 127.902 201.28 127.943C201.034 127.981 200.793 128.015 200.558 128.045C200.327 128.072 200.14 128.095 199.996 128.114C199.647 128.159 199.321 128.233 199.018 128.335C198.719 128.434 198.477 128.583 198.291 128.784C198.109 128.981 198.018 129.25 198.018 129.591C198.018 130.057 198.191 130.409 198.536 130.648C198.884 130.883 199.325 131 199.859 131ZM207.443 130.023L211.648 123.273H213.193V132H211.852V125.25L207.67 132H206.102V123.273H207.443V130.023ZM210.761 120.364H212.011C212.011 120.977 211.799 121.479 211.375 121.869C210.951 122.259 210.375 122.455 209.648 122.455C208.932 122.455 208.362 122.259 207.938 121.869C207.517 121.479 207.307 120.977 207.307 120.364H208.557C208.557 120.659 208.638 120.919 208.801 121.142C208.968 121.366 209.25 121.477 209.648 121.477C210.045 121.477 210.33 121.366 210.5 121.142C210.674 120.919 210.761 120.659 210.761 120.364Z" fill="white"/>
<path d="M431.795 132.205C431.242 132.205 430.741 132.1 430.29 131.892C429.839 131.68 429.481 131.375 429.216 130.977C428.951 130.576 428.818 130.091 428.818 129.523C428.818 129.023 428.917 128.617 429.114 128.307C429.311 127.992 429.574 127.746 429.903 127.568C430.233 127.39 430.597 127.258 430.994 127.17C431.396 127.08 431.799 127.008 432.205 126.955C432.735 126.886 433.165 126.835 433.494 126.801C433.828 126.763 434.07 126.701 434.222 126.614C434.377 126.527 434.455 126.375 434.455 126.159V126.114C434.455 125.553 434.301 125.117 433.994 124.807C433.691 124.496 433.231 124.341 432.614 124.341C431.973 124.341 431.472 124.481 431.108 124.761C430.744 125.042 430.489 125.341 430.341 125.659L429.068 125.205C429.295 124.674 429.598 124.261 429.977 123.966C430.36 123.667 430.777 123.458 431.227 123.341C431.682 123.22 432.129 123.159 432.568 123.159C432.848 123.159 433.17 123.193 433.534 123.261C433.902 123.326 434.256 123.46 434.597 123.665C434.941 123.869 435.227 124.178 435.455 124.591C435.682 125.004 435.795 125.557 435.795 126.25V132H434.455V130.818H434.386C434.295 131.008 434.144 131.21 433.932 131.426C433.72 131.642 433.438 131.826 433.085 131.977C432.733 132.129 432.303 132.205 431.795 132.205ZM432 131C432.53 131 432.977 130.896 433.341 130.688C433.708 130.479 433.985 130.21 434.17 129.881C434.36 129.551 434.455 129.205 434.455 128.841V127.614C434.398 127.682 434.273 127.744 434.08 127.801C433.89 127.854 433.67 127.902 433.42 127.943C433.174 127.981 432.934 128.015 432.699 128.045C432.468 128.072 432.28 128.095 432.136 128.114C431.788 128.159 431.462 128.233 431.159 128.335C430.86 128.434 430.617 128.583 430.432 128.784C430.25 128.981 430.159 129.25 430.159 129.591C430.159 130.057 430.331 130.409 430.676 130.648C431.025 130.883 431.466 131 432 131ZM438.243 123.273H439.584V130.75H442.879V123.273H444.22V130.75H447.516V123.273H448.857V132H438.243V123.273ZM454.964 132.182C454.124 132.182 453.398 131.996 452.788 131.625C452.182 131.25 451.714 130.727 451.385 130.057C451.059 129.383 450.896 128.598 450.896 127.705C450.896 126.811 451.059 126.023 451.385 125.341C451.714 124.655 452.173 124.121 452.76 123.739C453.351 123.352 454.04 123.159 454.828 123.159C455.283 123.159 455.732 123.235 456.175 123.386C456.618 123.538 457.021 123.784 457.385 124.125C457.749 124.462 458.038 124.909 458.254 125.466C458.47 126.023 458.578 126.708 458.578 127.523V128.091H451.851V126.932H457.214C457.214 126.439 457.116 126 456.919 125.614C456.726 125.227 456.449 124.922 456.089 124.699C455.733 124.475 455.313 124.364 454.828 124.364C454.294 124.364 453.832 124.496 453.442 124.761C453.055 125.023 452.758 125.364 452.55 125.784C452.341 126.205 452.237 126.655 452.237 127.136V127.909C452.237 128.568 452.351 129.127 452.578 129.585C452.809 130.04 453.129 130.386 453.538 130.625C453.947 130.86 454.423 130.977 454.964 130.977C455.317 130.977 455.635 130.928 455.919 130.83C456.207 130.727 456.455 130.576 456.663 130.375C456.872 130.17 457.033 129.917 457.146 129.614L458.442 129.977C458.305 130.417 458.076 130.803 457.754 131.136C457.432 131.466 457.035 131.723 456.561 131.909C456.088 132.091 455.555 132.182 454.964 132.182ZM459.845 132V130.75H460.163C460.425 130.75 460.643 130.699 460.817 130.597C460.991 130.491 461.131 130.307 461.237 130.045C461.347 129.78 461.43 129.413 461.487 128.943C461.548 128.47 461.591 127.867 461.618 127.136L461.777 123.273H467.595V132H466.254V124.523H463.05L462.913 127.636C462.883 128.352 462.819 128.983 462.72 129.528C462.625 130.07 462.48 130.525 462.283 130.892C462.089 131.259 461.832 131.536 461.51 131.722C461.188 131.907 460.785 132 460.3 132H459.845ZM471.214 126.432H473.714C474.737 126.432 475.519 126.691 476.061 127.21C476.603 127.729 476.874 128.386 476.874 129.182C476.874 129.705 476.752 130.18 476.51 130.608C476.268 131.032 475.911 131.371 475.442 131.625C474.972 131.875 474.396 132 473.714 132H470.055V123.273H471.396V130.75H473.714C474.245 130.75 474.68 130.61 475.021 130.33C475.362 130.049 475.533 129.689 475.533 129.25C475.533 128.788 475.362 128.411 475.021 128.119C474.68 127.828 474.245 127.682 473.714 127.682H471.214V126.432Z" fill="white"/>
<path d="M697 130.182L700.045 123.273H701.318L697.545 132H696.455L692.75 123.273H694L697 130.182ZM693.568 123.273V132H692.227V123.273H693.568ZM700.432 132V123.273H701.773V132H700.432ZM704.778 135.273C704.551 135.273 704.348 135.254 704.17 135.216C703.992 135.182 703.869 135.148 703.801 135.114L704.142 133.932C704.468 134.015 704.756 134.045 705.006 134.023C705.256 134 705.477 133.888 705.67 133.688C705.867 133.491 706.047 133.17 706.21 132.727L706.46 132.045L703.233 123.273H704.688L707.097 130.227H707.188L709.597 123.273H711.051L707.347 133.273C707.18 133.723 706.973 134.097 706.727 134.392C706.481 134.691 706.195 134.913 705.869 135.057C705.547 135.201 705.184 135.273 704.778 135.273ZM716.054 132.182C715.236 132.182 714.531 131.989 713.94 131.602C713.349 131.216 712.895 130.684 712.577 130.006C712.259 129.328 712.099 128.553 712.099 127.682C712.099 126.795 712.262 126.013 712.588 125.335C712.918 124.653 713.376 124.121 713.963 123.739C714.554 123.352 715.243 123.159 716.031 123.159C716.645 123.159 717.198 123.273 717.69 123.5C718.183 123.727 718.586 124.045 718.901 124.455C719.215 124.864 719.41 125.341 719.486 125.886H718.145C718.043 125.489 717.815 125.136 717.463 124.83C717.115 124.519 716.645 124.364 716.054 124.364C715.531 124.364 715.073 124.5 714.679 124.773C714.289 125.042 713.984 125.422 713.764 125.915C713.548 126.403 713.44 126.977 713.44 127.636C713.44 128.311 713.546 128.898 713.759 129.398C713.974 129.898 714.277 130.286 714.668 130.562C715.062 130.839 715.524 130.977 716.054 130.977C716.402 130.977 716.719 130.917 717.003 130.795C717.287 130.674 717.527 130.5 717.724 130.273C717.921 130.045 718.062 129.773 718.145 129.455H719.486C719.41 129.97 719.223 130.434 718.923 130.847C718.628 131.256 718.236 131.581 717.747 131.824C717.262 132.062 716.698 132.182 716.054 132.182ZM720.759 124.523V123.273H727.849V124.523H724.986V132H723.645V124.523H720.759ZM730.964 126.432H733.464C734.487 126.432 735.269 126.691 735.811 127.21C736.353 127.729 736.624 128.386 736.624 129.182C736.624 129.705 736.502 130.18 736.26 130.608C736.018 131.032 735.661 131.371 735.192 131.625C734.722 131.875 734.146 132 733.464 132H729.805V123.273H731.146V130.75H733.464C733.995 130.75 734.43 130.61 734.771 130.33C735.112 130.049 735.283 129.689 735.283 129.25C735.283 128.788 735.112 128.411 734.771 128.119C734.43 127.828 733.995 127.682 733.464 127.682H730.964V126.432ZM742.324 132.182C741.483 132.182 740.758 131.996 740.148 131.625C739.542 131.25 739.074 130.727 738.744 130.057C738.419 129.383 738.256 128.598 738.256 127.705C738.256 126.811 738.419 126.023 738.744 125.341C739.074 124.655 739.532 124.121 740.119 123.739C740.71 123.352 741.4 123.159 742.188 123.159C742.642 123.159 743.091 123.235 743.534 123.386C743.977 123.538 744.381 123.784 744.744 124.125C745.108 124.462 745.398 124.909 745.614 125.466C745.83 126.023 745.938 126.708 745.938 127.523V128.091H739.21V126.932H744.574C744.574 126.439 744.475 126 744.278 125.614C744.085 125.227 743.809 124.922 743.449 124.699C743.093 124.475 742.672 124.364 742.188 124.364C741.653 124.364 741.191 124.496 740.801 124.761C740.415 125.023 740.117 125.364 739.909 125.784C739.701 126.205 739.597 126.655 739.597 127.136V127.909C739.597 128.568 739.71 129.127 739.938 129.585C740.169 130.04 740.489 130.386 740.898 130.625C741.307 130.86 741.782 130.977 742.324 130.977C742.676 130.977 742.994 130.928 743.278 130.83C743.566 130.727 743.814 130.576 744.023 130.375C744.231 130.17 744.392 129.917 744.506 129.614L745.801 129.977C745.665 130.417 745.436 130.803 745.114 131.136C744.792 131.466 744.394 131.723 743.92 131.909C743.447 132.091 742.915 132.182 742.324 132.182Z" fill="white"/>
<path d="M353.722 53V35.5455H360.267C361.608 35.5455 362.733 35.7955 363.642 36.2955C364.557 36.7955 365.247 37.483 365.713 38.358C366.185 39.2273 366.42 40.2159 366.42 41.3239C366.42 42.4432 366.185 43.4375 365.713 44.3068C365.241 45.1761 364.545 45.8608 363.625 46.3608C362.705 46.8551 361.571 47.1023 360.224 47.1023H355.886V44.5028H359.798C360.582 44.5028 361.224 44.3665 361.724 44.0938C362.224 43.821 362.594 43.446 362.832 42.9688C363.077 42.4915 363.199 41.9432 363.199 41.3239C363.199 40.7045 363.077 40.1591 362.832 39.6875C362.594 39.2159 362.222 38.8494 361.716 38.5881C361.216 38.321 360.571 38.1875 359.781 38.1875H356.884V53H353.722ZM372.563 53.2642C371.734 53.2642 370.987 53.1165 370.322 52.821C369.663 52.5199 369.14 52.0767 368.754 51.4915C368.373 50.9062 368.183 50.1847 368.183 49.3267C368.183 48.5881 368.319 47.9773 368.592 47.4943C368.864 47.0114 369.237 46.625 369.708 46.3352C370.18 46.0455 370.711 45.8267 371.302 45.679C371.898 45.5256 372.515 45.4148 373.151 45.3466C373.918 45.267 374.54 45.196 375.018 45.1335C375.495 45.0653 375.842 44.9631 376.058 44.8267C376.279 44.6847 376.39 44.4659 376.39 44.1705V44.1193C376.39 43.4773 376.2 42.9801 375.819 42.6278C375.438 42.2756 374.89 42.0994 374.174 42.0994C373.418 42.0994 372.819 42.2642 372.376 42.5938C371.938 42.9233 371.643 43.3125 371.489 43.7614L368.609 43.3523C368.836 42.5568 369.211 41.892 369.734 41.358C370.256 40.8182 370.896 40.4148 371.651 40.1477C372.407 39.875 373.242 39.7386 374.157 39.7386C374.788 39.7386 375.415 39.8125 376.04 39.9602C376.665 40.108 377.237 40.3523 377.754 40.6932C378.271 41.0284 378.685 41.4858 378.998 42.0653C379.316 42.6449 379.475 43.3693 379.475 44.2386V53H376.509V51.2017H376.407C376.219 51.5653 375.955 51.9062 375.614 52.2244C375.279 52.5369 374.856 52.7898 374.344 52.983C373.839 53.1705 373.245 53.2642 372.563 53.2642ZM373.364 50.9972C373.984 50.9972 374.521 50.875 374.975 50.6307C375.43 50.3807 375.779 50.0511 376.023 49.642C376.273 49.233 376.398 48.7869 376.398 48.304V46.7614C376.302 46.8409 376.137 46.9148 375.904 46.983C375.677 47.0511 375.421 47.1108 375.137 47.1619C374.853 47.2131 374.572 47.2585 374.293 47.2983C374.015 47.3381 373.773 47.3722 373.569 47.4006C373.109 47.4631 372.697 47.5653 372.333 47.7074C371.969 47.8494 371.683 48.0483 371.472 48.304C371.262 48.554 371.157 48.8778 371.157 49.2756C371.157 49.8438 371.364 50.2727 371.779 50.5625C372.194 50.8523 372.722 50.9972 373.364 50.9972ZM391.569 45.1761V47.7074H384.597V45.1761H391.569ZM385.552 39.9091V53H382.577V39.9091H385.552ZM393.589 39.9091V53H390.623V39.9091H393.589ZM405.702 45.1761V47.7074H398.73V45.1761H405.702ZM399.685 39.9091V53H396.71V39.9091H399.685ZM407.722 39.9091V53H404.756V39.9091H407.722ZM413.817 48.8239L419.059 39.9091H422.229V53H419.246V44.0767L414.022 53H410.843V39.9091H413.817V48.8239ZM428.372 48.8239L433.614 39.9091H436.784V53H433.801V44.0767L428.577 53H425.398V39.9091H428.372V48.8239ZM432.77 35.4091H435.08C435.08 36.4034 434.719 37.2102 433.997 37.8295C433.281 38.4432 432.31 38.75 431.082 38.75C429.866 38.75 428.898 38.4432 428.176 37.8295C427.46 37.2102 427.105 36.4034 427.111 35.4091H429.403C429.403 35.8182 429.528 36.1847 429.778 36.5085C430.034 36.8267 430.469 36.9858 431.082 36.9858C431.685 36.9858 432.114 36.8267 432.369 36.5085C432.631 36.1903 432.764 35.8239 432.77 35.4091ZM445.906 53V39.9091H456.96V53H453.985V42.4403H448.854V53H445.906ZM463.899 53.2642C463.07 53.2642 462.322 53.1165 461.658 52.821C460.999 52.5199 460.476 52.0767 460.089 51.4915C459.709 50.9062 459.518 50.1847 459.518 49.3267C459.518 48.5881 459.655 47.9773 459.928 47.4943C460.2 47.0114 460.572 46.625 461.044 46.3352C461.516 46.0455 462.047 45.8267 462.638 45.679C463.234 45.5256 463.851 45.4148 464.487 45.3466C465.254 45.267 465.876 45.196 466.354 45.1335C466.831 45.0653 467.178 44.9631 467.393 44.8267C467.615 44.6847 467.726 44.4659 467.726 44.1705V44.1193C467.726 43.4773 467.536 42.9801 467.155 42.6278C466.774 42.2756 466.226 42.0994 465.51 42.0994C464.754 42.0994 464.155 42.2642 463.712 42.5938C463.274 42.9233 462.979 43.3125 462.825 43.7614L459.945 43.3523C460.172 42.5568 460.547 41.892 461.07 41.358C461.592 40.8182 462.232 40.4148 462.987 40.1477C463.743 39.875 464.578 39.7386 465.493 39.7386C466.124 39.7386 466.751 39.8125 467.376 39.9602C468.001 40.108 468.572 40.3523 469.089 40.6932C469.607 41.0284 470.021 41.4858 470.334 42.0653C470.652 42.6449 470.811 43.3693 470.811 44.2386V53H467.845V51.2017H467.743C467.555 51.5653 467.291 51.9062 466.95 52.2244C466.615 52.5369 466.192 52.7898 465.68 52.983C465.175 53.1705 464.581 53.2642 463.899 53.2642ZM464.7 50.9972C465.32 50.9972 465.857 50.875 466.311 50.6307C466.766 50.3807 467.115 50.0511 467.359 49.642C467.609 49.233 467.734 48.7869 467.734 48.304V46.7614C467.638 46.8409 467.473 46.9148 467.24 46.983C467.013 47.0511 466.757 47.1108 466.473 47.1619C466.189 47.2131 465.908 47.2585 465.629 47.2983C465.351 47.3381 465.109 47.3722 464.905 47.4006C464.445 47.4631 464.033 47.5653 463.669 47.7074C463.305 47.8494 463.018 48.0483 462.808 48.304C462.598 48.554 462.493 48.8778 462.493 49.2756C462.493 49.8438 462.7 50.2727 463.115 50.5625C463.53 50.8523 464.058 50.9972 464.7 50.9972ZM473.01 53L472.993 50.4602H473.445C473.786 50.4602 474.072 50.3835 474.305 50.2301C474.538 50.0767 474.732 49.821 474.885 49.4631C475.038 49.0994 475.158 48.6108 475.243 47.9972C475.328 47.3835 475.388 46.6193 475.422 45.7045L475.652 39.9091H485.197V53H482.214V42.4403H478.456L478.251 46.6591C478.2 47.75 478.078 48.696 477.885 49.4972C477.697 50.2926 477.43 50.9489 477.084 51.4659C476.743 51.983 476.314 52.3693 475.797 52.625C475.28 52.875 474.669 53 473.964 53H473.01ZM494.099 53.2557C492.787 53.2557 491.653 52.983 490.699 52.4375C489.75 51.8864 489.02 51.108 488.509 50.1023C487.997 49.0909 487.741 47.9006 487.741 46.5312C487.741 45.1847 487.997 44.0028 488.509 42.9858C489.026 41.9631 489.747 41.1676 490.673 40.5994C491.599 40.0256 492.688 39.7386 493.938 39.7386C494.744 39.7386 495.506 39.8693 496.222 40.1307C496.943 40.3864 497.58 40.7841 498.131 41.3239C498.688 41.8636 499.125 42.5511 499.443 43.3864C499.761 44.2159 499.92 45.2045 499.92 46.3523V47.2983H489.19V45.2188H496.963C496.957 44.6278 496.83 44.1023 496.58 43.642C496.33 43.1761 495.98 42.8097 495.531 42.5426C495.088 42.2756 494.571 42.142 493.98 42.142C493.349 42.142 492.795 42.2955 492.318 42.6023C491.841 42.9034 491.469 43.3011 491.202 43.7955C490.94 44.2841 490.807 44.821 490.801 45.4062V47.2216C490.801 47.983 490.94 48.6364 491.219 49.1818C491.497 49.7216 491.886 50.1364 492.386 50.4261C492.886 50.7102 493.472 50.8523 494.142 50.8523C494.591 50.8523 494.997 50.7898 495.361 50.6648C495.724 50.5341 496.04 50.3438 496.307 50.0938C496.574 49.8438 496.776 49.5341 496.912 49.1648L499.793 49.4886C499.611 50.25 499.264 50.9148 498.753 51.483C498.247 52.0455 497.599 52.483 496.81 52.7955C496.02 53.1023 495.116 53.2557 494.099 53.2557ZM508.241 53.2557C506.962 53.2557 505.854 52.9744 504.917 52.4119C503.979 51.8494 503.252 51.0625 502.735 50.0511C502.224 49.0398 501.968 47.858 501.968 46.5057C501.968 45.1534 502.224 43.9687 502.735 42.9517C503.252 41.9347 503.979 41.1449 504.917 40.5824C505.854 40.0199 506.962 39.7386 508.241 39.7386C509.519 39.7386 510.627 40.0199 511.565 40.5824C512.502 41.1449 513.227 41.9347 513.738 42.9517C514.255 43.9687 514.513 45.1534 514.513 46.5057C514.513 47.858 514.255 49.0398 513.738 50.0511C513.227 51.0625 512.502 51.8494 511.565 52.4119C510.627 52.9744 509.519 53.2557 508.241 53.2557ZM508.258 50.7841C508.951 50.7841 509.531 50.5937 509.996 50.2131C510.462 49.8267 510.809 49.3097 511.036 48.6619C511.269 48.0142 511.386 47.2926 511.386 46.4972C511.386 45.696 511.269 44.9716 511.036 44.3239C510.809 43.6705 510.462 43.1506 509.996 42.7642C509.531 42.3778 508.951 42.1847 508.258 42.1847C507.548 42.1847 506.957 42.3778 506.485 42.7642C506.019 43.1506 505.67 43.6705 505.437 44.3239C505.21 44.9716 505.096 45.696 505.096 46.4972C505.096 47.2926 505.21 48.0142 505.437 48.6619C505.67 49.3097 506.019 49.8267 506.485 50.2131C506.957 50.5937 507.548 50.7841 508.258 50.7841ZM516.229 53L516.212 50.4602H516.663C517.004 50.4602 517.291 50.3835 517.524 50.2301C517.757 50.0767 517.95 49.821 518.104 49.4631C518.257 49.0994 518.376 48.6108 518.462 47.9972C518.547 47.3835 518.607 46.6193 518.641 45.7045L518.871 39.9091H528.416V53H525.433V42.4403H521.675L521.47 46.6591C521.419 47.75 521.297 48.696 521.104 49.4972C520.916 50.2926 520.649 50.9489 520.303 51.4659C519.962 51.983 519.533 52.3693 519.016 52.625C518.499 52.875 517.888 53 517.183 53H516.229ZM534.497 48.8239L539.739 39.9091H542.909V53H539.926V44.0767L534.702 53H531.523V39.9091H534.497V48.8239ZM544.612 42.4403V39.9091H556.066V42.4403H551.83V53H548.847V42.4403H544.612Z" fill="white"/>
<path d="M884.963 35.5455V53H881.827V38.1705H874.19V53H871.054V35.5455H884.963ZM894.319 53.2557C893.04 53.2557 891.933 52.9744 890.995 52.4119C890.058 51.8494 889.33 51.0625 888.813 50.0511C888.302 49.0398 888.046 47.858 888.046 46.5057C888.046 45.1534 888.302 43.9687 888.813 42.9517C889.33 41.9347 890.058 41.1449 890.995 40.5824C891.933 40.0199 893.04 39.7386 894.319 39.7386C895.597 39.7386 896.705 40.0199 897.643 40.5824C898.58 41.1449 899.305 41.9347 899.816 42.9517C900.333 43.9687 900.592 45.1534 900.592 46.5057C900.592 47.858 900.333 49.0398 899.816 50.0511C899.305 51.0625 898.58 51.8494 897.643 52.4119C896.705 52.9744 895.597 53.2557 894.319 53.2557ZM894.336 50.7841C895.029 50.7841 895.609 50.5937 896.075 50.2131C896.54 49.8267 896.887 49.3097 897.114 48.6619C897.347 48.0142 897.464 47.2926 897.464 46.4972C897.464 45.696 897.347 44.9716 897.114 44.3239C896.887 43.6705 896.54 43.1506 896.075 42.7642C895.609 42.3778 895.029 42.1847 894.336 42.1847C893.626 42.1847 893.035 42.3778 892.563 42.7642C892.097 43.1506 891.748 43.6705 891.515 44.3239C891.288 44.9716 891.174 45.696 891.174 46.4972C891.174 47.2926 891.288 48.0142 891.515 48.6619C891.748 49.3097 892.097 49.8267 892.563 50.2131C893.035 50.5937 893.626 50.7841 894.336 50.7841ZM902.486 49.4119H905.545C905.574 49.9006 905.793 50.2784 906.202 50.5455C906.611 50.8125 907.142 50.946 907.795 50.946C908.46 50.946 909.02 50.8011 909.474 50.5114C909.935 50.2159 910.165 49.7699 910.165 49.1733C910.165 48.821 910.077 48.5114 909.901 48.2443C909.724 47.9716 909.477 47.7614 909.159 47.6136C908.841 47.4659 908.466 47.392 908.034 47.392H906.031V45.2017H908.034C908.676 45.2017 909.162 45.054 909.491 44.7585C909.827 44.4631 909.994 44.0909 909.994 43.642C909.994 43.1591 909.818 42.767 909.466 42.4659C909.119 42.1648 908.639 42.0142 908.026 42.0142C907.412 42.0142 906.901 42.1534 906.491 42.4318C906.088 42.7102 905.878 43.0682 905.861 43.5057H902.818C902.83 42.7443 903.057 42.0824 903.5 41.5199C903.949 40.9574 904.551 40.5199 905.307 40.2074C906.068 39.8949 906.926 39.7386 907.881 39.7386C908.903 39.7386 909.787 39.892 910.531 40.1989C911.276 40.5057 911.849 40.9347 912.253 41.4858C912.656 42.0312 912.858 42.6733 912.858 43.4119C912.858 44.1222 912.636 44.7102 912.193 45.1761C911.75 45.6364 911.153 45.9659 910.403 46.1648V46.3011C910.92 46.3295 911.386 46.4773 911.801 46.7443C912.216 47.0057 912.545 47.3608 912.79 47.8097C913.034 48.2585 913.156 48.7784 913.156 49.3693C913.156 50.1705 912.926 50.8636 912.466 51.4489C912.006 52.0284 911.372 52.4744 910.565 52.7869C909.764 53.0994 908.847 53.2557 907.812 53.2557C906.807 53.2557 905.906 53.1051 905.111 52.804C904.321 52.4972 903.693 52.0568 903.227 51.483C902.761 50.9091 902.514 50.2187 902.486 49.4119ZM914.426 56.8011V50.4602H915.466C915.744 50.2443 915.977 49.9517 916.165 49.5824C916.352 49.2074 916.506 48.767 916.625 48.2614C916.75 47.75 916.852 47.179 916.932 46.5483C917.011 45.9119 917.082 45.2273 917.145 44.4943L917.52 39.9091H926.98V50.4602H929.009V56.8011H926.026V53H917.46V56.8011H914.426ZM918.636 50.4602H924.031V42.3977H920.196L919.991 44.4943C919.878 45.8807 919.727 47.0682 919.54 48.0568C919.352 49.0455 919.051 49.8466 918.636 50.4602ZM940.303 45.1761V47.7074H933.332V45.1761H940.303ZM934.286 39.9091V53H931.312V39.9091H934.286ZM942.323 39.9091V53H939.357V39.9091H942.323ZM948.419 48.8239L953.661 39.9091H956.831V53H953.848V44.0767L948.624 53H945.445V39.9091H948.419V48.8239ZM962.974 48.8239L968.215 39.9091H971.386V53H968.403V44.0767L963.178 53H959.999V39.9091H962.974V48.8239ZM967.371 35.4091H969.681C969.681 36.4034 969.32 37.2102 968.599 37.8295C967.883 38.4432 966.911 38.75 965.684 38.75C964.468 38.75 963.499 38.4432 962.778 37.8295C962.062 37.2102 961.707 36.4034 961.712 35.4091H964.005C964.005 35.8182 964.13 36.1847 964.38 36.5085C964.636 36.8267 965.07 36.9858 965.684 36.9858C966.286 36.9858 966.715 36.8267 966.971 36.5085C967.232 36.1903 967.366 35.8239 967.371 35.4091ZM980.507 53V39.9091H991.561V53H988.587V42.4403H983.456V53H980.507ZM998.501 53.2642C997.671 53.2642 996.924 53.1165 996.259 52.821C995.6 52.5199 995.077 52.0767 994.691 51.4915C994.31 50.9062 994.12 50.1847 994.12 49.3267C994.12 48.5881 994.256 47.9773 994.529 47.4943C994.802 47.0114 995.174 46.625 995.646 46.3352C996.117 46.0455 996.648 45.8267 997.239 45.679C997.836 45.5256 998.452 45.4148 999.089 45.3466C999.856 45.267 1000.48 45.196 1000.96 45.1335C1001.43 45.0653 1001.78 44.9631 1002 44.8267C1002.22 44.6847 1002.33 44.4659 1002.33 44.1705V44.1193C1002.33 43.4773 1002.14 42.9801 1001.76 42.6278C1001.38 42.2756 1000.83 42.0994 1000.11 42.0994C999.356 42.0994 998.756 42.2642 998.313 42.5938C997.876 42.9233 997.58 43.3125 997.427 43.7614L994.546 43.3523C994.773 42.5568 995.148 41.892 995.671 41.358C996.194 40.8182 996.833 40.4148 997.589 40.1477C998.344 39.875 999.18 39.7386 1000.09 39.7386C1000.73 39.7386 1001.35 39.8125 1001.98 39.9602C1002.6 40.108 1003.17 40.3523 1003.69 40.6932C1004.21 41.0284 1004.62 41.4858 1004.94 42.0653C1005.25 42.6449 1005.41 43.3693 1005.41 44.2386V53H1002.45V51.2017H1002.34C1002.16 51.5653 1001.89 51.9062 1001.55 52.2244C1001.22 52.5369 1000.79 52.7898 1000.28 52.983C999.776 53.1705 999.183 53.2642 998.501 53.2642ZM999.302 50.9972C999.921 50.9972 1000.46 50.875 1000.91 50.6307C1001.37 50.3807 1001.72 50.0511 1001.96 49.642C1002.21 49.233 1002.34 48.7869 1002.34 48.304V46.7614C1002.24 46.8409 1002.07 46.9148 1001.84 46.983C1001.61 47.0511 1001.36 47.1108 1001.07 47.1619C1000.79 47.2131 1000.51 47.2585 1000.23 47.2983C999.952 47.3381 999.711 47.3722 999.506 47.4006C999.046 47.4631 998.634 47.5653 998.271 47.7074C997.907 47.8494 997.62 48.0483 997.41 48.304C997.2 48.554 997.094 48.8778 997.094 49.2756C997.094 49.8438 997.302 50.2727 997.717 50.5625C998.131 50.8523 998.66 50.9972 999.302 50.9972ZM1007.61 53L1007.59 50.4602H1008.05C1008.39 50.4602 1008.67 50.3835 1008.91 50.2301C1009.14 50.0767 1009.33 49.821 1009.49 49.4631C1009.64 49.0994 1009.76 48.6108 1009.84 47.9972C1009.93 47.3835 1009.99 46.6193 1010.02 45.7045L1010.25 39.9091H1019.8V53H1016.82V42.4403H1013.06L1012.85 46.6591C1012.8 47.75 1012.68 48.696 1012.49 49.4972C1012.3 50.2926 1012.03 50.9489 1011.69 51.4659C1011.34 51.983 1010.92 52.3693 1010.4 52.625C1009.88 52.875 1009.27 53 1008.57 53H1007.61ZM1028.7 53.2557C1027.39 53.2557 1026.25 52.983 1025.3 52.4375C1024.35 51.8864 1023.62 51.108 1023.11 50.1023C1022.6 49.0909 1022.34 47.9006 1022.34 46.5312C1022.34 45.1847 1022.6 44.0028 1023.11 42.9858C1023.63 41.9631 1024.35 41.1676 1025.27 40.5994C1026.2 40.0256 1027.29 39.7386 1028.54 39.7386C1029.35 39.7386 1030.11 39.8693 1030.82 40.1307C1031.54 40.3864 1032.18 40.7841 1032.73 41.3239C1033.29 41.8636 1033.73 42.5511 1034.04 43.3864C1034.36 44.2159 1034.52 45.2045 1034.52 46.3523V47.2983H1023.79V45.2188H1031.56C1031.56 44.6278 1031.43 44.1023 1031.18 43.642C1030.93 43.1761 1030.58 42.8097 1030.13 42.5426C1029.69 42.2756 1029.17 42.142 1028.58 42.142C1027.95 42.142 1027.4 42.2955 1026.92 42.6023C1026.44 42.9034 1026.07 43.3011 1025.8 43.7955C1025.54 44.2841 1025.41 44.821 1025.4 45.4062V47.2216C1025.4 47.983 1025.54 48.6364 1025.82 49.1818C1026.1 49.7216 1026.49 50.1364 1026.99 50.4261C1027.49 50.7102 1028.07 50.8523 1028.74 50.8523C1029.19 50.8523 1029.6 50.7898 1029.96 50.6648C1030.33 50.5341 1030.64 50.3438 1030.91 50.0938C1031.18 49.8438 1031.38 49.5341 1031.51 49.1648L1034.39 49.4886C1034.21 50.25 1033.87 50.9148 1033.35 51.483C1032.85 52.0455 1032.2 52.483 1031.41 52.7955C1030.62 53.1023 1029.72 53.2557 1028.7 53.2557ZM1042.84 53.2557C1041.56 53.2557 1040.46 52.9744 1039.52 52.4119C1038.58 51.8494 1037.85 51.0625 1037.34 50.0511C1036.83 49.0398 1036.57 47.858 1036.57 46.5057C1036.57 45.1534 1036.83 43.9687 1037.34 42.9517C1037.85 41.9347 1038.58 41.1449 1039.52 40.5824C1040.46 40.0199 1041.56 39.7386 1042.84 39.7386C1044.12 39.7386 1045.23 40.0199 1046.17 40.5824C1047.1 41.1449 1047.83 41.9347 1048.34 42.9517C1048.86 43.9687 1049.12 45.1534 1049.12 46.5057C1049.12 47.858 1048.86 49.0398 1048.34 50.0511C1047.83 51.0625 1047.1 51.8494 1046.17 52.4119C1045.23 52.9744 1044.12 53.2557 1042.84 53.2557ZM1042.86 50.7841C1043.55 50.7841 1044.13 50.5937 1044.6 50.2131C1045.06 49.8267 1045.41 49.3097 1045.64 48.6619C1045.87 48.0142 1045.99 47.2926 1045.99 46.4972C1045.99 45.696 1045.87 44.9716 1045.64 44.3239C1045.41 43.6705 1045.06 43.1506 1044.6 42.7642C1044.13 42.3778 1043.55 42.1847 1042.86 42.1847C1042.15 42.1847 1041.56 42.3778 1041.09 42.7642C1040.62 43.1506 1040.27 43.6705 1040.04 44.3239C1039.81 44.9716 1039.7 45.696 1039.7 46.4972C1039.7 47.2926 1039.81 48.0142 1040.04 48.6619C1040.27 49.3097 1040.62 49.8267 1041.09 50.2131C1041.56 50.5937 1042.15 50.7841 1042.86 50.7841ZM1050.83 53L1050.81 50.4602H1051.26C1051.61 50.4602 1051.89 50.3835 1052.13 50.2301C1052.36 50.0767 1052.55 49.821 1052.71 49.4631C1052.86 49.0994 1052.98 48.6108 1053.06 47.9972C1053.15 47.3835 1053.21 46.6193 1053.24 45.7045L1053.47 39.9091H1063.02V53H1060.03V42.4403H1056.28L1056.07 46.6591C1056.02 47.75 1055.9 48.696 1055.71 49.4972C1055.52 50.2926 1055.25 50.9489 1054.9 51.4659C1054.56 51.983 1054.13 52.3693 1053.62 52.625C1053.1 52.875 1052.49 53 1051.78 53H1050.83ZM1069.1 48.8239L1074.34 39.9091H1077.51V53H1074.53V44.0767L1069.3 53H1066.12V39.9091H1069.1V48.8239ZM1079.21 42.4403V39.9091H1090.67V42.4403H1086.43V53H1083.45V42.4403H1079.21Z" fill="white"/>
<ellipse cx="1.5" cy="24" rx="1.5" ry="24" transform="matrix(-1 0 0 1 62 124)" fill="white"/>
<ellipse cx="1.5" cy="24" rx="1.5" ry="24" transform="matrix(-1 0 0 1 62 124)" fill="white"/>
<path d="M32.2436 192V190.977L36.0845 186.773C36.5353 186.28 36.9065 185.852 37.1982 185.489C37.4898 185.121 37.7057 184.777 37.8459 184.455C37.9898 184.129 38.0618 183.788 38.0618 183.432C38.0618 183.023 37.9633 182.669 37.7663 182.369C37.5732 182.07 37.308 181.839 36.9709 181.676C36.6338 181.513 36.255 181.432 35.8345 181.432C35.3875 181.432 34.9974 181.525 34.6641 181.71C34.3345 181.892 34.0788 182.148 33.897 182.477C33.719 182.807 33.63 183.193 33.63 183.636H32.2891C32.2891 182.955 32.4463 182.356 32.7607 181.841C33.075 181.326 33.5031 180.924 34.0447 180.636C34.5902 180.348 35.2019 180.205 35.88 180.205C36.5618 180.205 37.166 180.348 37.6925 180.636C38.219 180.924 38.6319 181.312 38.9311 181.801C39.2304 182.29 39.38 182.833 39.38 183.432C39.38 183.86 39.3023 184.278 39.147 184.688C38.9955 185.093 38.7304 185.545 38.3516 186.045C37.9766 186.542 37.4557 187.148 36.7891 187.864L34.1754 190.659V190.75H39.5845V192H32.2436ZM42.9311 192.091C42.6508 192.091 42.4103 191.991 42.2095 191.79C42.0088 191.589 41.9084 191.348 41.9084 191.068C41.9084 190.788 42.0088 190.547 42.2095 190.347C42.4103 190.146 42.6508 190.045 42.9311 190.045C43.2114 190.045 43.4519 190.146 43.6527 190.347C43.8535 190.547 43.9538 190.788 43.9538 191.068C43.9538 191.254 43.9065 191.424 43.8118 191.58C43.7209 191.735 43.5978 191.86 43.4425 191.955C43.291 192.045 43.1205 192.091 42.9311 192.091ZM49.7947 192.159C49.3175 192.152 48.8402 192.061 48.3629 191.886C47.8857 191.712 47.45 191.419 47.0561 191.006C46.6622 190.589 46.3459 190.027 46.1072 189.318C45.8686 188.606 45.7493 187.712 45.7493 186.636C45.7493 185.606 45.8459 184.693 46.0391 183.898C46.2322 183.098 46.5125 182.426 46.88 181.881C47.2474 181.331 47.6906 180.915 48.2095 180.631C48.7322 180.347 49.3213 180.205 49.9766 180.205C50.6281 180.205 51.2076 180.335 51.7152 180.597C52.2266 180.854 52.6432 181.214 52.9652 181.676C53.2872 182.138 53.4955 182.67 53.5902 183.273H52.2038C52.075 182.75 51.825 182.316 51.4538 181.972C51.0826 181.627 50.5902 181.455 49.9766 181.455C49.075 181.455 48.3648 181.847 47.8459 182.631C47.3307 183.415 47.0713 184.515 47.0675 185.932H47.1584C47.3705 185.61 47.6224 185.335 47.9141 185.108C48.2095 184.877 48.5353 184.699 48.8913 184.574C49.2474 184.449 49.6243 184.386 50.022 184.386C50.6887 184.386 51.2985 184.553 51.8516 184.886C52.4046 185.216 52.8478 185.672 53.1811 186.256C53.5144 186.835 53.6811 187.5 53.6811 188.25C53.6811 188.97 53.5201 189.629 53.1982 190.227C52.8762 190.822 52.4235 191.295 51.8402 191.648C51.2607 191.996 50.5788 192.167 49.7947 192.159ZM49.7947 190.909C50.272 190.909 50.7 190.79 51.0788 190.551C51.4614 190.312 51.7625 189.992 51.9822 189.591C52.2057 189.189 52.3175 188.742 52.3175 188.25C52.3175 187.769 52.2095 187.331 51.9936 186.938C51.7815 186.54 51.4879 186.223 51.1129 185.989C50.7417 185.754 50.3175 185.636 49.8402 185.636C49.4804 185.636 49.1451 185.708 48.8345 185.852C48.5239 185.992 48.2512 186.186 48.0163 186.432C47.7853 186.678 47.6035 186.96 47.4709 187.278C47.3383 187.593 47.272 187.924 47.272 188.273C47.272 188.735 47.38 189.167 47.5959 189.568C47.8156 189.97 48.1148 190.294 48.4936 190.54C48.8762 190.786 49.3099 190.909 49.7947 190.909ZM65.2109 190.182L68.2564 183.273H69.5291L65.7564 192H64.6655L60.9609 183.273H62.2109L65.2109 190.182ZM61.7791 183.273V192H60.4382V183.273H61.7791ZM68.6428 192V183.273H69.9837V192H68.6428ZM71.6655 192V190.75H71.9837C72.245 190.75 72.4628 190.699 72.6371 190.597C72.8113 190.491 72.9515 190.307 73.0575 190.045C73.1674 189.78 73.2507 189.413 73.3075 188.943C73.3681 188.47 73.4117 187.867 73.4382 187.136L73.5973 183.273H79.4155V192H78.0746V184.523H74.87L74.7337 187.636C74.7034 188.352 74.639 188.983 74.5405 189.528C74.4458 190.07 74.3 190.525 74.103 190.892C73.9098 191.259 73.6522 191.536 73.3303 191.722C73.0083 191.907 72.6049 192 72.12 192H71.6655ZM87.7166 187.023V188.273H82.8984V187.023H87.7166ZM83.2166 183.273V192H81.8757V183.273H83.2166ZM88.7393 183.273V192H87.3984V183.273H88.7393ZM22.0092 211V209.75H22.3274C22.5888 209.75 22.8066 209.699 22.9808 209.597C23.1551 209.491 23.2952 209.307 23.4013 209.045C23.5111 208.78 23.5945 208.413 23.6513 207.943C23.7119 207.47 23.7554 206.867 23.782 206.136L23.9411 202.273H29.7592V211H28.4183V203.523H25.2138L25.0774 206.636C25.0471 207.352 24.9827 207.983 24.8842 208.528C24.7895 209.07 24.6437 209.525 24.4467 209.892C24.2536 210.259 23.996 210.536 23.674 210.722C23.352 210.907 22.9486 211 22.4638 211H22.0092ZM35.8786 211.182C35.0376 211.182 34.3123 210.996 33.7024 210.625C33.0964 210.25 32.6286 209.727 32.299 209.057C31.9732 208.383 31.8104 207.598 31.8104 206.705C31.8104 205.811 31.9732 205.023 32.299 204.341C32.6286 203.655 33.0869 203.121 33.674 202.739C34.2649 202.352 34.9543 202.159 35.7422 202.159C36.1967 202.159 36.6456 202.235 37.0888 202.386C37.532 202.538 37.9354 202.784 38.299 203.125C38.6626 203.462 38.9524 203.909 39.1683 204.466C39.3842 205.023 39.4922 205.708 39.4922 206.523V207.091H32.7649V205.932H38.1286C38.1286 205.439 38.0301 205 37.8331 204.614C37.6399 204.227 37.3634 203.922 37.0036 203.699C36.6475 203.475 36.227 203.364 35.7422 203.364C35.2081 203.364 34.746 203.496 34.3558 203.761C33.9695 204.023 33.6721 204.364 33.4638 204.784C33.2554 205.205 33.1513 205.655 33.1513 206.136V206.909C33.1513 207.568 33.2649 208.127 33.4922 208.585C33.7232 209.04 34.0433 209.386 34.4524 209.625C34.8615 209.86 35.3369 209.977 35.8786 209.977C36.2308 209.977 36.549 209.928 36.8331 209.83C37.121 209.727 37.3691 209.576 37.5774 209.375C37.7857 209.17 37.9467 208.917 38.0604 208.614L39.3558 208.977C39.2195 209.417 38.9903 209.803 38.6683 210.136C38.3464 210.466 37.9486 210.723 37.4751 210.909C37.0017 211.091 36.4695 211.182 35.8786 211.182ZM40.7195 203.523V202.273H47.8104V203.523H44.9467V211H43.6058V203.523H40.7195ZM53.3345 213.5V209.75H54.0618C54.2398 209.564 54.3932 209.364 54.522 209.148C54.6508 208.932 54.7625 208.676 54.8572 208.381C54.9557 208.081 55.0391 207.718 55.1072 207.29C55.1754 206.858 55.236 206.337 55.2891 205.727L55.5845 202.273H61.13V209.75H62.4709V213.5H61.13V211H54.6754V213.5H53.3345ZM55.5845 209.75H59.7891V203.523H56.8345L56.6072 205.727C56.5125 206.64 56.3951 207.437 56.255 208.119C56.1148 208.801 55.8913 209.345 55.5845 209.75ZM67.7962 211.182C67.0083 211.182 66.317 210.994 65.7223 210.619C65.1314 210.244 64.6693 209.72 64.3359 209.045C64.0064 208.371 63.8416 207.583 63.8416 206.682C63.8416 205.773 64.0064 204.979 64.3359 204.301C64.6693 203.623 65.1314 203.097 65.7223 202.722C66.317 202.347 67.0083 202.159 67.7962 202.159C68.584 202.159 69.2734 202.347 69.8643 202.722C70.459 203.097 70.9212 203.623 71.2507 204.301C71.584 204.979 71.7507 205.773 71.7507 206.682C71.7507 207.583 71.584 208.371 71.2507 209.045C70.9212 209.72 70.459 210.244 69.8643 210.619C69.2734 210.994 68.584 211.182 67.7962 211.182ZM67.7962 209.977C68.3946 209.977 68.8871 209.824 69.2734 209.517C69.6598 209.21 69.9458 208.807 70.1314 208.307C70.317 207.807 70.4098 207.265 70.4098 206.682C70.4098 206.098 70.317 205.555 70.1314 205.051C69.9458 204.547 69.6598 204.14 69.2734 203.83C68.8871 203.519 68.3946 203.364 67.7962 203.364C67.1977 203.364 66.7053 203.519 66.3189 203.83C65.9325 204.14 65.6465 204.547 65.4609 205.051C65.2753 205.555 65.1825 206.098 65.1825 206.682C65.1825 207.265 65.2753 207.807 65.4609 208.307C65.6465 208.807 65.9325 209.21 66.3189 209.517C66.7053 209.824 67.1977 209.977 67.7962 209.977ZM84.1385 206.023V207.273H79.3203V206.023H84.1385ZM79.6385 202.273V211H78.2976V202.273H79.6385ZM85.1612 202.273V211H83.8203V202.273H85.1612ZM88.5874 211.091C88.3071 211.091 88.0665 210.991 87.8658 210.79C87.665 210.589 87.5646 210.348 87.5646 210.068C87.5646 209.788 87.665 209.547 87.8658 209.347C88.0665 209.146 88.3071 209.045 88.5874 209.045C88.8677 209.045 89.1082 209.146 89.3089 209.347C89.5097 209.547 89.6101 209.788 89.6101 210.068C89.6101 210.254 89.5627 210.424 89.468 210.58C89.3771 210.735 89.254 210.86 89.0987 210.955C88.9472 211.045 88.7768 211.091 88.5874 211.091ZM94.9027 203.409C94.5997 203.413 94.2947 203.491 93.9879 203.642C93.6849 203.794 93.4311 203.994 93.2266 204.244C93.0258 204.491 92.9254 204.765 92.9254 205.068H91.6072C91.6072 204.689 91.6982 204.326 91.88 203.977C92.0618 203.629 92.3061 203.318 92.6129 203.045C92.9235 202.773 93.2758 202.557 93.6697 202.398C94.0675 202.239 94.4785 202.159 94.9027 202.159C95.6982 202.159 96.3724 202.36 96.9254 202.761C97.4822 203.163 97.9046 203.693 98.1925 204.352C98.4841 205.011 98.63 205.727 98.63 206.5V206.818C98.63 207.587 98.4841 208.303 98.1925 208.966C97.9046 209.625 97.4822 210.155 96.9254 210.557C96.3724 210.958 95.6982 211.159 94.9027 211.159C94.2663 211.159 93.7 211.019 93.2038 210.739C92.7076 210.455 92.3175 210.076 92.0334 209.602C91.7493 209.129 91.6072 208.602 91.6072 208.023H92.9254C92.9254 208.352 93.0182 208.661 93.2038 208.949C93.3932 209.233 93.6375 209.464 93.9368 209.642C94.2398 209.816 94.5618 209.905 94.9027 209.909C95.4103 209.905 95.8421 209.746 96.1982 209.432C96.5542 209.117 96.825 208.723 97.0107 208.25C97.1963 207.777 97.2891 207.299 97.2891 206.818V206.5C97.2891 206.008 97.1963 205.527 97.0107 205.057C96.8288 204.583 96.5599 204.191 96.2038 203.881C95.8516 203.57 95.4179 203.413 94.9027 203.409ZM97.8345 205.977V207.227H94.0163V205.977H97.8345Z" fill="white"/>
<ellipse cx="1.5" cy="24" rx="1.5" ry="24" transform="matrix(-1 0 0 1 323.5 124)" fill="white"/>
<ellipse cx="1.5" cy="24" rx="1.5" ry="24" transform="matrix(-1 0 0 1 323.5 124)" fill="white"/>
<path d="M292.807 192.159C292.027 192.159 291.337 192.021 290.739 191.744C290.144 191.464 289.68 191.08 289.347 190.591C289.013 190.098 288.848 189.538 288.852 188.909C288.848 188.417 288.945 187.962 289.142 187.545C289.339 187.125 289.608 186.775 289.949 186.494C290.294 186.21 290.678 186.03 291.102 185.955V185.886C290.545 185.742 290.102 185.43 289.773 184.949C289.443 184.464 289.28 183.913 289.284 183.295C289.28 182.705 289.43 182.176 289.733 181.71C290.036 181.244 290.453 180.877 290.983 180.608C291.517 180.339 292.125 180.205 292.807 180.205C293.481 180.205 294.083 180.339 294.614 180.608C295.144 180.877 295.561 181.244 295.864 181.71C296.17 182.176 296.326 182.705 296.33 183.295C296.326 183.913 296.157 184.464 295.824 184.949C295.494 185.43 295.057 185.742 294.511 185.886V185.955C294.932 186.03 295.311 186.21 295.648 186.494C295.985 186.775 296.254 187.125 296.455 187.545C296.655 187.962 296.758 188.417 296.761 188.909C296.758 189.538 296.587 190.098 296.25 190.591C295.917 191.08 295.453 191.464 294.858 191.744C294.267 192.021 293.583 192.159 292.807 192.159ZM292.807 190.909C293.333 190.909 293.788 190.824 294.17 190.653C294.553 190.483 294.848 190.242 295.057 189.932C295.265 189.621 295.371 189.258 295.375 188.841C295.371 188.402 295.258 188.013 295.034 187.676C294.811 187.339 294.506 187.074 294.119 186.881C293.737 186.687 293.299 186.591 292.807 186.591C292.311 186.591 291.867 186.687 291.477 186.881C291.091 187.074 290.786 187.339 290.562 187.676C290.343 188.013 290.235 188.402 290.239 188.841C290.235 189.258 290.335 189.621 290.54 189.932C290.748 190.242 291.045 190.483 291.432 190.653C291.818 190.824 292.277 190.909 292.807 190.909ZM292.807 185.386C293.223 185.386 293.593 185.303 293.915 185.136C294.241 184.97 294.496 184.737 294.682 184.438C294.867 184.138 294.962 183.788 294.966 183.386C294.962 182.992 294.869 182.65 294.688 182.358C294.506 182.062 294.254 181.835 293.932 181.676C293.61 181.513 293.235 181.432 292.807 181.432C292.371 181.432 291.991 181.513 291.665 181.676C291.339 181.835 291.087 182.062 290.909 182.358C290.731 182.65 290.644 182.992 290.648 183.386C290.644 183.788 290.733 184.138 290.915 184.438C291.1 184.737 291.356 184.97 291.682 185.136C292.008 185.303 292.383 185.386 292.807 185.386ZM302.734 192.159C301.878 192.159 301.149 191.926 300.547 191.46C299.945 190.991 299.484 190.311 299.166 189.42C298.848 188.527 298.689 187.447 298.689 186.182C298.689 184.924 298.848 183.85 299.166 182.96C299.488 182.066 299.95 181.384 300.553 180.915C301.159 180.441 301.886 180.205 302.734 180.205C303.583 180.205 304.308 180.441 304.911 180.915C305.517 181.384 305.979 182.066 306.297 182.96C306.619 183.85 306.78 184.924 306.78 186.182C306.78 187.447 306.621 188.527 306.303 189.42C305.984 190.311 305.524 190.991 304.922 191.46C304.32 191.926 303.59 192.159 302.734 192.159ZM302.734 190.909C303.583 190.909 304.242 190.5 304.712 189.682C305.181 188.864 305.416 187.697 305.416 186.182C305.416 185.174 305.308 184.316 305.092 183.608C304.88 182.9 304.573 182.36 304.172 181.989C303.774 181.617 303.295 181.432 302.734 181.432C301.893 181.432 301.236 181.847 300.763 182.676C300.289 183.502 300.053 184.67 300.053 186.182C300.053 187.189 300.159 188.045 300.371 188.75C300.583 189.455 300.888 189.991 301.286 190.358C301.687 190.725 302.17 190.909 302.734 190.909ZM312.734 192.159C311.878 192.159 311.149 191.926 310.547 191.46C309.945 190.991 309.484 190.311 309.166 189.42C308.848 188.527 308.689 187.447 308.689 186.182C308.689 184.924 308.848 183.85 309.166 182.96C309.488 182.066 309.95 181.384 310.553 180.915C311.159 180.441 311.886 180.205 312.734 180.205C313.583 180.205 314.308 180.441 314.911 180.915C315.517 181.384 315.979 182.066 316.297 182.96C316.619 183.85 316.78 184.924 316.78 186.182C316.78 187.447 316.621 188.527 316.303 189.42C315.984 190.311 315.524 190.991 314.922 191.46C314.32 191.926 313.59 192.159 312.734 192.159ZM312.734 190.909C313.583 190.909 314.242 190.5 314.712 189.682C315.181 188.864 315.416 187.697 315.416 186.182C315.416 185.174 315.308 184.316 315.092 183.608C314.88 182.9 314.573 182.36 314.172 181.989C313.774 181.617 313.295 181.432 312.734 181.432C311.893 181.432 311.236 181.847 310.763 182.676C310.289 183.502 310.053 184.67 310.053 186.182C310.053 187.189 310.159 188.045 310.371 188.75C310.583 189.455 310.888 189.991 311.286 190.358C311.687 190.725 312.17 190.909 312.734 190.909ZM322.962 184.523V183.273H330.053V184.523H327.189V192H325.848V184.523H322.962ZM333.168 186.432H335.668C336.69 186.432 337.473 186.691 338.014 187.21C338.556 187.729 338.827 188.386 338.827 189.182C338.827 189.705 338.705 190.18 338.463 190.608C338.221 191.032 337.865 191.371 337.395 191.625C336.925 191.875 336.349 192 335.668 192H332.009V183.273H333.349V190.75H335.668C336.198 190.75 336.634 190.61 336.974 190.33C337.315 190.049 337.486 189.689 337.486 189.25C337.486 188.788 337.315 188.411 336.974 188.119C336.634 187.828 336.198 187.682 335.668 187.682H333.168V186.432ZM340.213 192V183.273H341.554V192H340.213ZM347.554 192.182C346.736 192.182 346.031 191.989 345.44 191.602C344.849 191.216 344.395 190.684 344.077 190.006C343.759 189.328 343.599 188.553 343.599 187.682C343.599 186.795 343.762 186.013 344.088 185.335C344.418 184.653 344.876 184.121 345.463 183.739C346.054 183.352 346.743 183.159 347.531 183.159C348.145 183.159 348.698 183.273 349.19 183.5C349.683 183.727 350.086 184.045 350.401 184.455C350.715 184.864 350.91 185.341 350.986 185.886H349.645C349.543 185.489 349.315 185.136 348.963 184.83C348.615 184.519 348.145 184.364 347.554 184.364C347.031 184.364 346.573 184.5 346.179 184.773C345.789 185.042 345.484 185.422 345.264 185.915C345.048 186.403 344.94 186.977 344.94 187.636C344.94 188.311 345.046 188.898 345.259 189.398C345.474 189.898 345.777 190.286 346.168 190.562C346.562 190.839 347.024 190.977 347.554 190.977C347.902 190.977 348.219 190.917 348.503 190.795C348.787 190.674 349.027 190.5 349.224 190.273C349.421 190.045 349.562 189.773 349.645 189.455H350.986C350.91 189.97 350.723 190.434 350.423 190.847C350.128 191.256 349.736 191.581 349.247 191.824C348.762 192.062 348.198 192.182 347.554 192.182ZM353.923 192.091C353.643 192.091 353.402 191.991 353.202 191.79C353.001 191.589 352.901 191.348 352.901 191.068C352.901 190.788 353.001 190.547 353.202 190.347C353.402 190.146 353.643 190.045 353.923 190.045C354.204 190.045 354.444 190.146 354.645 190.347C354.846 190.547 354.946 190.788 354.946 191.068C354.946 191.254 354.899 191.424 354.804 191.58C354.713 191.735 354.59 191.86 354.435 191.955C354.283 192.045 354.113 192.091 353.923 192.091ZM283.509 211V209.75H283.827C284.089 209.75 284.307 209.699 284.481 209.597C284.655 209.491 284.795 209.307 284.901 209.045C285.011 208.78 285.094 208.413 285.151 207.943C285.212 207.47 285.255 206.867 285.282 206.136L285.441 202.273H291.259V211H289.918V203.523H286.714L286.577 206.636C286.547 207.352 286.483 207.983 286.384 208.528C286.29 209.07 286.144 209.525 285.947 209.892C285.754 210.259 285.496 210.536 285.174 210.722C284.852 210.907 284.449 211 283.964 211H283.509ZM297.379 211.182C296.538 211.182 295.812 210.996 295.202 210.625C294.596 210.25 294.129 209.727 293.799 209.057C293.473 208.383 293.31 207.598 293.31 206.705C293.31 205.811 293.473 205.023 293.799 204.341C294.129 203.655 294.587 203.121 295.174 202.739C295.765 202.352 296.454 202.159 297.242 202.159C297.697 202.159 298.146 202.235 298.589 202.386C299.032 202.538 299.435 202.784 299.799 203.125C300.163 203.462 300.452 203.909 300.668 204.466C300.884 205.023 300.992 205.708 300.992 206.523V207.091H294.265V205.932H299.629C299.629 205.439 299.53 205 299.333 204.614C299.14 204.227 298.863 203.922 298.504 203.699C298.147 203.475 297.727 203.364 297.242 203.364C296.708 203.364 296.246 203.496 295.856 203.761C295.469 204.023 295.172 204.364 294.964 204.784C294.755 205.205 294.651 205.655 294.651 206.136V206.909C294.651 207.568 294.765 208.127 294.992 208.585C295.223 209.04 295.543 209.386 295.952 209.625C296.362 209.86 296.837 209.977 297.379 209.977C297.731 209.977 298.049 209.928 298.333 209.83C298.621 209.727 298.869 209.576 299.077 209.375C299.286 209.17 299.447 208.917 299.56 208.614L300.856 208.977C300.719 209.417 300.49 209.803 300.168 210.136C299.846 210.466 299.449 210.723 298.975 210.909C298.502 211.091 297.969 211.182 297.379 211.182ZM302.219 203.523V202.273H309.31V203.523H306.447V211H305.106V203.523H302.219ZM314.835 213.5V209.75H315.562C315.74 209.564 315.893 209.364 316.022 209.148C316.151 208.932 316.263 208.676 316.357 208.381C316.456 208.081 316.539 207.718 316.607 207.29C316.675 206.858 316.736 206.337 316.789 205.727L317.085 202.273H322.63V209.75H323.971V213.5H322.63V211H316.175V213.5H314.835ZM317.085 209.75H321.289V203.523H318.335L318.107 205.727C318.013 206.64 317.895 207.437 317.755 208.119C317.615 208.801 317.391 209.345 317.085 209.75ZM329.296 211.182C328.508 211.182 327.817 210.994 327.222 210.619C326.631 210.244 326.169 209.72 325.836 209.045C325.506 208.371 325.342 207.583 325.342 206.682C325.342 205.773 325.506 204.979 325.836 204.301C326.169 203.623 326.631 203.097 327.222 202.722C327.817 202.347 328.508 202.159 329.296 202.159C330.084 202.159 330.773 202.347 331.364 202.722C331.959 203.097 332.421 203.623 332.751 204.301C333.084 204.979 333.251 205.773 333.251 206.682C333.251 207.583 333.084 208.371 332.751 209.045C332.421 209.72 331.959 210.244 331.364 210.619C330.773 210.994 330.084 211.182 329.296 211.182ZM329.296 209.977C329.895 209.977 330.387 209.824 330.773 209.517C331.16 209.21 331.446 208.807 331.631 208.307C331.817 207.807 331.91 207.265 331.91 206.682C331.91 206.098 331.817 205.555 331.631 205.051C331.446 204.547 331.16 204.14 330.773 203.83C330.387 203.519 329.895 203.364 329.296 203.364C328.698 203.364 328.205 203.519 327.819 203.83C327.433 204.14 327.147 204.547 326.961 205.051C326.775 205.555 326.683 206.098 326.683 206.682C326.683 207.265 326.775 207.807 326.961 208.307C327.147 208.807 327.433 209.21 327.819 209.517C328.205 209.824 328.698 209.977 329.296 209.977ZM345.638 206.023V207.273H340.82V206.023H345.638ZM341.138 202.273V211H339.798V202.273H341.138ZM346.661 202.273V211H345.32V202.273H346.661ZM350.087 211.091C349.807 211.091 349.567 210.991 349.366 210.79C349.165 210.589 349.065 210.348 349.065 210.068C349.065 209.788 349.165 209.547 349.366 209.347C349.567 209.146 349.807 209.045 350.087 209.045C350.368 209.045 350.608 209.146 350.809 209.347C351.01 209.547 351.11 209.788 351.11 210.068C351.11 210.254 351.063 210.424 350.968 210.58C350.877 210.735 350.754 210.86 350.599 210.955C350.447 211.045 350.277 211.091 350.087 211.091ZM356.403 203.409C356.1 203.413 355.795 203.491 355.488 203.642C355.185 203.794 354.931 203.994 354.727 204.244C354.526 204.491 354.425 204.765 354.425 205.068H353.107C353.107 204.689 353.198 204.326 353.38 203.977C353.562 203.629 353.806 203.318 354.113 203.045C354.424 202.773 354.776 202.557 355.17 202.398C355.567 202.239 355.978 202.159 356.403 202.159C357.198 202.159 357.872 202.36 358.425 202.761C358.982 203.163 359.405 203.693 359.692 204.352C359.984 205.011 360.13 205.727 360.13 206.5V206.818C360.13 207.587 359.984 208.303 359.692 208.966C359.405 209.625 358.982 210.155 358.425 210.557C357.872 210.958 357.198 211.159 356.403 211.159C355.766 211.159 355.2 211.019 354.704 210.739C354.208 210.455 353.817 210.076 353.533 209.602C353.249 209.129 353.107 208.602 353.107 208.023H354.425C354.425 208.352 354.518 208.661 354.704 208.949C354.893 209.233 355.138 209.464 355.437 209.642C355.74 209.816 356.062 209.905 356.403 209.909C356.91 209.905 357.342 209.746 357.698 209.432C358.054 209.117 358.325 208.723 358.511 208.25C358.696 207.777 358.789 207.299 358.789 206.818V206.5C358.789 206.008 358.696 205.527 358.511 205.057C358.329 204.583 358.06 204.191 357.704 203.881C357.352 203.57 356.918 203.413 356.403 203.409ZM359.335 205.977V207.227H355.516V205.977H359.335Z" fill="white"/>
<ellipse cx="1.5" cy="24" rx="1.5" ry="24" transform="matrix(-1 0 0 1 585 124)" fill="white"/>
<ellipse cx="1.5" cy="24" rx="1.5" ry="24" transform="matrix(-1 0 0 1 585 124)" fill="white"/>
<path d="M555.749 180.364V192H554.339V181.841H554.271L551.43 183.727V182.295L554.339 180.364H555.749ZM558.822 189.614V188.455L563.936 180.364H564.777V182.159H564.209L560.345 188.273V188.364H567.232V189.614H558.822ZM564.3 192V189.261V188.722V180.364H565.641V192H564.3ZM573.156 192.159C572.3 192.159 571.571 191.926 570.969 191.46C570.366 190.991 569.906 190.311 569.588 189.42C569.27 188.527 569.111 187.447 569.111 186.182C569.111 184.924 569.27 183.85 569.588 182.96C569.91 182.066 570.372 181.384 570.974 180.915C571.58 180.441 572.308 180.205 573.156 180.205C574.005 180.205 574.73 180.441 575.332 180.915C575.938 181.384 576.401 182.066 576.719 182.96C577.041 183.85 577.202 184.924 577.202 186.182C577.202 187.447 577.043 188.527 576.724 189.42C576.406 190.311 575.946 190.991 575.344 191.46C574.741 191.926 574.012 192.159 573.156 192.159ZM573.156 190.909C574.005 190.909 574.664 190.5 575.134 189.682C575.603 188.864 575.838 187.697 575.838 186.182C575.838 185.174 575.73 184.316 575.514 183.608C575.302 182.9 574.995 182.36 574.594 181.989C574.196 181.617 573.717 181.432 573.156 181.432C572.315 181.432 571.658 181.847 571.185 182.676C570.711 183.502 570.474 184.67 570.474 186.182C570.474 187.189 570.58 188.045 570.793 188.75C571.005 189.455 571.31 189.991 571.707 190.358C572.109 190.725 572.592 190.909 573.156 190.909ZM583.384 184.523V183.273H590.474V184.523H587.611V192H586.27V184.523H583.384ZM593.589 186.432H596.089C597.112 186.432 597.894 186.691 598.436 187.21C598.978 187.729 599.249 188.386 599.249 189.182C599.249 189.705 599.127 190.18 598.885 190.608C598.643 191.032 598.286 191.371 597.817 191.625C597.347 191.875 596.771 192 596.089 192H592.43V183.273H593.771V190.75H596.089C596.62 190.75 597.055 190.61 597.396 190.33C597.737 190.049 597.908 189.689 597.908 189.25C597.908 188.788 597.737 188.411 597.396 188.119C597.055 187.828 596.62 187.682 596.089 187.682H593.589V186.432ZM600.635 192V183.273H601.976V192H600.635ZM607.976 192.182C607.158 192.182 606.453 191.989 605.862 191.602C605.271 191.216 604.817 190.684 604.499 190.006C604.18 189.328 604.021 188.553 604.021 187.682C604.021 186.795 604.184 186.013 604.51 185.335C604.839 184.653 605.298 184.121 605.885 183.739C606.476 183.352 607.165 183.159 607.953 183.159C608.567 183.159 609.12 183.273 609.612 183.5C610.105 183.727 610.508 184.045 610.822 184.455C611.137 184.864 611.332 185.341 611.408 185.886H610.067C609.964 185.489 609.737 185.136 609.385 184.83C609.036 184.519 608.567 184.364 607.976 184.364C607.453 184.364 606.995 184.5 606.601 184.773C606.211 185.042 605.906 185.422 605.686 185.915C605.47 186.403 605.362 186.977 605.362 187.636C605.362 188.311 605.468 188.898 605.68 189.398C605.896 189.898 606.199 190.286 606.589 190.562C606.983 190.839 607.446 190.977 607.976 190.977C608.324 190.977 608.641 190.917 608.925 190.795C609.209 190.674 609.449 190.5 609.646 190.273C609.843 190.045 609.983 189.773 610.067 189.455H611.408C611.332 189.97 611.144 190.434 610.845 190.847C610.55 191.256 610.158 191.581 609.669 191.824C609.184 192.062 608.62 192.182 607.976 192.182ZM614.345 192.091C614.065 192.091 613.824 191.991 613.624 191.79C613.423 191.589 613.322 191.348 613.322 191.068C613.322 190.788 613.423 190.547 613.624 190.347C613.824 190.146 614.065 190.045 614.345 190.045C614.625 190.045 614.866 190.146 615.067 190.347C615.268 190.547 615.368 190.788 615.368 191.068C615.368 191.254 615.321 191.424 615.226 191.58C615.135 191.735 615.012 191.86 614.857 191.955C614.705 192.045 614.535 192.091 614.345 192.091ZM545.009 211V209.75H545.327C545.589 209.75 545.807 209.699 545.981 209.597C546.155 209.491 546.295 209.307 546.401 209.045C546.511 208.78 546.594 208.413 546.651 207.943C546.712 207.47 546.755 206.867 546.782 206.136L546.941 202.273H552.759V211H551.418V203.523H548.214L548.077 206.636C548.047 207.352 547.983 207.983 547.884 208.528C547.79 209.07 547.644 209.525 547.447 209.892C547.254 210.259 546.996 210.536 546.674 210.722C546.352 210.907 545.949 211 545.464 211H545.009ZM558.879 211.182C558.038 211.182 557.312 210.996 556.702 210.625C556.096 210.25 555.629 209.727 555.299 209.057C554.973 208.383 554.81 207.598 554.81 206.705C554.81 205.811 554.973 205.023 555.299 204.341C555.629 203.655 556.087 203.121 556.674 202.739C557.265 202.352 557.954 202.159 558.742 202.159C559.197 202.159 559.646 202.235 560.089 202.386C560.532 202.538 560.935 202.784 561.299 203.125C561.663 203.462 561.952 203.909 562.168 204.466C562.384 205.023 562.492 205.708 562.492 206.523V207.091H555.765V205.932H561.129C561.129 205.439 561.03 205 560.833 204.614C560.64 204.227 560.363 203.922 560.004 203.699C559.647 203.475 559.227 203.364 558.742 203.364C558.208 203.364 557.746 203.496 557.356 203.761C556.969 204.023 556.672 204.364 556.464 204.784C556.255 205.205 556.151 205.655 556.151 206.136V206.909C556.151 207.568 556.265 208.127 556.492 208.585C556.723 209.04 557.043 209.386 557.452 209.625C557.862 209.86 558.337 209.977 558.879 209.977C559.231 209.977 559.549 209.928 559.833 209.83C560.121 209.727 560.369 209.576 560.577 209.375C560.786 209.17 560.947 208.917 561.06 208.614L562.356 208.977C562.219 209.417 561.99 209.803 561.668 210.136C561.346 210.466 560.949 210.723 560.475 210.909C560.002 211.091 559.469 211.182 558.879 211.182ZM563.719 203.523V202.273H570.81V203.523H567.947V211H566.606V203.523H563.719ZM576.335 213.5V209.75H577.062C577.24 209.564 577.393 209.364 577.522 209.148C577.651 208.932 577.763 208.676 577.857 208.381C577.956 208.081 578.039 207.718 578.107 207.29C578.175 206.858 578.236 206.337 578.289 205.727L578.585 202.273H584.13V209.75H585.471V213.5H584.13V211H577.675V213.5H576.335ZM578.585 209.75H582.789V203.523H579.835L579.607 205.727C579.513 206.64 579.395 207.437 579.255 208.119C579.115 208.801 578.891 209.345 578.585 209.75ZM590.796 211.182C590.008 211.182 589.317 210.994 588.722 210.619C588.131 210.244 587.669 209.72 587.336 209.045C587.006 208.371 586.842 207.583 586.842 206.682C586.842 205.773 587.006 204.979 587.336 204.301C587.669 203.623 588.131 203.097 588.722 202.722C589.317 202.347 590.008 202.159 590.796 202.159C591.584 202.159 592.273 202.347 592.864 202.722C593.459 203.097 593.921 203.623 594.251 204.301C594.584 204.979 594.751 205.773 594.751 206.682C594.751 207.583 594.584 208.371 594.251 209.045C593.921 209.72 593.459 210.244 592.864 210.619C592.273 210.994 591.584 211.182 590.796 211.182ZM590.796 209.977C591.395 209.977 591.887 209.824 592.273 209.517C592.66 209.21 592.946 208.807 593.131 208.307C593.317 207.807 593.41 207.265 593.41 206.682C593.41 206.098 593.317 205.555 593.131 205.051C592.946 204.547 592.66 204.14 592.273 203.83C591.887 203.519 591.395 203.364 590.796 203.364C590.198 203.364 589.705 203.519 589.319 203.83C588.933 204.14 588.647 204.547 588.461 205.051C588.275 205.555 588.183 206.098 588.183 206.682C588.183 207.265 588.275 207.807 588.461 208.307C588.647 208.807 588.933 209.21 589.319 209.517C589.705 209.824 590.198 209.977 590.796 209.977ZM607.138 206.023V207.273H602.32V206.023H607.138ZM602.638 202.273V211H601.298V202.273H602.638ZM608.161 202.273V211H606.82V202.273H608.161ZM611.587 211.091C611.307 211.091 611.067 210.991 610.866 210.79C610.665 210.589 610.565 210.348 610.565 210.068C610.565 209.788 610.665 209.547 610.866 209.347C611.067 209.146 611.307 209.045 611.587 209.045C611.868 209.045 612.108 209.146 612.309 209.347C612.51 209.547 612.61 209.788 612.61 210.068C612.61 210.254 612.563 210.424 612.468 210.58C612.377 210.735 612.254 210.86 612.099 210.955C611.947 211.045 611.777 211.091 611.587 211.091ZM617.903 203.409C617.6 203.413 617.295 203.491 616.988 203.642C616.685 203.794 616.431 203.994 616.227 204.244C616.026 204.491 615.925 204.765 615.925 205.068H614.607C614.607 204.689 614.698 204.326 614.88 203.977C615.062 203.629 615.306 203.318 615.613 203.045C615.924 202.773 616.276 202.557 616.67 202.398C617.067 202.239 617.478 202.159 617.903 202.159C618.698 202.159 619.372 202.36 619.925 202.761C620.482 203.163 620.905 203.693 621.192 204.352C621.484 205.011 621.63 205.727 621.63 206.5V206.818C621.63 207.587 621.484 208.303 621.192 208.966C620.905 209.625 620.482 210.155 619.925 210.557C619.372 210.958 618.698 211.159 617.903 211.159C617.266 211.159 616.7 211.019 616.204 210.739C615.708 210.455 615.317 210.076 615.033 209.602C614.749 209.129 614.607 208.602 614.607 208.023H615.925C615.925 208.352 616.018 208.661 616.204 208.949C616.393 209.233 616.638 209.464 616.937 209.642C617.24 209.816 617.562 209.905 617.903 209.909C618.41 209.905 618.842 209.746 619.198 209.432C619.554 209.117 619.825 208.723 620.011 208.25C620.196 207.777 620.289 207.299 620.289 206.818V206.5C620.289 206.008 620.196 205.527 620.011 205.057C619.829 204.583 619.56 204.191 619.204 203.881C618.852 203.57 618.418 203.413 617.903 203.409ZM620.835 205.977V207.227H617.016V205.977H620.835Z" fill="white"/>
<ellipse cx="1.5" cy="24" rx="1.5" ry="24" transform="matrix(-1 0 0 1 846.5 124)" fill="white"/>
<ellipse cx="1.5" cy="24" rx="1.5" ry="24" transform="matrix(-1 0 0 1 846.5 124)" fill="white"/>
<path d="M816.604 189.614V188.455L821.717 180.364H822.558V182.159H821.99L818.126 188.273V188.364H825.013V189.614H816.604ZM822.081 192V189.261V188.722V180.364H823.422V192H822.081ZM830.938 192.159C830.081 192.159 829.352 191.926 828.75 191.46C828.148 190.991 827.688 190.311 827.369 189.42C827.051 188.527 826.892 187.447 826.892 186.182C826.892 184.924 827.051 183.85 827.369 182.96C827.691 182.066 828.153 181.384 828.756 180.915C829.362 180.441 830.089 180.205 830.938 180.205C831.786 180.205 832.511 180.441 833.114 180.915C833.72 181.384 834.182 182.066 834.5 182.96C834.822 183.85 834.983 184.924 834.983 186.182C834.983 187.447 834.824 188.527 834.506 189.42C834.188 190.311 833.727 190.991 833.125 191.46C832.523 191.926 831.794 192.159 830.938 192.159ZM830.938 190.909C831.786 190.909 832.445 190.5 832.915 189.682C833.384 188.864 833.619 187.697 833.619 186.182C833.619 185.174 833.511 184.316 833.295 183.608C833.083 182.9 832.777 182.36 832.375 181.989C831.977 181.617 831.498 181.432 830.938 181.432C830.097 181.432 829.439 181.847 828.966 182.676C828.492 183.502 828.256 184.67 828.256 186.182C828.256 187.189 828.362 188.045 828.574 188.75C828.786 189.455 829.091 189.991 829.489 190.358C829.89 190.725 830.373 190.909 830.938 190.909ZM841.165 184.523V183.273H848.256V184.523H845.392V192H844.051V184.523H841.165ZM851.371 186.432H853.871C854.893 186.432 855.676 186.691 856.217 187.21C856.759 187.729 857.03 188.386 857.03 189.182C857.03 189.705 856.909 190.18 856.666 190.608C856.424 191.032 856.068 191.371 855.598 191.625C855.128 191.875 854.553 192 853.871 192H850.212V183.273H851.553V190.75H853.871C854.401 190.75 854.837 190.61 855.178 190.33C855.518 190.049 855.689 189.689 855.689 189.25C855.689 188.788 855.518 188.411 855.178 188.119C854.837 187.828 854.401 187.682 853.871 187.682H851.371V186.432ZM858.416 192V183.273H859.757V192H858.416ZM865.757 192.182C864.939 192.182 864.234 191.989 863.643 191.602C863.053 191.216 862.598 190.684 862.28 190.006C861.962 189.328 861.803 188.553 861.803 187.682C861.803 186.795 861.965 186.013 862.291 185.335C862.621 184.653 863.079 184.121 863.666 183.739C864.257 183.352 864.946 183.159 865.734 183.159C866.348 183.159 866.901 183.273 867.393 183.5C867.886 183.727 868.289 184.045 868.604 184.455C868.918 184.864 869.113 185.341 869.189 185.886H867.848C867.746 185.489 867.518 185.136 867.166 184.83C866.818 184.519 866.348 184.364 865.757 184.364C865.234 184.364 864.776 184.5 864.382 184.773C863.992 185.042 863.687 185.422 863.467 185.915C863.251 186.403 863.143 186.977 863.143 187.636C863.143 188.311 863.25 188.898 863.462 189.398C863.678 189.898 863.981 190.286 864.371 190.562C864.765 190.839 865.227 190.977 865.757 190.977C866.106 190.977 866.422 190.917 866.706 190.795C866.99 190.674 867.231 190.5 867.428 190.273C867.625 190.045 867.765 189.773 867.848 189.455H869.189C869.113 189.97 868.926 190.434 868.626 190.847C868.331 191.256 867.939 191.581 867.45 191.824C866.965 192.062 866.401 192.182 865.757 192.182ZM872.126 192.091C871.846 192.091 871.606 191.991 871.405 191.79C871.204 191.589 871.104 191.348 871.104 191.068C871.104 190.788 871.204 190.547 871.405 190.347C871.606 190.146 871.846 190.045 872.126 190.045C872.407 190.045 872.647 190.146 872.848 190.347C873.049 190.547 873.149 190.788 873.149 191.068C873.149 191.254 873.102 191.424 873.007 191.58C872.916 191.735 872.793 191.86 872.638 191.955C872.486 192.045 872.316 192.091 872.126 192.091ZM806.509 211V209.75H806.827C807.089 209.75 807.307 209.699 807.481 209.597C807.655 209.491 807.795 209.307 807.901 209.045C808.011 208.78 808.094 208.413 808.151 207.943C808.212 207.47 808.255 206.867 808.282 206.136L808.441 202.273H814.259V211H812.918V203.523H809.714L809.577 206.636C809.547 207.352 809.483 207.983 809.384 208.528C809.29 209.07 809.144 209.525 808.947 209.892C808.754 210.259 808.496 210.536 808.174 210.722C807.852 210.907 807.449 211 806.964 211H806.509ZM820.379 211.182C819.538 211.182 818.812 210.996 818.202 210.625C817.596 210.25 817.129 209.727 816.799 209.057C816.473 208.383 816.31 207.598 816.31 206.705C816.31 205.811 816.473 205.023 816.799 204.341C817.129 203.655 817.587 203.121 818.174 202.739C818.765 202.352 819.454 202.159 820.242 202.159C820.697 202.159 821.146 202.235 821.589 202.386C822.032 202.538 822.435 202.784 822.799 203.125C823.163 203.462 823.452 203.909 823.668 204.466C823.884 205.023 823.992 205.708 823.992 206.523V207.091H817.265V205.932H822.629C822.629 205.439 822.53 205 822.333 204.614C822.14 204.227 821.863 203.922 821.504 203.699C821.147 203.475 820.727 203.364 820.242 203.364C819.708 203.364 819.246 203.496 818.856 203.761C818.469 204.023 818.172 204.364 817.964 204.784C817.755 205.205 817.651 205.655 817.651 206.136V206.909C817.651 207.568 817.765 208.127 817.992 208.585C818.223 209.04 818.543 209.386 818.952 209.625C819.362 209.86 819.837 209.977 820.379 209.977C820.731 209.977 821.049 209.928 821.333 209.83C821.621 209.727 821.869 209.576 822.077 209.375C822.286 209.17 822.447 208.917 822.56 208.614L823.856 208.977C823.719 209.417 823.49 209.803 823.168 210.136C822.846 210.466 822.449 210.723 821.975 210.909C821.502 211.091 820.969 211.182 820.379 211.182ZM825.219 203.523V202.273H832.31V203.523H829.447V211H828.106V203.523H825.219ZM837.835 213.5V209.75H838.562C838.74 209.564 838.893 209.364 839.022 209.148C839.151 208.932 839.263 208.676 839.357 208.381C839.456 208.081 839.539 207.718 839.607 207.29C839.675 206.858 839.736 206.337 839.789 205.727L840.085 202.273H845.63V209.75H846.971V213.5H845.63V211H839.175V213.5H837.835ZM840.085 209.75H844.289V203.523H841.335L841.107 205.727C841.013 206.64 840.895 207.437 840.755 208.119C840.615 208.801 840.391 209.345 840.085 209.75ZM852.296 211.182C851.508 211.182 850.817 210.994 850.222 210.619C849.631 210.244 849.169 209.72 848.836 209.045C848.506 208.371 848.342 207.583 848.342 206.682C848.342 205.773 848.506 204.979 848.836 204.301C849.169 203.623 849.631 203.097 850.222 202.722C850.817 202.347 851.508 202.159 852.296 202.159C853.084 202.159 853.773 202.347 854.364 202.722C854.959 203.097 855.421 203.623 855.751 204.301C856.084 204.979 856.251 205.773 856.251 206.682C856.251 207.583 856.084 208.371 855.751 209.045C855.421 209.72 854.959 210.244 854.364 210.619C853.773 210.994 853.084 211.182 852.296 211.182ZM852.296 209.977C852.895 209.977 853.387 209.824 853.773 209.517C854.16 209.21 854.446 208.807 854.631 208.307C854.817 207.807 854.91 207.265 854.91 206.682C854.91 206.098 854.817 205.555 854.631 205.051C854.446 204.547 854.16 204.14 853.773 203.83C853.387 203.519 852.895 203.364 852.296 203.364C851.698 203.364 851.205 203.519 850.819 203.83C850.433 204.14 850.147 204.547 849.961 205.051C849.775 205.555 849.683 206.098 849.683 206.682C849.683 207.265 849.775 207.807 849.961 208.307C850.147 208.807 850.433 209.21 850.819 209.517C851.205 209.824 851.698 209.977 852.296 209.977ZM868.638 206.023V207.273H863.82V206.023H868.638ZM864.138 202.273V211H862.798V202.273H864.138ZM869.661 202.273V211H868.32V202.273H869.661ZM873.087 211.091C872.807 211.091 872.567 210.991 872.366 210.79C872.165 210.589 872.065 210.348 872.065 210.068C872.065 209.788 872.165 209.547 872.366 209.347C872.567 209.146 872.807 209.045 873.087 209.045C873.368 209.045 873.608 209.146 873.809 209.347C874.01 209.547 874.11 209.788 874.11 210.068C874.11 210.254 874.063 210.424 873.968 210.58C873.877 210.735 873.754 210.86 873.599 210.955C873.447 211.045 873.277 211.091 873.087 211.091ZM879.403 203.409C879.1 203.413 878.795 203.491 878.488 203.642C878.185 203.794 877.931 203.994 877.727 204.244C877.526 204.491 877.425 204.765 877.425 205.068H876.107C876.107 204.689 876.198 204.326 876.38 203.977C876.562 203.629 876.806 203.318 877.113 203.045C877.424 202.773 877.776 202.557 878.17 202.398C878.567 202.239 878.978 202.159 879.403 202.159C880.198 202.159 880.872 202.36 881.425 202.761C881.982 203.163 882.405 203.693 882.692 204.352C882.984 205.011 883.13 205.727 883.13 206.5V206.818C883.13 207.587 882.984 208.303 882.692 208.966C882.405 209.625 881.982 210.155 881.425 210.557C880.872 210.958 880.198 211.159 879.403 211.159C878.766 211.159 878.2 211.019 877.704 210.739C877.208 210.455 876.817 210.076 876.533 209.602C876.249 209.129 876.107 208.602 876.107 208.023H877.425C877.425 208.352 877.518 208.661 877.704 208.949C877.893 209.233 878.138 209.464 878.437 209.642C878.74 209.816 879.062 209.905 879.403 209.909C879.91 209.905 880.342 209.746 880.698 209.432C881.054 209.117 881.325 208.723 881.511 208.25C881.696 207.777 881.789 207.299 881.789 206.818V206.5C881.789 206.008 881.696 205.527 881.511 205.057C881.329 204.583 881.06 204.191 880.704 203.881C880.352 203.57 879.918 203.413 879.403 203.409ZM882.335 205.977V207.227H878.516V205.977H882.335Z" fill="white"/>
<ellipse cx="1.5" cy="24" rx="1.5" ry="24" transform="matrix(-1 0 0 1 1108 124)" fill="white"/>
<ellipse cx="1.5" cy="24" rx="1.5" ry="24" transform="matrix(-1 0 0 1 1108 124)" fill="white"/>
<path d="M1084.04 180.364V192H1082.63V181.841H1082.56L1079.72 183.727V182.295L1082.63 180.364H1084.04ZM1087.38 192V190.977L1091.23 186.773C1091.68 186.28 1092.05 185.852 1092.34 185.489C1092.63 185.121 1092.85 184.777 1092.99 184.455C1093.13 184.129 1093.2 183.788 1093.2 183.432C1093.2 183.023 1093.1 182.669 1092.91 182.369C1092.71 182.07 1092.45 181.839 1092.11 181.676C1091.77 181.513 1091.4 181.432 1090.98 181.432C1090.53 181.432 1090.14 181.525 1089.8 181.71C1089.48 181.892 1089.22 182.148 1089.04 182.477C1088.86 182.807 1088.77 183.193 1088.77 183.636H1087.43C1087.43 182.955 1087.59 182.356 1087.9 181.841C1088.22 181.326 1088.64 180.924 1089.19 180.636C1089.73 180.348 1090.34 180.205 1091.02 180.205C1091.7 180.205 1092.31 180.348 1092.83 180.636C1093.36 180.924 1093.77 181.312 1094.07 181.801C1094.37 182.29 1094.52 182.833 1094.52 183.432C1094.52 183.86 1094.44 184.278 1094.29 184.688C1094.14 185.093 1093.87 185.545 1093.49 186.045C1093.12 186.542 1092.6 187.148 1091.93 187.864L1089.32 190.659V190.75H1094.73V192H1087.38ZM1101.09 184.523V183.273H1108.19V184.523H1105.32V192H1103.98V184.523H1101.09ZM1111.3 186.432H1113.8C1114.82 186.432 1115.61 186.691 1116.15 187.21C1116.69 187.729 1116.96 188.386 1116.96 189.182C1116.96 189.705 1116.84 190.18 1116.6 190.608C1116.35 191.032 1116 191.371 1115.53 191.625C1115.06 191.875 1114.48 192 1113.8 192H1110.14V183.273H1111.48V190.75H1113.8C1114.33 190.75 1114.77 190.61 1115.11 190.33C1115.45 190.049 1115.62 189.689 1115.62 189.25C1115.62 188.788 1115.45 188.411 1115.11 188.119C1114.77 187.828 1114.33 187.682 1113.8 187.682H1111.3V186.432ZM1118.35 192V183.273H1119.69V192H1118.35ZM1125.69 192.182C1124.87 192.182 1124.16 191.989 1123.57 191.602C1122.98 191.216 1122.53 190.684 1122.21 190.006C1121.89 189.328 1121.73 188.553 1121.73 187.682C1121.73 186.795 1121.9 186.013 1122.22 185.335C1122.55 184.653 1123.01 184.121 1123.6 183.739C1124.19 183.352 1124.88 183.159 1125.66 183.159C1126.28 183.159 1126.83 183.273 1127.32 183.5C1127.82 183.727 1128.22 184.045 1128.53 184.455C1128.85 184.864 1129.04 185.341 1129.12 185.886H1127.78C1127.68 185.489 1127.45 185.136 1127.1 184.83C1126.75 184.519 1126.28 184.364 1125.69 184.364C1125.16 184.364 1124.71 184.5 1124.31 184.773C1123.92 185.042 1123.62 185.422 1123.4 185.915C1123.18 186.403 1123.07 186.977 1123.07 187.636C1123.07 188.311 1123.18 188.898 1123.39 189.398C1123.61 189.898 1123.91 190.286 1124.3 190.562C1124.69 190.839 1125.16 190.977 1125.69 190.977C1126.04 190.977 1126.35 190.917 1126.64 190.795C1126.92 190.674 1127.16 190.5 1127.36 190.273C1127.55 190.045 1127.69 189.773 1127.78 189.455H1129.12C1129.04 189.97 1128.86 190.434 1128.56 190.847C1128.26 191.256 1127.87 191.581 1127.38 191.824C1126.9 192.062 1126.33 192.182 1125.69 192.182ZM1132.06 192.091C1131.78 192.091 1131.54 191.991 1131.33 191.79C1131.13 191.589 1131.03 191.348 1131.03 191.068C1131.03 190.788 1131.13 190.547 1131.33 190.347C1131.54 190.146 1131.78 190.045 1132.06 190.045C1132.34 190.045 1132.58 190.146 1132.78 190.347C1132.98 190.547 1133.08 190.788 1133.08 191.068C1133.08 191.254 1133.03 191.424 1132.94 191.58C1132.85 191.735 1132.72 191.86 1132.57 191.955C1132.42 192.045 1132.25 192.091 1132.06 192.091ZM1068.01 211V209.75H1068.33C1068.59 209.75 1068.81 209.699 1068.98 209.597C1069.16 209.491 1069.3 209.307 1069.4 209.045C1069.51 208.78 1069.59 208.413 1069.65 207.943C1069.71 207.47 1069.76 206.867 1069.78 206.136L1069.94 202.273H1075.76V211H1074.42V203.523H1071.21L1071.08 206.636C1071.05 207.352 1070.98 207.983 1070.88 208.528C1070.79 209.07 1070.64 209.525 1070.45 209.892C1070.25 210.259 1070 210.536 1069.67 210.722C1069.35 210.907 1068.95 211 1068.46 211H1068.01ZM1081.88 211.182C1081.04 211.182 1080.31 210.996 1079.7 210.625C1079.1 210.25 1078.63 209.727 1078.3 209.057C1077.97 208.383 1077.81 207.598 1077.81 206.705C1077.81 205.811 1077.97 205.023 1078.3 204.341C1078.63 203.655 1079.09 203.121 1079.67 202.739C1080.26 202.352 1080.95 202.159 1081.74 202.159C1082.2 202.159 1082.65 202.235 1083.09 202.386C1083.53 202.538 1083.94 202.784 1084.3 203.125C1084.66 203.462 1084.95 203.909 1085.17 204.466C1085.38 205.023 1085.49 205.708 1085.49 206.523V207.091H1078.76V205.932H1084.13C1084.13 205.439 1084.03 205 1083.83 204.614C1083.64 204.227 1083.36 203.922 1083 203.699C1082.65 203.475 1082.23 203.364 1081.74 203.364C1081.21 203.364 1080.75 203.496 1080.36 203.761C1079.97 204.023 1079.67 204.364 1079.46 204.784C1079.26 205.205 1079.15 205.655 1079.15 206.136V206.909C1079.15 207.568 1079.26 208.127 1079.49 208.585C1079.72 209.04 1080.04 209.386 1080.45 209.625C1080.86 209.86 1081.34 209.977 1081.88 209.977C1082.23 209.977 1082.55 209.928 1082.83 209.83C1083.12 209.727 1083.37 209.576 1083.58 209.375C1083.79 209.17 1083.95 208.917 1084.06 208.614L1085.36 208.977C1085.22 209.417 1084.99 209.803 1084.67 210.136C1084.35 210.466 1083.95 210.723 1083.48 210.909C1083 211.091 1082.47 211.182 1081.88 211.182ZM1086.72 203.523V202.273H1093.81V203.523H1090.95V211H1089.61V203.523H1086.72ZM1099.33 213.5V209.75H1100.06C1100.24 209.564 1100.39 209.364 1100.52 209.148C1100.65 208.932 1100.76 208.676 1100.86 208.381C1100.96 208.081 1101.04 207.718 1101.11 207.29C1101.18 206.858 1101.24 206.337 1101.29 205.727L1101.58 202.273H1107.13V209.75H1108.47V213.5H1107.13V211H1100.68V213.5H1099.33ZM1101.58 209.75H1105.79V203.523H1102.83L1102.61 205.727C1102.51 206.64 1102.4 207.437 1102.25 208.119C1102.11 208.801 1101.89 209.345 1101.58 209.75ZM1113.8 211.182C1113.01 211.182 1112.32 210.994 1111.72 210.619C1111.13 210.244 1110.67 209.72 1110.34 209.045C1110.01 208.371 1109.84 207.583 1109.84 206.682C1109.84 205.773 1110.01 204.979 1110.34 204.301C1110.67 203.623 1111.13 203.097 1111.72 202.722C1112.32 202.347 1113.01 202.159 1113.8 202.159C1114.58 202.159 1115.27 202.347 1115.86 202.722C1116.46 203.097 1116.92 203.623 1117.25 204.301C1117.58 204.979 1117.75 205.773 1117.75 206.682C1117.75 207.583 1117.58 208.371 1117.25 209.045C1116.92 209.72 1116.46 210.244 1115.86 210.619C1115.27 210.994 1114.58 211.182 1113.8 211.182ZM1113.8 209.977C1114.39 209.977 1114.89 209.824 1115.27 209.517C1115.66 209.21 1115.95 208.807 1116.13 208.307C1116.32 207.807 1116.41 207.265 1116.41 206.682C1116.41 206.098 1116.32 205.555 1116.13 205.051C1115.95 204.547 1115.66 204.14 1115.27 203.83C1114.89 203.519 1114.39 203.364 1113.8 203.364C1113.2 203.364 1112.71 203.519 1112.32 203.83C1111.93 204.14 1111.65 204.547 1111.46 205.051C1111.28 205.555 1111.18 206.098 1111.18 206.682C1111.18 207.265 1111.28 207.807 1111.46 208.307C1111.65 208.807 1111.93 209.21 1112.32 209.517C1112.71 209.824 1113.2 209.977 1113.8 209.977ZM1130.14 206.023V207.273H1125.32V206.023H1130.14ZM1125.64 202.273V211H1124.3V202.273H1125.64ZM1131.16 202.273V211H1129.82V202.273H1131.16ZM1134.59 211.091C1134.31 211.091 1134.07 210.991 1133.87 210.79C1133.67 210.589 1133.56 210.348 1133.56 210.068C1133.56 209.788 1133.67 209.547 1133.87 209.347C1134.07 209.146 1134.31 209.045 1134.59 209.045C1134.87 209.045 1135.11 209.146 1135.31 209.347C1135.51 209.547 1135.61 209.788 1135.61 210.068C1135.61 210.254 1135.56 210.424 1135.47 210.58C1135.38 210.735 1135.25 210.86 1135.1 210.955C1134.95 211.045 1134.78 211.091 1134.59 211.091ZM1140.9 203.409C1140.6 203.413 1140.29 203.491 1139.99 203.642C1139.68 203.794 1139.43 203.994 1139.23 204.244C1139.03 204.491 1138.93 204.765 1138.93 205.068H1137.61C1137.61 204.689 1137.7 204.326 1137.88 203.977C1138.06 203.629 1138.31 203.318 1138.61 203.045C1138.92 202.773 1139.28 202.557 1139.67 202.398C1140.07 202.239 1140.48 202.159 1140.9 202.159C1141.7 202.159 1142.37 202.36 1142.93 202.761C1143.48 203.163 1143.9 203.693 1144.19 204.352C1144.48 205.011 1144.63 205.727 1144.63 206.5V206.818C1144.63 207.587 1144.48 208.303 1144.19 208.966C1143.9 209.625 1143.48 210.155 1142.93 210.557C1142.37 210.958 1141.7 211.159 1140.9 211.159C1140.27 211.159 1139.7 211.019 1139.2 210.739C1138.71 210.455 1138.32 210.076 1138.03 209.602C1137.75 209.129 1137.61 208.602 1137.61 208.023H1138.93C1138.93 208.352 1139.02 208.661 1139.2 208.949C1139.39 209.233 1139.64 209.464 1139.94 209.642C1140.24 209.816 1140.56 209.905 1140.9 209.909C1141.41 209.905 1141.84 209.746 1142.2 209.432C1142.55 209.117 1142.83 208.723 1143.01 208.25C1143.2 207.777 1143.29 207.299 1143.29 206.818V206.5C1143.29 206.008 1143.2 205.527 1143.01 205.057C1142.83 204.583 1142.56 204.191 1142.2 203.881C1141.85 203.57 1141.42 203.413 1140.9 203.409ZM1143.83 205.977V207.227H1140.02V205.977H1143.83Z" fill="white"/>
<path d="M63.0798 145C56.5396 88.9244 454 132.214 454 64" stroke="#8684FF" stroke-width="3"/>
<path d="M841.921 145C848.411 88.9244 454 132.214 454 64" stroke="#8684FF" stroke-width="3"/>
<path d="M848.026 144C845.884 88.6167 976.071 131.372 976.071 64" stroke="#8684FF" stroke-width="3"/>
<path d="M1103.97 143.68C1106.12 88.5183 975.929 131.103 975.929 64" stroke="#8684FF" stroke-width="3"/>
<line x1="4.00328" y1="146" x2="1220" y2="146.998" stroke="white" stroke-width="8"/>
</g>
<defs>
<filter id="filter0_d_250_457" x="0" y="0" width="1232" height="309" filterUnits="userSpaceOnUse" color-interpolation-filters="sRGB">
<feFlood flood-opacity="0" result="BackgroundImageFix"/>
<feColorMatrix in="SourceAlpha" type="matrix" values="0 0 0 0 0 0 0 0 0 0 0 0 0 0 0 0 0 0 127 0" result="hardAlpha"/>
<feOffset dy="4"/>
<feGaussianBlur stdDeviation="2"/>
<feComposite in2="hardAlpha" operator="out"/>
<feColorMatrix type="matrix" values="0 0 0 0 0 0 0 0 0 0 0 0 0 0 0 0 0 0 0.25 0"/>
<feBlend mode="normal" in2="BackgroundImageFix" result="effect1_dropShadow_250_457"/>
<feBlend mode="normal" in="SourceGraphic" in2="effect1_dropShadow_250_457" result="shape"/>
</filter>
</defs>
</svg>
